<svg width="60" height="60" viewBox="0 0 60 60" fill="none" xmlns="http://www.w3.org/2000/svg">
<path fill-rule="evenodd" clip-rule="evenodd" d="M21.6675 23.5425C20.8195 23.5425 19.9798 23.7095 19.1963 24.034C18.4129 24.3586 17.701 24.8342 17.1013 25.4339C16.5017 26.0335 16.0261 26.7454 15.7015 27.5288C15.377 28.3123 15.21 29.152 15.21 30C15.21 30.848 15.377 31.6877 15.7015 32.4712C16.0261 33.2546 16.5017 33.9665 17.1013 34.5661C17.701 35.1658 18.4129 35.6414 19.1963 35.966C19.9798 36.2905 20.8195 36.4575 21.6675 36.4575H28.125V30.13C28.124 30.0433 28.124 29.9567 28.125 29.87V23.5425H21.6675ZM28.125 19.7925H21.6675C19.9545 19.7925 18.3117 19.112 17.1005 17.9008C15.8892 16.6895 15.2087 15.0467 15.2087 13.3337C15.2087 11.6208 15.8892 9.97797 17.1005 8.76672C18.3117 7.55547 19.9545 6.875 21.6675 6.875H28.125V19.7925ZM31.875 6.875V19.7925H38.3325C40.0235 19.7592 41.6339 19.0641 42.818 17.8565C44.0021 16.6489 44.6654 15.025 44.6654 13.3337C44.6654 11.6425 44.0021 10.0186 42.818 8.81099C41.6339 7.60336 40.0235 6.90827 38.3325 6.875H31.875ZM38.3325 23.54C36.6375 23.5398 35.0103 24.206 33.8022 25.395C32.5941 26.5839 31.9019 28.2002 31.875 29.895V30.1025C31.8957 31.375 32.2919 32.613 33.0139 33.661C33.736 34.7091 34.7516 35.5204 35.9332 35.9931C37.1148 36.4658 38.4098 36.5788 39.6554 36.3179C40.9011 36.057 42.0418 35.4338 42.9345 34.5267C43.8271 33.6195 44.4317 32.4689 44.6725 31.2192C44.9133 29.9695 44.7794 28.6765 44.2877 27.5027C43.7961 26.3288 42.9685 25.3264 41.9089 24.6214C40.8494 23.9164 39.6052 23.5402 38.3325 23.54ZM21.6675 40.2075C20.3897 40.207 19.1405 40.5855 18.0778 41.295C17.0152 42.0045 16.1868 43.0133 15.6974 44.1936C15.2081 45.374 15.0798 46.673 15.3288 47.9263C15.5778 49.1795 16.1928 50.3308 17.0962 51.2345C17.9995 52.1382 19.1506 52.7537 20.4038 53.0032C21.657 53.2527 22.956 53.1249 24.1365 52.636C25.3171 52.1471 26.3262 51.3191 27.0361 50.2567C27.7461 49.1943 28.125 47.9453 28.125 46.6675V40.2075H21.6675Z" fill="#808080"/>
</svg>
