<svg width="60" height="60" viewBox="0 0 60 60" fill="none" xmlns="http://www.w3.org/2000/svg">
<path d="M3.22266 19.0078L1.05469 21.9258H11.6602L12.4688 6.60938L3.22266 19.0078ZM46.4414 5.35547L31.3711 3.75L47.2734 21L46.4414 5.35547ZM13.1484 25.582L11.8359 23.0039H1.16016L27.5156 53.6719L13.1484 25.582ZM13.3828 21.9258H46.6641L37.1133 11.5547L30.0352 3.86719L13.3828 21.9258ZM48.2227 22.9922L32.5312 53.6719L58.875 23.0039H48.2227V22.9922ZM48.6797 8.08594L47.5781 6.60938L47.6836 8.63672L48.3984 21.9258H58.9805L48.6797 8.08594ZM13.3008 10.957L12.7617 20.9883L28.6758 3.75L13.6055 5.35547L13.3008 10.957ZM47.0156 22.9922H13.0312L18 32.707L30.0352 56.25L47.0156 22.9922Z" fill="#808080"/>
</svg>
