<svg width="24" height="24" viewBox="0 0 24 24" fill="none" xmlns="http://www.w3.org/2000/svg">
<g id="sms">
<path id="Vector" d="M16.9985 20.75H6.99854C5.26845 20.75 3.97216 20.254 3.10834 19.3902C2.24452 18.5264 1.74854 17.2301 1.74854 15.5V8.5C1.74854 6.76991 2.24452 5.47362 3.10834 4.6098C3.97216 3.74598 5.26845 3.25 6.99854 3.25H16.9985C18.7286 3.25 20.0249 3.74598 20.8887 4.6098C21.7526 5.47362 22.2485 6.76991 22.2485 8.5V15.5C22.2485 17.2301 21.7526 18.5264 20.8887 19.3902C20.0249 20.254 18.7286 20.75 16.9985 20.75ZM6.99854 3.75C5.49505 3.75 4.28109 4.11533 3.44748 4.94895C2.61387 5.78256 2.24854 6.99651 2.24854 8.5V15.5C2.24854 17.0035 2.61387 18.2174 3.44748 19.0511C4.28109 19.8847 5.49505 20.25 6.99854 20.25H16.9985C18.502 20.25 19.716 19.8847 20.5496 19.0511C21.3832 18.2174 21.7485 17.0035 21.7485 15.5V8.5C21.7485 6.99651 21.3832 5.78256 20.5496 4.94895C19.716 4.11533 18.502 3.75 16.9985 3.75H6.99854Z" stroke="#808080"/>
<path id="Vector_2" d="M9.97551 11.6925L9.97552 11.6924L9.97158 11.6893L6.84361 9.19092C6.7282 9.0961 6.72072 8.93988 6.79759 8.84526C6.89232 8.72869 7.0493 8.72089 7.14424 8.79803L7.14423 8.79804L7.1475 8.80065L10.2766 11.2999C10.2767 11.3 10.2768 11.3001 10.277 11.3002C10.7616 11.689 11.3906 11.8675 11.9945 11.8675C12.5984 11.8675 13.2274 11.689 13.712 11.3003C13.7122 11.3002 13.7123 11.3 13.7125 11.2999L16.8416 8.80065L16.8416 8.80067L16.8448 8.79803C16.9524 8.71064 17.1072 8.73449 17.181 8.8319L17.1861 8.83867L17.1915 8.84527C17.2789 8.95283 17.255 9.10763 17.1576 9.18143L17.1575 9.18129L17.1475 9.18929L14.0175 11.6893L14.0174 11.6892L14.0106 11.6949C13.4744 12.1389 12.7429 12.37 11.9995 12.37C11.2571 12.37 10.5235 12.1393 9.97551 11.6925Z" stroke="#808080"/>
</g>
</svg>
