<svg width="32" height="33" viewBox="0 0 32 33" fill="none" xmlns="http://www.w3.org/2000/svg">
<path d="M17.4699 26.03C17.3295 25.8894 17.2506 25.6988 17.2506 25.5C17.2506 25.3013 17.3295 25.1106 17.4699 24.97L25.1887 17.25H4.99993C4.80101 17.25 4.61025 17.171 4.46959 17.0303C4.32894 16.8897 4.24993 16.6989 4.24993 16.5C4.24993 16.3011 4.32894 16.1103 4.46959 15.9697C4.61025 15.829 4.80101 15.75 4.99993 15.75H25.1887L17.4699 8.03C17.3374 7.88782 17.2653 7.69978 17.2688 7.50548C17.2722 7.31118 17.3509 7.12579 17.4883 6.98838C17.6257 6.85096 17.8111 6.77225 18.0054 6.76882C18.1997 6.7654 18.3878 6.83752 18.5299 6.97L27.5299 15.97C27.6704 16.1106 27.7493 16.3012 27.7493 16.5C27.7493 16.6988 27.6704 16.8894 27.5299 17.03L18.5299 26.03C18.3893 26.1705 18.1987 26.2493 17.9999 26.2493C17.8012 26.2493 17.6106 26.1705 17.4699 26.03Z" fill="white"/>
</svg>
