<?xml version="1.0" encoding="UTF-8"?> <!-- Generator: Adobe Illustrator 16.0.0, SVG Export Plug-In . SVG Version: 6.00 Build 0) --> <svg xmlns="http://www.w3.org/2000/svg" xmlns:xlink="http://www.w3.org/1999/xlink" id="Слой_1" x="0px" y="0px" width="180px" height="180px" viewBox="0 0 1080 1080" xml:space="preserve"> <g> <defs> <rect id="SVGID_1_" width="1080" height="1080"></rect> </defs> <clipPath id="SVGID_2_"> <use xlink:href="#SVGID_1_" overflow="visible"></use> </clipPath> <path clip-path="url(#SVGID_2_)" fill-rule="evenodd" clip-rule="evenodd" fill="#FFFFFF" d="M276.615,724.673 c-69.938,0-78.127-34.274-76.111-95.979l60.624-0.146l14.854-10.507l-0.223-19.208l224.93-210.058l151.336,128.209h40.485 l-109.384-90.859l12.303-11.379l121.629,102.238h42.562L595.764,375.459l-35.191,29.766l-60.393-52.244L247.983,586.678v12.349 l-74.609,0.049c-1.653,123.721,12.991,152.66,103.627,152.66L276.615,724.673z"></path> <path clip-path="url(#SVGID_2_)" fill-rule="evenodd" clip-rule="evenodd" fill="#FFFFFF" d="M434.335,654.454 c0.124,17.936-7.023,33.06-21.444,45.381c-14.421,12.319-32.168,18.505-53.241,18.551l-12.124,0.031l0.224,32.618l-53.262,0.124 l-1.043-151.66l78.157-0.18c20.496-0.05,36.19,4.856,47.08,14.714C429.001,623.612,434.215,637.087,434.335,654.454 M668.023,750.29l-60.335,0.142l-10.728-22.642c-25.19,0.195-49.1,0.522-75.541,0.083l58.522-129.041l16.239-0.037L668.023,750.29z M588.953,711.923l-21.774-44.045l-21.094,44.143L588.953,711.923z M798.788,749.985l-127.517,0.298l53.824-137.81l-50.441,0.119 l-0.1-13.979l116.912-0.27l-52.961,137.374l60.185-0.136L798.788,749.985z M899.324,749.751l-60.331,0.142l-10.729-22.641 c-25.19,0.193-49.101,0.521-75.545,0.082l58.527-129.039l16.235-0.037L899.324,749.751z M820.251,711.385l-21.772-44.046 l-21.094,44.143L820.251,711.385z M374.533,679.379l-0.232-33.89c-0.071-10.451-0.912-17.229-2.522-20.33 c-3.507-6.771-9.305-10.147-17.389-10.129l-6.928,0.018l0.614,88.748l4.544-0.008c6.063-0.015,11.242-2.394,15.54-7.133 C372.457,691.913,374.579,686.158,374.533,679.379 M562.953,750.531l-113.447,0.263l-1.046-151.657l55.426-0.128l0.927,134.716 l58.025-0.138L562.953,750.531z"></path> <path clip-path="url(#SVGID_2_)" fill-rule="evenodd" clip-rule="evenodd" fill="#FFFFFF" d="M448.545,583.022v-51.09h36.443 c6.45,0,10.684,0.05,12.679,0.151c1.997,0.1,4.084,0.37,6.253,0.818c5.053,1.047,8.35,3.943,9.877,8.68 c0.569,1.801,0.947,3.728,1.15,5.783c0.19,2.071,0.291,5.173,0.291,9.346c0,4.569-0.115,8.015-0.355,10.366 c-0.226,2.351-0.669,4.479-1.311,6.395c-1.505,4.495-4.599,7.264-9.285,8.313c-2.197,0.495-4.535,0.828-7.02,0.992 c-2.494,0.17-6.572,0.246-12.244,0.246H448.545z M463.701,569.999h21.427c3.949,0,6.856-0.126,8.711-0.396 c1.868-0.254,3.183-0.716,3.943-1.367c0.845-0.715,1.441-1.863,1.781-3.436c0.341-1.567,0.517-3.938,0.517-7.11 c0-3.164-0.151-5.537-0.441-7.134c-0.302-1.596-0.821-2.821-1.554-3.664c-0.847-0.921-2.06-1.519-3.65-1.775 c-1.593-0.264-4.737-0.394-9.447-0.394h-21.287V569.999z M554.987,531.239c10.903,0,18.402,0.27,22.496,0.82 c5.9,0.804,9.51,3.636,10.85,8.489c0.909,3.344,1.365,8.987,1.365,16.944c0,7.975-0.456,13.644-1.365,16.989 c-1.34,4.852-4.949,7.685-10.85,8.487c-4.094,0.55-11.546,0.819-22.345,0.819c-11.002,0-18.558-0.27-22.646-0.819 c-5.9-0.803-9.512-3.636-10.852-8.487c-0.909-3.346-1.365-9.104-1.365-17.284c0-7.777,0.456-13.33,1.365-16.649 c1.34-4.853,4.952-7.685,10.852-8.489C536.559,531.509,544.061,531.239,554.987,531.239 M555.024,544.493 c-8.171,0-13.085,0.218-14.737,0.637c-1.896,0.5-3.148,1.622-3.741,3.358c-0.591,1.738-0.886,5.181-0.886,10.354 c0,3.128,0.168,5.387,0.482,6.779c0.62,2.604,2.475,4.088,5.594,4.467c2.288,0.295,6.746,0.446,13.365,0.446 c6.19,0,10.318-0.116,12.365-0.334c2.046-0.227,3.562-0.726,4.547-1.5c0.897-0.705,1.492-1.729,1.818-3.092 c0.316-1.367,0.48-3.589,0.48-6.691c0-3.676-0.125-6.367-0.365-8.094c-0.255-1.722-0.695-3.024-1.34-3.892 c-0.809-1.101-2.161-1.787-4.028-2.045C566.697,544.622,562.185,544.493,555.024,544.493 M595.797,583.022v-51.09h37.209 c8.732,0.023,13.946,0.11,15.679,0.28c1.718,0.166,3.386,0.741,4.986,1.736c1.921,1.175,3.247,2.797,3.957,4.852 c0.719,2.068,1.073,5.31,1.073,9.728c0,3.715-0.231,6.461-0.683,8.208c-0.454,1.748-1.314,3.14-2.566,4.188 c-1.352,1.124-3.382,1.903-6.112,2.322c3.223,0.256,5.545,1.188,6.948,2.812c0.807,0.965,1.328,2.141,1.554,3.534 c0.215,1.379,0.328,4.274,0.328,8.694v4.737h-15.16v-2.722c0-2.83-0.098-4.863-0.313-6.064c-0.214-1.209-0.596-2.13-1.161-2.781 c-0.571-0.602-1.348-0.973-2.363-1.137c-0.996-0.166-3.094-0.243-6.277-0.243h-21.71v12.947H595.797z M611.185,557.287h21.673 c3.75-0.077,6.001-0.141,6.72-0.206c0.72-0.063,1.34-0.259,1.856-0.589c0.667-0.419,1.138-1.045,1.402-1.879 c0.263-0.839,0.406-2.105,0.406-3.803c0-1.66-0.156-2.909-0.458-3.737c-0.312-0.819-0.845-1.418-1.601-1.79 c-0.546-0.255-1.188-0.396-1.936-0.443c-0.744-0.052-2.895-0.094-6.429-0.116h-21.635V557.287z M663.99,583.022v-51.09h36.443 c6.454,0,10.686,0.05,12.68,0.151c1.995,0.1,4.078,0.37,6.253,0.818c5.053,1.047,8.349,3.943,9.88,8.68 c0.566,1.801,0.946,3.728,1.146,5.783c0.191,2.071,0.29,5.173,0.29,9.346c0,4.569-0.111,8.015-0.351,10.366 c-0.229,2.351-0.67,4.479-1.315,6.395c-1.501,4.495-4.598,7.264-9.285,8.313c-2.197,0.495-4.53,0.828-7.021,0.992 c-2.489,0.17-6.568,0.246-12.243,0.246H663.99z M679.149,569.999h21.424c3.951,0,6.855-0.126,8.716-0.396 c1.866-0.254,3.18-0.716,3.939-1.367c0.848-0.715,1.438-1.863,1.781-3.436c0.344-1.567,0.518-3.938,0.518-7.11 c0-3.164-0.152-5.537-0.441-7.134c-0.304-1.596-0.818-2.821-1.554-3.664c-0.848-0.921-2.061-1.519-3.649-1.775 c-1.592-0.264-4.739-0.394-9.449-0.394h-21.284V569.999z M770.432,531.239c10.903,0,18.406,0.27,22.5,0.82 c5.896,0.804,9.506,3.636,10.847,8.489c0.909,3.344,1.368,8.987,1.368,16.944c0,7.975-0.459,13.644-1.368,16.989 c-1.341,4.852-4.95,7.685-10.847,8.487c-4.094,0.55-11.55,0.819-22.344,0.819c-11.003,0-18.559-0.27-22.65-0.819 c-5.9-0.803-9.512-3.636-10.853-8.487c-0.904-3.346-1.362-9.104-1.362-17.284c0-7.777,0.458-13.33,1.362-16.649 c1.341-4.853,4.952-7.685,10.853-8.489C752.005,531.509,759.51,531.239,770.432,531.239 M770.473,544.493 c-8.174,0-13.085,0.218-14.741,0.637c-1.895,0.5-3.147,1.622-3.739,3.358c-0.596,1.738-0.884,5.181-0.884,10.354 c0,3.128,0.163,5.387,0.478,6.779c0.62,2.604,2.477,4.088,5.599,4.467c2.284,0.295,6.746,0.446,13.364,0.446 c6.187,0,10.318-0.116,12.364-0.334c2.048-0.227,3.562-0.726,4.546-1.5c0.901-0.705,1.492-1.729,1.818-3.092 c0.317-1.367,0.482-3.589,0.482-6.691c0-3.676-0.128-6.367-0.368-8.094c-0.254-1.722-0.693-3.024-1.337-3.892 c-0.807-1.101-2.158-1.787-4.027-2.045C782.142,544.622,777.633,544.493,770.473,544.493 M811.242,531.932h16.145v51.091h-16.145 V531.932z"></path> </g> </svg> 