<svg width="204" height="64" viewBox="0 0 204 64" fill="none" xmlns="http://www.w3.org/2000/svg">
<path d="M101.653 20.3634C102.32 20.354 102.888 20.2293 102.878 19.5437V19.4408C102.888 18.7582 102.32 18.6335 101.653 18.6243C100.983 18.6335 100.416 18.7582 100.425 19.4408V19.5437C100.416 20.2293 100.983 20.354 101.653 20.3634Z" fill="#808080"/>
<path d="M77.2672 18.9854C77.2672 18.7859 77.1084 18.627 76.9089 18.627H74.9172V19.3407H76.9089C77.0086 19.3407 77.0927 19.3063 77.1613 19.2378C77.2329 19.1661 77.2672 19.082 77.2672 18.9854Z" fill="#808080"/>
<path d="M88.4787 18.618L89.0522 19.8554H87.9021L88.4787 18.618Z" fill="#808080"/>
<path d="M114.067 18.618L114.64 19.8554H113.49L114.067 18.618Z" fill="#808080"/>
<path d="M73.3241 44.6738L72.4764 42.8447L71.624 44.6738H73.3241Z" fill="#808080"/>
<path d="M93.3286 44.1485C93.3286 44.7705 92.9738 45.282 92.3473 45.282H89.7026V43.0151H92.3473C92.9738 43.0151 93.3286 43.522 93.3286 44.1485Z" fill="#808080"/>
<path d="M100.028 42.8447L100.876 44.6738H99.176L100.028 42.8447Z" fill="#808080"/>
<path d="M110.33 42.8582C110.625 42.8582 110.86 43.0932 110.86 43.388C110.86 43.5308 110.809 43.6553 110.704 43.7612C110.602 43.8626 110.478 43.9133 110.33 43.9133H107.386V42.8582H110.33Z" fill="#808080"/>
<path d="M120.07 44.1485C120.07 44.7705 119.715 45.282 119.088 45.282H116.443V43.0151H119.088C119.715 43.0151 120.07 43.522 120.07 44.1485Z" fill="#808080"/>
<path d="M62.1298 32.6039L59.0571 25.5096H53.7854V37.3334H57.6262V30.9471L60.3976 37.3334H63.8319L66.6334 30.9471V37.3334H70.4592V25.5096H65.3531L62.1298 32.6039Z" fill="#808080"/>
<path d="M86.1351 37.3334V34.3963H77.6551V32.8599H85.7887V29.9831H77.6551V28.4618H86.0297V25.5096H73.6787V37.3334H86.1351Z" fill="#808080"/>
<path d="M89.3746 35.2394C90.5494 36.7608 92.643 37.5139 95.1584 37.5139C97.0474 37.5139 98.432 37.1302 99.3967 36.5217C99.5626 36.417 99.7162 36.3056 99.8578 36.1884L99.9633 37.3331H103.202V30.3292H95.3392V32.8747H99.5416C99.523 32.9952 99.4588 33.1844 99.3664 33.3646C99.3088 33.4771 99.2402 33.5861 99.165 33.673C98.7282 34.1851 97.5684 34.6369 96.0622 34.6369C94.4957 34.6369 93.4865 34.2303 92.9443 33.5977C92.5828 33.1307 92.3719 32.468 92.3719 31.4739C92.3719 30.4347 92.5828 29.7267 92.9895 29.2598C93.5769 28.5971 94.571 28.3109 96.032 28.3109C97.3425 28.3109 98.2462 28.6121 98.668 28.9887C98.9391 29.2146 99.1499 29.531 99.1951 29.7418H103.096C103.091 29.6028 103.071 29.4329 103.037 29.252C102.98 28.9429 102.883 28.6014 102.75 28.326C101.816 26.4281 99.6469 25.2985 95.9568 25.2985C92.7485 25.2985 90.5946 26.2774 89.4047 27.7536C88.6215 28.7627 88.26 30.0279 88.26 31.4438C88.26 33.0102 88.6817 34.3508 89.3746 35.2394Z" fill="#808080"/>
<path d="M92.8621 31.4739C92.8621 30.491 93.063 29.9226 93.3578 29.5831C93.8013 29.084 94.6105 28.8007 96.0324 28.8007C97.2967 28.8007 98.0532 29.0962 98.342 29.354L98.3483 29.3596L98.3547 29.365C98.454 29.4477 98.5448 29.5497 98.6135 29.6491C98.6813 29.7473 98.7085 29.8155 98.7152 29.8393H94.8497V33.3645H98.7845C98.6436 33.5238 98.3411 33.7225 97.8606 33.8821C97.3822 34.041 96.7684 34.1471 96.0625 34.1471C94.5742 34.1471 93.7371 33.7619 93.3245 33.2881C93.0548 32.9345 92.8621 32.3923 92.8621 31.4739Z" fill="#808080"/>
<path d="M113.435 29.8665L112.312 32.0089H114.495L113.435 29.8665Z" fill="#808080"/>
<path fill-rule="evenodd" clip-rule="evenodd" d="M116.563 35.1494L117.603 37.3334H121.956L115.991 25.5096H111.126L104.815 37.3334H109.078L110.177 35.1494H116.563ZM111.503 32.4984L112.994 29.6518L113.446 28.5673L113.867 29.6367L115.283 32.4984H111.503Z" fill="#808080"/>
<path fill-rule="evenodd" clip-rule="evenodd" d="M147.994 57.8061H147.987C147.903 57.8061 147.819 57.8057 147.735 57.8048V57.8061H55.6063C47.4765 57.8061 40.2248 54.0468 35.4946 48.1718H49.0686V46.4513H34.2228C32.008 43.1807 30.524 39.375 30.0049 35.2685H49.0686V33.5481H29.8455C29.8151 33.0358 29.7998 32.5195 29.7998 31.9997C29.7998 28.5938 30.4596 25.3421 31.6584 22.3652H49.0686V20.6449H32.4257C34.2495 16.9287 36.9405 13.7152 40.235 11.2685H132.622C133.774 10.4131 134.999 9.65142 136.287 8.99465C135.94 9.17164 135.598 9.35614 135.26 9.54803H42.873C46.6302 7.41266 50.9758 6.19324 55.6062 6.19324H147.735V6.19445C147.822 6.1936 147.908 6.19324 147.994 6.19324C162.246 6.19324 173.8 17.7471 173.8 31.9997C173.8 46.2521 162.246 57.8061 147.994 57.8061ZM157.589 44.1032C158.745 40.6222 159.434 36.4877 159.434 31.9997C159.434 27.8157 158.834 23.939 157.818 20.6125C157.693 20.2063 157.563 19.8084 157.427 19.4191C157.2 18.7708 156.956 18.1464 156.698 17.5481C156.349 16.7402 155.974 15.9797 155.575 15.2717C153.693 11.9313 151.546 10.1322 149.542 9.52651V17.5481H154.812C155.258 18.4994 155.665 19.5352 156.025 20.6449H149.542V30.4512H157.685C157.704 30.9615 157.714 31.4778 157.714 31.9997C157.714 32.5215 157.704 33.0378 157.685 33.548H149.542V43.3545H156.023C155.665 44.4641 155.258 45.4999 154.812 46.4512H149.542V54.4729C151.546 53.8674 153.693 52.0682 155.575 48.7276C155.974 48.0196 156.35 47.2591 156.698 46.4512C157.019 45.7075 157.317 44.9235 157.589 44.1032ZM161.052 20.6449C161.878 23.6341 162.389 26.9486 162.505 30.4512H170.651C170.411 26.8959 169.353 23.5649 167.665 20.6449H161.052ZM165.512 17.5481H160.04C159.047 14.9458 157.793 12.6822 156.346 10.8754C159.943 12.2987 163.089 14.6138 165.512 17.5481ZM146.446 9.52618V17.5481H139.289C139.637 16.7402 140.012 15.9797 140.412 15.2717C142.293 11.9307 144.442 10.1314 146.446 9.52618ZM139.641 10.8753C138.193 12.682 136.94 14.9457 135.947 17.5481H130.474C132.897 14.6137 136.044 12.2985 139.641 10.8753ZM134.934 20.6449H125.025V22.3652H127.423C126.258 24.8481 125.529 27.5763 125.335 30.4512H133.481C133.598 26.9486 134.108 23.6341 134.934 20.6449ZM146.446 20.6449H138.16C137.275 23.5494 136.709 26.8718 136.581 30.4512H146.446V20.6449ZM162.505 33.548C162.389 37.0506 161.878 40.3651 161.052 43.3545H167.665C169.353 40.4344 170.411 37.1033 170.651 33.548H162.505ZM138.16 43.3545C137.275 40.45 136.709 37.1274 136.581 33.548H146.446V43.3545H138.16ZM134.934 43.3545C134.108 40.3651 133.598 37.0506 133.481 33.548H125.335C125.575 37.1033 126.633 40.4344 128.322 43.3545H134.934ZM160.04 46.4512C159.047 49.0536 157.793 51.3171 156.347 53.1239C159.943 51.7005 163.089 49.3854 165.512 46.4512H160.04ZM139.289 46.4512H146.446V54.4733C144.442 53.868 142.293 52.0687 140.412 48.7276C140.012 48.0196 139.637 47.2591 139.289 46.4512ZM135.947 46.4512L125.025 46.4513V48.1717H132.05C134.204 50.2954 136.779 51.9919 139.641 53.1241C138.193 51.3173 136.94 49.0537 135.947 46.4512ZM101.653 17.2962C100.076 17.2993 98.7856 17.7544 98.7919 19.3408V19.6462C98.7856 21.2296 100.076 21.6877 101.653 21.6908C103.227 21.6877 104.517 21.2296 104.511 19.6462V19.3408C104.511 17.7575 103.23 17.2962 101.653 17.2962ZM52.6578 17.3991V21.588H54.291V17.3991H52.6578ZM59.2435 19.6182L57.4046 17.3991H55.1574V21.588H56.7906V19.0292L59.0409 21.588H60.8798V17.3991H59.2435V19.6182ZM65.0219 18.733V21.5943H63.3888V18.733H61.447V17.4054H66.9636V18.733H65.0219ZM67.5123 21.5943H72.4149V20.519H69.1454V19.9829H72.4149V19.0135H69.1454V18.4775H72.4149V17.4054H67.5123V21.5943ZM73.2844 21.5911V17.4022H77.3206C78.1839 17.3929 78.9164 18.1191 78.9039 18.9855C78.9039 19.3003 78.8197 19.587 78.6515 19.8427C78.4863 20.095 78.265 20.2883 77.9907 20.4161L78.9039 21.5911H77.1648L76.3763 20.5688H74.9176V21.5911H73.2844ZM83.498 19.6182L81.6591 17.3991H79.412V21.588H81.0452V19.0292L83.2954 21.588H85.1343V17.3991H83.498V19.6182ZM87.0979 21.5943H85.259L87.5062 17.4054H89.4479L91.6951 21.5943H89.8562L89.5258 20.8774H87.4283L87.0979 21.5943ZM94.1885 21.5943V18.733H96.1302V17.4054H90.6136V18.733H92.5554V21.5943H94.1885ZM96.6787 21.588V17.3991H98.3119V21.588H96.6787ZM107.248 17.3991L109.087 19.6182V17.3991H110.723V21.588H108.884L106.634 19.0292V21.588H105V17.3991H107.248ZM110.848 21.5943H112.686L113.017 20.8774H115.114L115.445 21.5943H117.284L115.037 17.4054H113.095L110.848 21.5943ZM117.412 21.588V17.3991H119.045V20.2602H122.314V21.588H117.412ZM56.8895 42.4802C56.1385 42.4802 55.217 42.5909 55.217 43.0838C55.217 43.3557 55.968 43.3926 56.9401 43.4386L56.9508 43.4391C58.6779 43.5266 61.0959 43.6491 61.0914 45.1986C61.0914 46.9678 59.0641 47.3871 56.8895 47.3871C54.7194 47.3825 52.9179 47.1199 52.6875 45.1986H55.217C55.4934 45.6778 56.1338 45.8022 56.8895 45.8022C57.6405 45.8022 58.562 45.6778 58.562 45.1986C58.562 44.9268 57.811 44.8853 56.8388 44.8393L56.828 44.8387C55.1009 44.7512 52.6829 44.6287 52.6875 43.0838C52.6875 41.3146 54.7148 40.8907 56.8895 40.8907C59.0595 40.9045 60.861 41.1487 61.0914 43.0838H58.562C58.2854 42.5954 57.6451 42.4802 56.8895 42.4802ZM66.4498 43.0147V47.2443H64.0355V43.0147H61.1651V41.052H69.3202V43.0147H66.4498ZM67.7167 47.2443H70.4351L70.9235 46.1846H74.0243L74.5126 47.2443H77.231L73.9091 41.052H71.0387L67.7167 47.2443ZM80.7418 41.0428L83.4602 44.3232V41.0428H85.8791V47.2351H83.1607L79.8341 43.4525V47.2351H77.4199V41.0428H80.7418ZM87.2888 41.052V47.2443H92.7993C94.4994 47.2673 95.7619 45.8298 95.748 44.1481C95.7619 42.4573 94.4994 41.029 92.7993 41.052H87.2888ZM97.9872 47.2443H95.2688L98.5908 41.052H101.461L104.783 47.2443H102.065L101.576 46.1846H98.4756L97.9872 47.2443ZM104.972 41.0474V47.2397H107.386V45.7284H109.542L110.708 47.2397H113.279L111.929 45.5027C112.335 45.3138 112.662 45.0282 112.906 44.6549C113.155 44.2772 113.279 43.8532 113.279 43.3879C113.297 42.107 112.215 41.0336 110.938 41.0474H104.972ZM114.03 47.2443V41.052H119.54C121.24 41.029 122.503 42.4573 122.49 44.1481C122.503 45.8298 121.24 47.2673 119.54 47.2443H114.03ZM70.9491 37.8228H66.1437V33.2825L64.1519 37.8228H60.0763L58.1161 33.3058V37.8228H53.2957V25.0194H59.3789L62.1406 31.3958L65.0377 25.0194H70.9491V37.8228ZM86.6249 37.8228H73.1888V25.0194H86.5195V28.9512H78.1449V29.4929H86.2785V33.3493H78.1449V33.906H86.6249V37.8228ZM103.692 37.8228H99.5169L99.4468 37.0626C98.4002 37.657 96.9834 38.0035 95.1588 38.0035C92.5633 38.0035 90.292 37.2273 88.988 35.5398C88.2123 34.5443 87.7706 33.0892 87.7706 31.4436C87.7706 29.9444 88.1541 28.5663 89.0181 27.4531L89.0209 27.4495L89.0238 27.4461C90.3362 25.8178 92.6554 24.8085 95.9572 24.8085C99.7309 24.8085 102.136 25.9682 103.19 28.1096L103.19 28.1112L103.191 28.1129C103.436 28.6203 103.569 29.2906 103.586 29.722L103.591 29.8392H103.692V37.8228ZM110.479 35.6387L109.38 37.8228H103.999L110.833 25.0194H116.294L122.752 37.8228H117.293L116.255 35.6387H110.479ZM52.5955 53.5911H122.703V51.8706H52.5955V53.5911Z" fill="#808080"/>
<path fill-rule="evenodd" clip-rule="evenodd" d="M55.6062 0H147.994C165.666 0 179.994 14.3268 179.994 32C179.994 49.6732 165.666 64 147.994 64H55.6062C37.933 64 23.6062 49.6732 23.6062 32C23.6062 14.3268 37.933 0 55.6062 0ZM55.6062 3.09683C39.6434 3.09683 26.703 16.0372 26.703 32C26.703 47.9628 39.6434 60.9033 55.6062 60.9033H147.994C163.956 60.9033 176.896 47.9628 176.896 32C176.896 16.0372 163.956 3.09683 147.994 3.09683H55.6062Z" fill="#808080"/>
</svg>
