<?xml version="1.0" standalone="no"?>
<!DOCTYPE svg PUBLIC "-//W3C//DTD SVG 20010904//EN"
 "http://www.w3.org/TR/2001/REC-SVG-20010904/DTD/svg10.dtd">
<svg version="1.0" xmlns="http://www.w3.org/2000/svg"
 width="700.000000pt" height="124.000000pt" viewBox="0 0 700.000000 124.000000"
 preserveAspectRatio="xMidYMid meet">

<g transform="translate(0.000000,124.000000) scale(0.100000,-0.100000)"
fill="#ffff" stroke="none">
<path d="M320 1083 c80 -82 165 -169 190 -196 l44 -47 -84 -85 c-47 -47 -78
-85 -71 -85 8 0 55 40 105 90 l91 89 -190 191 c-120 120 -197 190 -210 190
-14 0 21 -42 125 -147z"/>
<path d="M1655 1120 c43 -43 76 -82 74 -87 -2 -5 -193 -196 -424 -423 -231
-227 -422 -417 -424 -422 -2 -5 8 -8 21 -6 17 2 161 137 451 423 l426 420 -74
81 c-47 51 -84 83 -101 87 -22 4 -14 -8 51 -73z"/>
<path d="M1961 928 l-91 -82 0 -258 0 -258 93 1 c50 0 101 4 112 9 13 6 -7 9
-62 9 l-83 1 0 259 c0 241 1 261 18 273 10 7 47 39 82 71 48 43 59 57 43 57
-11 0 -60 -36 -112 -82z"/>
<path d="M2280 991 c-12 -8 -14 -30 -12 -125 3 -115 3 -116 28 -116 l24 0 0
125 c0 128 -3 137 -40 116z"/>
<path d="M2732 985 c-125 -54 -190 -178 -179 -342 6 -103 38 -175 103 -232 59
-52 119 -71 213 -70 l76 2 -68 8 c-87 10 -146 39 -200 99 -56 62 -77 127 -77
236 0 133 45 226 138 285 49 31 47 37 -6 14z"/>
<path d="M4386 991 c-10 -4 -56 -41 -102 -82 l-84 -74 0 -252 0 -253 228 1
c125 0 236 4 247 9 12 5 -69 9 -202 9 l-223 1 0 244 0 244 88 81 c83 77 91 89
48 72z"/>
<path d="M4908 992 c-9 -4 -56 -42 -103 -85 l-85 -79 2 -246 3 -247 77 -3 c42
-2 92 1 110 7 28 8 20 9 -49 10 l-83 1 0 248 0 249 85 76 c79 71 89 87 43 69z"/>
<path d="M3848 913 l-87 -78 90 -3 89 -3 0 -249 0 -250 88 0 c48 0 94 5 102
10 10 7 -12 10 -72 10 l-88 0 0 250 0 250 -86 0 -85 0 62 58 c34 31 69 62 78
69 9 7 11 13 6 13 -6 0 -50 -35 -97 -77z"/>
<path d="M3342 950 c-154 -112 -89 -341 104 -366 63 -9 77 -20 70 -56 -6 -33
6 -36 34 -8 41 41 13 74 -69 83 -32 4 -69 16 -91 31 -45 29 -90 114 -90 165 1
48 32 115 72 151 42 39 23 39 -30 0z"/>
<path d="M2870 860 l-25 -8 28 -1 c79 -3 127 -69 127 -175 0 -76 -11 -110 -48
-149 l-27 -28 30 11 c43 16 62 37 81 86 22 58 16 163 -12 201 -43 57 -101 81
-154 63z"/>
<path d="M3500 840 c18 -11 154 -11 190 0 16 5 -17 8 -90 9 -78 0 -110 -2
-100 -9z"/>
<path d="M4140 840 c0 -5 4 -10 9 -10 6 0 13 5 16 10 3 6 -1 10 -9 10 -9 0
-16 -4 -16 -10z"/>
<path d="M4420 840 c0 -13 240 -13 260 0 10 7 -30 10 -122 10 -86 0 -138 -4
-138 -10z"/>
<path d="M4945 840 c-4 -6 9 -10 32 -10 50 0 81 -22 88 -64 7 -35 -14 -90 -37
-99 -7 -3 -3 -6 10 -6 37 -1 82 50 82 94 0 49 -13 71 -51 84 -40 14 -116 14
-124 1z"/>
<path d="M4941 638 c1 -16 46 -66 156 -169 130 -122 159 -145 179 -141 14 2
24 7 22 11 -7 16 -330 316 -343 319 -10 2 -15 -4 -14 -20z"/>
<path d="M812 573 c47 -47 71 -64 78 -57 13 13 -100 124 -127 124 -12 0 2 -20
49 -67z"/>
<path d="M2095 590 c-3 -5 29 -10 82 -12 l88 -3 2 -120 1 -120 84 -3 c46 -1
95 2 109 7 19 8 5 10 -58 10 l-83 1 0 125 0 125 -109 0 c-61 0 -112 -4 -116
-10z"/>
<path d="M4420 590 c0 -12 226 -12 255 0 13 5 -31 9 -117 9 -86 1 -138 -3
-138 -9z"/>
<path d="M3267 499 c-14 -8 -17 -24 -17 -84 l0 -75 153 2 152 2 -127 3 -128 4
0 74 c0 78 -5 89 -33 74z"/>
<path d="M5575 250 c-4 -7 -18 -9 -32 -5 -18 4 -24 2 -21 -7 7 -19 43 -21 58
-3 7 8 10 18 7 21 -3 3 -8 0 -12 -6z"/>
<path d="M2727 204 l15 -45 -41 -50 c-36 -42 -39 -49 -22 -49 11 0 30 14 43
30 27 38 35 38 43 0 5 -21 13 -30 26 -30 23 0 23 -4 3 53 l-16 47 37 45 c32
40 34 45 16 45 -11 0 -28 -11 -37 -25 -9 -14 -20 -25 -24 -25 -4 0 -11 11 -14
25 -4 16 -13 25 -26 25 -18 0 -18 -2 -3 -46z"/>
<path d="M2875 178 c-15 -14 -28 -38 -31 -60 -5 -31 -3 -38 19 -52 46 -30 107
15 107 79 0 57 -48 73 -95 33z m65 -36 c0 -33 -32 -67 -55 -59 -32 13 -6 87
32 87 19 0 23 -5 23 -28z"/>
<path d="M3032 193 c-19 -7 -42 -58 -42 -92 0 -37 27 -55 62 -42 35 13 53 37
34 44 -9 4 -20 -1 -24 -10 -13 -23 -42 -9 -42 21 0 13 9 34 20 47 18 22 21 23
33 7 9 -11 18 -14 27 -8 11 7 11 11 1 24 -13 16 -43 20 -69 9z"/>
<path d="M3137 193 c-13 -12 -7 -23 13 -23 11 0 20 -1 20 -2 0 -2 -7 -27 -14
-56 -13 -48 -13 -53 2 -50 10 2 20 21 27 53 8 40 14 51 33 53 12 2 22 10 22
18 0 10 -13 14 -48 14 -27 0 -52 -3 -55 -7z"/>
<path d="M3269 198 c0 -2 -8 -33 -18 -71 -16 -61 -16 -67 -1 -67 9 0 29 18 46
40 35 48 46 51 33 8 -12 -43 -11 -48 4 -48 9 0 19 22 27 57 7 32 15 64 17 71
11 28 -25 9 -64 -35 l-42 -48 9 35 c13 44 13 60 0 60 -5 0 -10 -1 -11 -2z"/>
<path d="M3399 130 c-12 -54 -13 -70 -3 -70 6 0 17 14 23 30 7 21 17 30 32 30
18 0 21 -5 17 -30 -4 -24 -1 -30 10 -28 14 3 40 84 42 126 0 23 -24 7 -30 -19
-4 -17 -13 -24 -30 -24 -21 0 -25 4 -22 28 2 17 -1 27 -10 27 -8 0 -19 -26
-29 -70z"/>
<path d="M3546 135 c-19 -77 -19 -75 -3 -75 8 0 19 22 26 54 11 48 16 55 38
58 44 5 40 28 -5 28 l-40 0 -16 -65z"/>
<path d="M3739 173 c-23 -65 -32 -84 -44 -91 -17 -10 -29 -62 -14 -62 6 0 13
9 16 20 4 17 14 20 55 20 45 0 49 -2 43 -20 -3 -11 -2 -20 4 -20 16 0 21 14
25 71 2 30 7 66 11 82 7 27 7 27 -39 27 -42 0 -48 -3 -57 -27z m61 -22 c0 -42
-19 -71 -46 -71 -14 0 -24 3 -22 8 2 4 10 24 18 45 15 40 50 53 50 18z"/>
<path d="M3880 148 c-7 -29 -19 -59 -28 -66 -12 -9 -13 -15 -5 -23 17 -17 49
22 57 69 5 37 9 42 32 42 23 0 25 -3 20 -26 -18 -70 -19 -84 -4 -84 10 0 19
22 30 70 l15 70 -53 0 -52 0 -12 -52z"/>
<path d="M4035 183 c-12 -11 -15 -25 -11 -46 5 -23 1 -36 -16 -54 -19 -20 -19
-23 -4 -23 9 0 29 13 43 30 32 39 46 39 38 0 -5 -22 -3 -30 8 -30 9 0 18 21
27 58 7 31 15 63 17 70 8 19 -82 16 -102 -5z m63 -25 c-3 -25 -17 -32 -37 -19
-19 12 -6 41 19 41 16 0 21 -5 18 -22z"/>
<path d="M4240 148 c-7 -29 -19 -59 -28 -66 -12 -9 -13 -15 -5 -23 17 -17 50
22 58 70 6 35 10 41 32 41 26 0 26 0 6 -87 -4 -16 -1 -23 9 -23 10 0 19 20 28
57 7 32 15 64 17 71 4 9 -10 12 -50 12 l-55 0 -12 -52z"/>
<path d="M4387 125 c4 -53 2 -79 -7 -90 -7 -8 -16 -12 -21 -9 -5 3 -9 -2 -9
-10 0 -19 33 -21 48 -3 11 13 102 177 102 183 0 2 -6 4 -13 4 -8 0 -24 -22
-37 -50 -13 -27 -27 -50 -32 -50 -4 0 -8 23 -8 50 0 38 -4 50 -15 50 -12 0
-14 -12 -8 -75z"/>
<path d="M4525 188 c-2 -7 -5 -20 -8 -28 -7 -25 12 -50 39 -50 23 0 25 -3 20
-25 -5 -18 -2 -25 9 -25 8 0 17 12 21 28 3 15 10 43 15 62 12 46 11 50 -5 50
-7 0 -16 -14 -20 -30 -6 -33 -33 -51 -45 -31 -5 7 -6 23 -3 37 4 25 -15 35
-23 12z"/>
<path d="M4661 162 c-6 -21 -14 -52 -17 -70 l-6 -32 81 0 c80 0 81 0 87 28 3
15 10 43 15 62 12 46 11 50 -5 50 -8 0 -18 -22 -26 -60 -10 -49 -16 -60 -33
-60 -16 0 -19 5 -13 30 3 17 9 44 13 61 5 24 3 31 -8 27 -7 -2 -20 -30 -27
-61 -11 -45 -18 -57 -33 -57 -20 0 -20 3 1 88 6 24 5 32 -5 32 -8 0 -19 -17
-24 -38z"/>
<path d="M4864 173 c-3 -16 -10 -44 -15 -63 -12 -46 -11 -50 5 -50 8 0 27 18
43 40 30 43 48 52 39 20 -3 -11 -9 -29 -12 -40 -4 -13 -1 -20 9 -20 10 0 19
18 27 53 6 28 14 60 17 70 8 32 -25 18 -54 -23 -15 -22 -31 -40 -36 -40 -4 0
-4 18 -1 40 8 46 -12 57 -22 13z"/>
<path d="M5010 190 c0 -5 5 -20 11 -34 10 -21 7 -29 -16 -60 -20 -26 -23 -36
-12 -36 8 0 20 7 27 15 16 19 30 19 30 0 0 -8 9 -15 20 -15 23 0 23 -2 9 38
-9 28 -7 35 16 67 20 25 23 35 13 35 -8 0 -23 -9 -34 -21 l-18 -20 -8 20 c-7
21 -38 30 -38 11z"/>
<path d="M5223 178 c-30 -32 -39 -90 -18 -111 22 -22 37 -21 69 4 20 15 24 25
17 32 -8 8 -15 6 -25 -8 -8 -12 -19 -16 -31 -11 -14 5 -16 13 -11 39 8 42 31
60 57 44 21 -13 34 -5 26 18 -9 23 -60 19 -84 -7z"/>
<path d="M5355 180 c-14 -16 -15 -20 -4 -20 8 0 20 5 27 12 9 9 15 9 23 1 15
-15 5 -29 -28 -38 -38 -9 -53 -23 -53 -50 0 -26 24 -39 47 -26 9 4 24 6 34 4
14 -4 19 5 29 52 6 31 9 63 6 71 -8 21 -60 17 -81 -6z m41 -85 c-7 -20 -46
-19 -46 0 0 9 10 19 23 24 24 9 33 0 23 -24z"/>
<path d="M5485 188 c-2 -7 -10 -39 -18 -70 -13 -54 -13 -58 3 -58 10 0 30 18
45 40 34 48 47 51 34 8 -12 -43 -11 -48 4 -48 7 0 19 29 28 70 19 86 9 90 -51
23 -23 -27 -39 -39 -35 -28 15 46 17 75 6 75 -6 0 -13 -6 -16 -12z"/>
<path d="M5620 185 c0 -8 7 -15 16 -15 17 0 17 -12 -2 -84 -4 -19 -2 -26 8
-26 10 0 19 19 27 54 10 43 17 55 33 58 12 2 23 9 26 16 3 8 -12 12 -52 12
-43 0 -56 -3 -56 -15z"/>
<path d="M5755 175 c-32 -31 -35 -99 -6 -115 41 -22 104 30 104 85 0 56 -56
73 -98 30z m69 -21 c8 -20 -20 -74 -38 -74 -34 0 -41 42 -13 78 13 17 44 15
51 -4z"/>
<path d="M5894 173 c-3 -16 -10 -44 -15 -63 -13 -51 -13 -50 40 -50 56 0 76
17 67 55 -4 14 -2 25 3 25 14 0 20 37 8 49 -6 6 -30 11 -54 11 -38 0 -43 -3
-49 -27z m79 1 c12 -12 -6 -34 -29 -34 -17 0 -24 6 -24 20 0 14 7 20 23 20 13
0 26 -3 30 -6z m-13 -74 c0 -16 -7 -20 -30 -20 -32 0 -33 1 -24 24 9 24 54 21
54 -4z"/>
</g>
</svg>
