<svg width="204" height="64" viewBox="0 0 204 64" fill="none" xmlns="http://www.w3.org/2000/svg">
<path d="M88.0784 21.9465C88.0784 21.776 88.0784 19.2959 88.0784 19.2959H86.6047C86.6047 19.2959 86.6047 21.7375 86.6047 21.8146C86.6047 22.2655 86.1868 22.5679 85.4829 22.5679C84.746 22.5679 84.3446 22.2764 84.3446 21.809C84.3446 21.732 84.3446 19.2959 84.3446 19.2959H82.8542C82.8542 19.2959 82.8542 21.611 82.8542 21.809C82.8542 23.1178 83.9266 23.6732 85.4224 23.6732C87.0226 23.6732 88.0784 23.1123 88.0784 21.9465Z" fill="#808080"/>
<path d="M93.0415 23.6127V22.4634H90.4129V19.2959H88.9226V23.6127H93.0415Z" fill="#808080"/>
<path d="M97.4708 20.3793V19.2959H92.3181V20.3793H94.1383V23.6127H95.645V20.3793H97.4708Z" fill="#808080"/>
<path d="M99.4517 23.6127V19.2959H97.9395V23.6127H99.4517Z" fill="#808080"/>
<path d="M106.39 23.6127V19.2959H104.526L103.349 21.8861L102.227 19.2959H100.302V23.6127H101.705V21.2812L102.716 23.6127H103.97L104.993 21.2812V23.6127H106.39Z" fill="#808080"/>
<path d="M108.726 22.8153H111.057L111.437 23.6127H113.026L110.848 19.2959H109.072L106.768 23.6127H108.324L108.726 22.8153ZM110.59 21.8475H109.21L109.754 20.8081L109.919 20.4123L110.073 20.8027L110.59 21.8475Z" fill="#808080"/>
<path d="M117.7 20.3793V19.2959H112.548V20.3793H114.368V23.6127H115.875V20.3793H117.7Z" fill="#808080"/>
<path d="M122.711 23.6127V22.5404H119.616V21.9795H122.584V20.9292H119.616V20.3737H122.673V19.2959H118.164V23.6127H122.711Z" fill="#808080"/>
<path d="M94.0926 25.9076H92.6683C92.6683 25.9076 91.7389 28.6241 91.7389 28.6901C91.7389 28.6241 90.87 25.9076 90.87 25.9076H89.3248C89.3248 25.9076 88.4614 28.6241 88.4614 28.6901C88.4614 28.6241 87.5265 25.9076 87.5265 25.9076H85.9263L87.5431 30.2244H89.1543C89.1543 30.2244 90.0232 27.6453 90.0287 27.5739C90.0342 27.6453 90.8975 30.2244 90.8975 30.2244H92.5143L94.0926 25.9076Z" fill="#808080"/>
<path d="M96.0415 30.2244V25.9076H94.5293V30.2244H96.0415Z" fill="#808080"/>
<path d="M101.924 30.2244V25.9076H100.516V28.2557L98.4429 25.9076H96.8921V30.2244H98.3109V27.8213L100.45 30.2244H101.924Z" fill="#808080"/>
<path d="M107.815 30.2244V25.9076H106.407V28.2557L104.334 25.9076H102.783V30.2244H104.202V27.8213L106.341 30.2244H107.815Z" fill="#808080"/>
<path d="M113.223 30.2244V29.1521H110.127V28.5912H113.096V27.5409H110.127V26.9854H113.184V25.9076H108.675V30.2244H113.223Z" fill="#808080"/>
<path d="M119.035 27.2219C119.035 26.8315 118.942 26.551 118.744 26.3475C118.485 26.0726 118.04 25.9076 117.358 25.9076H113.921V30.2244H115.389V28.7012H116.726L117.798 30.2244H119.437L118.134 28.4646C118.425 28.4207 118.662 28.2447 118.815 28.0358C118.953 27.8433 119.035 27.5573 119.035 27.2219ZM117.606 27.3593C117.606 27.4309 117.595 27.5188 117.556 27.5848C117.501 27.6948 117.358 27.7388 117.122 27.7388H115.395V26.9524H117.094C117.325 26.9524 117.48 26.9909 117.556 27.1339C117.595 27.1889 117.606 27.2769 117.606 27.3593Z" fill="#808080"/>
<path d="M88.6983 34.4714C88.6983 34.4008 88.6983 32.3619 88.6983 32.3619H88.1835C88.1835 32.3619 88.1835 34.3924 88.1835 34.4381C88.1835 34.9281 87.7225 35.2063 87.0581 35.2063C86.2734 35.2063 85.8872 34.9074 85.8872 34.434C85.8872 34.3883 85.8872 32.3619 85.8872 32.3619H85.3682C85.3682 32.3619 85.3682 34.3385 85.3682 34.4173C85.3682 35.2811 86.0408 35.663 87.0374 35.663C88.0672 35.663 88.6983 35.2561 88.6983 34.4714Z" fill="#808080"/>
<path d="M92.3926 35.6215V35.144H90.1462V32.3619H89.6272V35.6215H92.3926Z" fill="#808080"/>
<path d="M95.3421 32.8353V32.3619H91.8789V32.8353H93.3489V35.6215H93.8721V32.8353H95.3421Z" fill="#808080"/>
<path d="M99.0328 33.2837C99.0328 33.0512 98.9829 32.8809 98.8958 32.7439C98.7421 32.5155 98.4472 32.3619 97.9573 32.3619H95.8479V35.6215H96.3586V34.2471H97.8451L98.7545 35.6215H99.3525L98.3684 34.1599C98.6175 34.1309 98.8127 33.9896 98.9165 33.807C98.9913 33.6824 99.0328 33.4997 99.0328 33.2837ZM98.5178 33.3252C98.5178 33.4166 98.4971 33.5288 98.4598 33.6035C98.3933 33.7239 98.2396 33.7862 97.9905 33.7903H96.3628C96.3628 33.782 96.3628 32.827 96.3628 32.827H97.895C98.2064 32.827 98.3725 32.9017 98.4598 33.0429C98.4971 33.1093 98.5178 33.2214 98.5178 33.3252Z" fill="#808080"/>
<path d="M100.51 34.816H102.541L102.956 35.6215H103.512L101.859 32.3619H101.249L99.5425 35.6215H100.086L100.51 34.816ZM102.325 34.355H100.734L101.394 33.1052L101.54 32.8021L101.685 33.1052L102.325 34.355Z" fill="#808080"/>
<path d="M108.779 35.3101C108.907 35.1606 108.965 34.9489 108.965 34.7205C108.965 34.5046 108.903 34.2886 108.774 34.1557C108.646 34.0312 108.438 33.9274 108.21 33.9066C108.342 33.8858 108.446 33.8028 108.517 33.7156C108.629 33.5868 108.695 33.3792 108.695 33.1716C108.695 32.9515 108.629 32.7522 108.488 32.6152C108.334 32.4616 108.073 32.3619 107.707 32.3619H105.515V35.6215H107.869C108.309 35.6215 108.617 35.5095 108.779 35.3101ZM108.16 33.2754C108.16 33.4207 108.114 33.5495 108.035 33.6242C107.956 33.7114 107.823 33.7488 107.682 33.7488H106.021V32.8104H107.587C107.778 32.8104 107.923 32.8477 108.023 32.9391C108.11 33.0221 108.16 33.1426 108.16 33.2754ZM108.326 34.9945C108.222 35.1108 108.044 35.169 107.782 35.169H106.021V34.2015H107.794C108.035 34.2015 108.201 34.2512 108.301 34.3468C108.392 34.434 108.43 34.5461 108.43 34.6748C108.43 34.8077 108.401 34.9198 108.326 34.9945Z" fill="#808080"/>
<path d="M112.735 35.6215V35.144H110.202V34.2139H112.635V33.7405H110.202V32.8353H112.706V32.3619H109.696V35.6215H112.735Z" fill="#808080"/>
<path d="M116.792 34.6582C116.792 34.1266 116.439 33.8526 115.571 33.7529C115.426 33.7322 115.11 33.699 114.94 33.6782C114.134 33.5827 113.889 33.4748 113.889 33.1966C113.889 32.9267 114.159 32.773 114.973 32.773C115.604 32.773 115.928 32.8976 116.09 33.1218C116.136 33.1841 116.161 33.2589 116.173 33.3169H116.729C116.713 33.2214 116.675 33.0885 116.617 32.9806C116.394 32.5945 115.933 32.3162 114.973 32.3162C113.827 32.3121 113.354 32.7274 113.354 33.2422C113.354 33.7571 113.723 34.0187 114.682 34.1309C114.848 34.1516 115.143 34.1848 115.289 34.2015C116.032 34.2927 116.265 34.4049 116.265 34.7163C116.265 35.0029 115.999 35.2105 115.147 35.2105C114.45 35.2105 114.076 35.0859 113.927 34.8451C113.881 34.7786 113.852 34.6748 113.848 34.6042H113.3C113.312 34.7537 113.354 34.9156 113.428 35.0444C113.644 35.4389 114.151 35.6673 115.131 35.6673C116.302 35.6673 116.792 35.2893 116.792 34.6582Z" fill="#808080"/>
<path d="M120.516 32.8353V32.3619H117.053V32.8353H118.522V35.6215H119.046V32.8353H120.516Z" fill="#808080"/>
<path d="M83.8981 38.4548C83.8981 38.1226 83.8316 37.8983 83.7195 37.7281C83.5617 37.483 83.2544 37.3544 82.7187 37.3544H80.6592V40.614H81.174V39.5509C81.174 39.5509 82.6274 39.5509 82.698 39.5509C83.2005 39.5468 83.5451 39.4306 83.7278 39.1648C83.8441 39.0029 83.8981 38.7703 83.8981 38.4548ZM83.3748 38.4548C83.3748 38.6208 83.3582 38.7454 83.3043 38.8285C83.2087 38.982 83.0136 39.0776 82.6108 39.0776C82.5734 39.0776 81.174 39.0776 81.174 39.0776V37.8195H82.6274C83.0053 37.8195 83.2005 37.9066 83.3043 38.0768C83.354 38.1515 83.3748 38.2887 83.3748 38.4548Z" fill="#808080"/>
<path d="M87.6568 40.614V40.1365H85.1238V39.2063H87.5571V38.733H85.1238V37.8277H87.6277V37.3544H84.6172V40.614H87.6568Z" fill="#808080"/>
<path d="M91.6175 38.2761C91.6175 38.0436 91.5677 37.8734 91.4805 37.7363C91.3268 37.5079 91.0321 37.3544 90.542 37.3544H88.4326V40.614H88.9433V39.2395H90.43L91.3393 40.614H91.9373L90.9531 39.1523C91.2023 39.1233 91.3975 38.982 91.5013 38.7994C91.576 38.6748 91.6175 38.4921 91.6175 38.2761ZM91.1026 38.3176C91.1026 38.409 91.0818 38.5212 91.0445 38.5959C90.978 38.7163 90.8244 38.7786 90.5753 38.7827H88.9475C88.9475 38.7744 88.9475 37.8195 88.9475 37.8195H90.4797C90.7911 37.8195 90.9572 37.8942 91.0445 38.0353C91.0818 38.1018 91.1026 38.2138 91.1026 38.3176Z" fill="#808080"/>
<path d="M95.4678 37.8277V37.3544H92.5693V40.614H93.0842V39.2271H95.3598V38.7412H93.0842V37.8277H95.4678Z" fill="#808080"/>
<path d="M97.8311 37.2963C97.1376 37.2963 96.6601 37.4665 96.3195 37.8236C96.0331 38.1018 95.9084 38.4881 95.9084 38.9738C95.9084 39.5053 96.0704 39.904 96.3694 40.1739C96.6892 40.4937 97.1791 40.6597 97.8311 40.6597C98.5038 40.6597 99.0269 40.4937 99.3384 40.1572C99.6083 39.8832 99.7495 39.4929 99.7495 38.9697C99.7495 38.4631 99.629 38.0769 99.3425 37.8028C99.0145 37.4624 98.5244 37.2963 97.8311 37.2963ZM97.8311 40.1947C97.3743 40.1947 97.0503 40.095 96.8054 39.8957C96.5563 39.6923 96.4358 39.3807 96.4358 38.9821C96.4358 38.6084 96.5396 38.297 96.739 38.1101C96.9674 37.8942 97.3161 37.7655 97.8269 37.7655C98.3542 37.7655 98.6823 37.8901 98.9272 38.106C99.1349 38.2887 99.2262 38.6125 99.2262 38.978C99.2262 39.3475 99.1308 39.6632 98.919 39.8541C98.674 40.0825 98.3294 40.1947 97.8311 40.1947Z" fill="#808080"/>
<path d="M103.646 38.2761C103.646 38.0436 103.596 37.8734 103.509 37.7363C103.355 37.5079 103.06 37.3544 102.57 37.3544H100.461V40.614H100.971V39.2395H102.458L103.367 40.614H103.965L102.981 39.1523C103.23 39.1233 103.425 38.982 103.529 38.7994C103.604 38.6748 103.646 38.4921 103.646 38.2761ZM103.131 38.3176C103.131 38.409 103.11 38.5212 103.073 38.5959C103.006 38.7163 102.852 38.7786 102.603 38.7827H100.976C100.976 38.7744 100.976 37.8195 100.976 37.8195H102.508C102.819 37.8195 102.985 37.8942 103.073 38.0353C103.11 38.1018 103.131 38.2138 103.131 38.3176Z" fill="#808080"/>
<path d="M108.612 40.614V37.3544H107.939L106.598 40.0368L105.282 37.3544H104.597V40.614H105.091V38.1059L106.32 40.614H106.86L108.118 38.1059V40.614H108.612Z" fill="#808080"/>
<path d="M110.07 39.8084H112.1L112.516 40.614H113.072L111.419 37.3544H110.809L109.102 40.614H109.646L110.07 39.8084ZM111.884 39.3475H110.294L110.954 38.0976L111.1 37.7945L111.245 38.0976L111.884 39.3475Z" fill="#808080"/>
<path d="M116.813 40.614V37.3544H116.319V39.8873L114.16 37.3544H113.574V40.614H114.077V38.0644L116.253 40.614H116.813Z" fill="#808080"/>
<path d="M121.293 39.3974H120.752C120.736 39.5468 120.677 39.6964 120.573 39.8085C120.35 40.0701 119.993 40.1822 119.445 40.1822C118.984 40.1822 118.49 40.0534 118.253 39.7171C118.128 39.5594 118.049 39.3268 118.049 38.978C118.049 38.6666 118.104 38.434 118.223 38.2762C118.423 37.9565 118.842 37.7904 119.433 37.7904C120.005 37.7904 120.367 37.9481 120.558 38.1683C120.665 38.2845 120.728 38.4216 120.748 38.5835H121.288C121.271 38.4008 121.213 38.1848 121.089 38.0022C120.823 37.6077 120.333 37.2963 119.436 37.2963C118.581 37.2963 118.07 37.5703 117.787 37.9814C117.605 38.218 117.513 38.5502 117.513 38.9738C117.513 39.4472 117.626 39.7961 117.821 40.041C118.104 40.4272 118.647 40.6597 119.469 40.6597C120.313 40.6597 120.815 40.4064 121.064 40.0037C121.205 39.8085 121.276 39.5759 121.293 39.3974Z" fill="#808080"/>
<path d="M125.009 40.614V40.1365H122.475V39.2063H124.909V38.733H122.475V37.8277H124.98V37.3544H121.969V40.614H125.009Z" fill="#808080"/>
<path d="M87.0332 43.8521L87.6542 45.7634H89.6639L88.0381 46.9447L88.6591 48.8559L87.0332 47.6747L85.4074 48.8559L86.0285 46.9447L84.4026 45.7634H86.4122L87.0332 43.8521Z" fill="#808080"/>
<path d="M94.2027 43.8523L94.8363 45.7635H96.887L95.228 46.9448L95.8616 48.8561L94.2027 47.6748L92.5437 48.8561L93.1773 46.9448L91.5183 45.7635H93.569L94.2027 43.8523Z" fill="#808080"/>
<path d="M101.315 43.8523L101.949 45.7635H104L102.341 46.9448L102.975 48.8561L101.315 47.6748L99.6565 48.8561L100.29 46.9448L98.6311 45.7635H100.682L101.315 43.8523Z" fill="#808080"/>
<path d="M108.428 43.8523L109.062 45.7635H111.112L109.453 46.9448L110.087 48.8561L108.428 47.6748L106.769 48.8561L107.403 46.9448L105.744 45.7635H107.794L108.428 43.8523Z" fill="#808080"/>
<path d="M115.597 43.8523L116.218 45.7635H118.228L116.602 46.9448L117.222 48.8561L115.597 47.6748L113.971 48.8561L114.592 46.9448L112.966 45.7635H114.976L115.597 43.8523Z" fill="#808080"/>
<path d="M90.5165 11.6061L90.9861 13.0512H92.5056L91.2764 13.9444L91.7459 15.3894L90.5165 14.4963L89.2873 15.3894L89.7568 13.9444L88.5276 13.0512H90.0471L90.5165 11.6061Z" fill="#808080"/>
<path d="M95.9376 11.604L96.4168 13.0491H97.9672L96.7129 13.9423L97.1919 15.3873L95.9376 14.4942L94.6832 15.3873L95.1624 13.9423L93.908 13.0491H95.4585L95.9376 11.604Z" fill="#808080"/>
<path d="M101.315 11.604L101.794 13.0491H103.345L102.09 13.9423L102.569 15.3873L101.315 14.4942L100.061 15.3873L100.54 13.9423L99.2854 13.0491H100.836L101.315 11.604Z" fill="#808080"/>
<path d="M106.693 11.604L107.173 13.0491H108.723L107.469 13.9423L107.948 15.3873L106.693 14.4942L105.439 15.3873L105.918 13.9423L104.664 13.0491H106.214L106.693 11.604Z" fill="#808080"/>
<path d="M112.113 11.604L112.583 13.0491H114.102L112.873 13.9423L113.343 15.3873L112.113 14.4942L110.884 15.3873L111.354 13.9423L110.124 13.0491H111.644L112.113 11.604Z" fill="#808080"/>
<path fill-rule="evenodd" clip-rule="evenodd" d="M68.8739 37.6164C66.8017 24.6517 72.8494 11.8247 84.9564 6.31641L85.0681 6.56203C73.0829 12.0148 67.0853 24.7163 69.1403 37.5737C71.414 51.7983 82.8893 60.3293 96.9419 60.7406L96.9339 61.0104C82.7719 60.5959 71.1709 51.9877 68.8739 37.6164Z" fill="#808080"/>
<path d="M82.3313 9.62516C80.0939 9.67616 77.4753 10.9379 75.9302 12.7704C77.1693 13.9211 79.1629 13.4957 80.5977 13.2604C82.6453 12.9246 84.8229 12.274 86.7551 11.3532C85.9606 9.66196 83.8205 9.59127 82.3313 9.62516Z" fill="#808080"/>
<path d="M80.5714 6.86501C79.2462 8.92936 77.6669 10.9811 75.9481 12.7878C74.5102 11.438 75.3781 9.19165 75.965 7.79473C77.0282 5.26351 79.5772 3.08071 82.2421 1.96387C82.9735 3.62789 81.3848 5.59795 80.5714 6.86501Z" fill="#808080"/>
<path d="M75.8565 15.414C73.7615 16.1587 71.9613 18.2551 71.0574 20.3597C72.5638 21.0601 74.2764 20.0486 75.5292 19.3752C77.2495 18.4504 79.0046 17.1743 80.3855 15.6977C79.1378 14.3812 77.2433 14.9212 75.8565 15.414Z" fill="#808080"/>
<path d="M73.3174 13.3512C72.8588 15.7057 72.0899 18.1461 71.0801 20.3704C69.3175 19.5391 69.3846 17.1582 69.4601 15.6431C69.589 13.0569 71.0358 10.1078 73.0502 8.23364C74.2833 9.55574 73.6095 11.8514 73.3174 13.3512Z" fill="#808080"/>
<path d="M71.8255 22.8878C70.0798 24.265 69.0217 26.8171 68.7766 29.0961C70.428 29.2857 71.748 27.7828 72.7301 26.7518C74.0673 25.3479 75.3332 23.5871 76.1371 21.745C74.5628 20.8862 72.9626 21.9908 71.8255 22.8878Z" fill="#808080"/>
<path d="M68.8012 21.7252C69.1125 24.1028 69.1132 26.6751 68.8018 29.0991C66.8813 28.8632 66.2443 26.5573 65.868 25.1107C65.2184 22.6137 65.6539 19.3884 66.9194 16.9609C68.5009 17.8364 68.6023 20.2054 68.8012 21.7252Z" fill="#808080"/>
<path d="M70.4554 31.0458C69.074 33.0693 68.5882 36.2404 69.2094 38.7893C71.0349 38.3571 71.9398 36.2904 72.6664 34.8309C73.632 32.891 74.4482 30.6279 74.7403 28.4075C72.7604 27.9955 71.3653 29.7127 70.4554 31.0458Z" fill="#808080"/>
<path d="M66.8294 30.8411C67.9056 33.3328 68.7455 36.0753 69.237 38.7831C67.1435 39.2328 65.6367 37.0345 64.7614 35.5768C63.2029 32.9821 62.7489 29.385 63.3198 26.2809C65.236 26.6651 66.1736 29.3233 66.8294 30.8411Z" fill="#808080"/>
<path d="M71.4217 39.8497C70.68 42.3044 71.1955 45.6416 72.6972 47.9493C74.3475 46.8748 74.5759 44.5101 74.8098 42.8145C75.1182 40.577 75.2633 38.0984 74.8802 35.7782C72.7695 36.0477 71.9171 38.2099 71.4217 39.8497Z" fill="#808080"/>
<path d="M67.7539 40.9006C69.6057 43.0254 71.3139 45.4482 72.7227 47.9334C70.812 49.1262 68.5699 47.4966 67.2102 46.3434C64.7978 44.2978 63.2315 40.8208 62.8601 37.5429C64.8676 37.2731 66.6368 39.6186 67.7539 40.9006Z" fill="#808080"/>
<path d="M75.3136 48.2046C75.4728 51.0619 77.333 54.0601 79.8098 55.7666C81.006 54.129 80.2562 51.6198 79.8482 49.8683C79.2989 47.5101 78.5386 45.0545 77.4088 42.8756C75.4386 43.9167 75.2088 46.3229 75.3136 48.2046Z" fill="#808080"/>
<path d="M71.9826 50.6182C74.6661 52.1093 77.3418 53.8688 79.8296 55.7411C78.3398 57.703 75.3618 56.9207 73.5158 56.2901C70.2627 55.1788 67.3625 52.2494 65.8477 48.9948C67.7683 48.0055 70.3975 49.7373 71.9826 50.6182Z" fill="#808080"/>
<path d="M82.9563 55.185C84.5669 58.1243 88.2371 60.0418 91.6933 60.5034C92.0653 58.3666 89.7532 56.2509 88.4933 54.8668C86.6995 52.8963 84.8304 50.8514 82.7347 49.1477C81.1646 50.9707 81.9947 53.4302 82.9563 55.185Z" fill="#808080"/>
<path d="M80.6564 58.9102C84.3174 59.2908 88.0405 59.8388 91.6994 60.4706C91.3501 63.1667 87.0717 63.6018 85.1294 63.761C81.1469 64.0874 76.7166 62.4865 73.6318 59.7916C75.164 57.9887 78.7062 58.7075 80.6564 58.9102Z" fill="#808080"/>
<path d="M87.7077 4.05349C85.2498 4.75469 82.3727 6.08495 80.9514 8.54056C83.5313 8.25936 86.0669 7.34139 88.5465 6.64198C91.324 5.85845 94.2486 5.27246 96.9378 4.19096C93.9927 3.0127 90.521 3.25084 87.7077 4.05349Z" fill="#808080"/>
<path fill-rule="evenodd" clip-rule="evenodd" d="M135.26 37.5737C137.315 24.7163 131.317 12.0151 119.332 6.56203L119.444 6.31641C131.551 11.8248 137.599 24.6517 135.526 37.6164C133.23 51.9877 121.628 60.5959 107.466 61.0104L107.458 60.7406C121.511 60.3293 132.986 51.7983 135.26 37.5737Z" fill="#808080"/>
<path d="M122.069 9.62516C124.306 9.67616 126.925 10.9379 128.47 12.7704C127.231 13.9211 125.237 13.4957 123.803 13.2604C121.755 12.9246 119.577 12.274 117.645 11.3532C118.439 9.66196 120.579 9.59127 122.069 9.62516Z" fill="#808080"/>
<path d="M123.828 6.86501C125.154 8.92936 126.733 10.9811 128.451 12.7878C129.89 11.438 129.022 9.19165 128.434 7.79473C127.372 5.26351 124.823 3.08071 122.157 1.96387C121.426 3.62789 123.015 5.59795 123.828 6.86501Z" fill="#808080"/>
<path d="M128.544 15.414C130.639 16.1587 132.439 18.2551 133.342 20.3597C131.836 21.0601 130.123 20.0486 128.871 19.3752C127.15 18.4504 125.395 17.1743 124.015 15.6977C125.262 14.3812 127.157 14.9212 128.544 15.414Z" fill="#808080"/>
<path d="M131.083 13.3512C131.542 15.7057 132.31 18.1461 133.32 20.3704C135.083 19.5391 135.016 17.1582 134.94 15.6431C134.811 13.0569 133.365 10.1078 131.35 8.23364C130.117 9.55574 130.791 11.8514 131.083 13.3512Z" fill="#808080"/>
<path d="M132.574 22.8878C134.32 24.265 135.379 26.8171 135.624 29.0961C133.973 29.2857 132.653 27.7828 131.671 26.7518C130.333 25.3479 129.067 23.5871 128.264 21.745C129.837 20.8862 131.438 21.9908 132.574 22.8878Z" fill="#808080"/>
<path d="M135.6 21.7252C135.288 24.1026 135.288 26.6751 135.599 29.0991C137.519 28.8632 138.157 26.5573 138.533 25.1107C139.183 22.6137 138.746 19.3884 137.481 16.9609C135.9 17.8364 135.798 20.2054 135.6 21.7252Z" fill="#808080"/>
<path d="M133.945 31.0458C135.326 33.0693 135.812 36.2404 135.191 38.7893C133.365 38.3571 132.46 36.2905 131.733 34.8309C130.768 32.891 129.952 30.6279 129.66 28.4075C131.639 27.9955 133.035 29.7127 133.945 31.0458Z" fill="#808080"/>
<path d="M137.571 30.8411C136.495 33.3328 135.655 36.0753 135.164 38.7831C137.257 39.2328 138.763 37.0345 139.639 35.5768C141.197 32.9821 141.651 29.385 141.081 26.2809C139.165 26.6651 138.226 29.3233 137.571 30.8411Z" fill="#808080"/>
<path d="M132.978 39.8497C133.72 42.3044 133.205 45.6416 131.703 47.9493C130.053 46.8748 129.824 44.5101 129.59 42.8145C129.282 40.577 129.137 38.0984 129.52 35.7782C131.63 36.0477 132.482 38.2099 132.978 39.8497Z" fill="#808080"/>
<path d="M136.645 40.9006C134.794 43.0256 133.086 45.4482 131.677 47.9334C133.587 49.1262 135.83 47.4966 137.19 46.3434C139.602 44.2978 141.169 40.8208 141.54 37.5429C139.532 37.2731 137.763 39.6186 136.645 40.9006Z" fill="#808080"/>
<path d="M129.085 48.2046C128.926 51.0619 127.066 54.0601 124.59 55.7666C123.393 54.129 124.144 51.6199 124.551 49.8683C125.1 47.5101 125.861 45.0545 126.99 42.8756C128.961 43.9167 129.19 46.3229 129.085 48.2046Z" fill="#808080"/>
<path d="M132.417 50.6182C129.734 52.1093 127.059 53.8688 124.571 55.7411C126.061 57.703 129.038 56.9207 130.884 56.2901C134.138 55.1788 137.038 52.2494 138.553 48.9948C136.632 48.0055 134.002 49.7373 132.417 50.6182Z" fill="#808080"/>
<path d="M121.444 55.185C119.833 58.1243 116.163 60.0418 112.707 60.5034C112.334 58.3666 114.646 56.2509 115.907 54.8668C117.7 52.8963 119.569 50.8514 121.665 49.1477C123.236 50.9707 122.405 53.4302 121.444 55.185Z" fill="#808080"/>
<path d="M123.743 58.9102C120.082 59.2908 116.36 59.8388 112.7 60.4706C113.05 63.1667 117.329 63.6018 119.27 63.761C123.253 64.0874 127.684 62.4865 130.768 59.7916C129.236 57.9887 125.694 58.7075 123.743 58.9102Z" fill="#808080"/>
<path d="M116.693 4.05349C119.15 4.75469 122.028 6.08495 123.448 8.54056C120.869 8.25936 118.333 7.34139 115.854 6.64198C113.076 5.85845 110.152 5.27246 107.462 4.19096C110.408 3.0127 113.879 3.25084 116.693 4.05349Z" fill="#808080"/>
<path d="M103.799 2.78277L102.538 0L101.3 2.73099L98.4224 0.946718L100.272 4.8328H104.871L106.653 0.946718L103.799 2.78277Z" fill="#808080"/>
<path d="M104.841 5.43665H100.234V6.11637H104.841V5.43665Z" fill="#808080"/>
<path d="M102.867 58.0198L103.609 60.304H106.011L104.068 61.7157L104.81 64L102.867 62.5883L100.924 64L101.666 61.7157L99.7227 60.304H102.124L102.867 58.0198Z" fill="#808080"/>
</svg>
