<svg width="204" height="64" viewBox="0 0 204 64" fill="none" xmlns="http://www.w3.org/2000/svg">
<path d="M42.0381 12.6476C41.1626 10.4226 41.5427 7.86435 42.3491 5.71271C43.1976 3.44863 44.6749 1.19074 46.883 0C46.9926 2.3859 46.2638 4.74314 45.4674 6.86873C44.7512 8.78059 43.8725 10.8174 42.4215 12.3986C42.1985 13.5966 42.0276 14.7914 41.9075 15.9806C42.3884 14.7243 43.1682 13.5791 44.1412 12.6583C45.394 11.4727 47.2574 10.5578 49.0067 11.0988C48.4944 13.0325 47.3265 14.886 45.9434 16.1863C44.8547 17.2098 43.4176 18.5212 41.7249 18.5728C41.6551 20.3229 41.6946 22.057 41.8386 23.7675C42.0774 22.5157 42.589 21.337 43.3283 20.4592C44.3439 19.253 45.8498 17.7793 47.773 18.0259C47.668 19.9829 46.8873 21.9881 45.8002 23.4948C44.9363 24.6921 43.7959 26.2182 42.1771 26.6124C42.4363 28.2932 42.7974 29.9461 43.2554 31.5635C43.2598 30.3251 43.5334 29.1095 44.076 28.1346C44.8408 26.7597 46.032 25.0452 47.9573 24.9111C48.2396 26.8311 47.8572 28.93 47.0857 30.5993C46.4692 31.9336 45.6472 33.6352 44.1489 34.3392C44.7781 36.0794 45.5227 37.7709 46.3763 39.4036C46.0766 37.9964 46.0886 36.5135 46.4433 35.1793C46.9321 33.3399 48.1454 31.4078 50.0934 30.8471C50.782 32.8777 50.6871 35.144 50.287 37.208C49.9578 38.9074 49.311 40.9033 47.861 42.0072C48.809 43.5369 49.8576 45.0051 51.0012 46.402C50.3868 45.032 50.0814 43.5336 50.2453 42.1618C50.4839 40.1634 51.0455 38.0256 53.0867 36.9601C54.2448 38.9582 54.5131 41.1998 54.6115 43.4139C54.691 45.2038 54.4332 47.4115 53.1901 48.8677C54.5575 50.2894 56.0329 51.62 57.6088 52.847C56.5914 51.5419 55.879 50.0103 55.7281 48.4958C55.5151 46.3558 55.6193 44.0001 57.5183 42.4297C59.1424 44.1261 60.1116 46.6243 60.5866 48.7941C61.0066 50.7126 61.4451 52.9833 60.4451 54.8713C62.4506 56.1804 64.5917 57.3338 66.8553 58.3105C65.2625 57.1755 63.9586 55.6182 63.3374 54.0103C62.5234 51.9026 62.0199 49.3912 63.6056 47.2803C65.73 48.6411 67.2915 50.9628 68.5216 53.0803C69.5772 54.8972 70.6698 57.4049 70.1277 59.5688C71.381 59.9941 72.6667 60.3675 73.9831 60.6861L73.9049 61.0093C72.5835 60.6894 71.2928 60.3147 70.0344 59.8882C69.1528 62.4937 66.2646 63.3544 63.9288 63.7344C60.6008 64.2758 56.638 63.2268 53.7968 61.1134C55.2964 58.9942 58.356 58.7792 60.6631 58.617L60.6931 58.6149C63.2205 58.4373 65.9541 58.6746 68.4957 59.335C65.5596 58.2173 62.8122 56.8119 60.2789 55.1598L60.2415 55.2188C58.8533 57.4698 56.0661 57.5576 53.8784 57.4152C50.9097 57.222 47.4823 55.417 45.4987 52.9218C47.3645 51.2847 50.1204 51.7429 52.2558 52.0979L52.2661 52.0995C54.6494 52.4957 57.2537 53.36 59.4398 54.6908C59.2316 54.5268 59.0278 54.3533 58.8298 54.1714C56.7043 52.656 54.7437 50.9609 52.9645 49.1127C52.9438 49.1334 52.9229 49.1539 52.9018 49.1743C51.1718 50.9146 48.6523 50.4589 46.686 49.8925C44.0547 49.1346 41.3258 46.8481 40.0181 44.2231C42.0446 43.0876 44.4674 44.0233 46.3519 44.7634C48.4204 45.5757 50.6088 46.8752 52.2915 48.5317C52.118 48.3129 51.9525 48.0843 51.7961 47.8477C50.232 46.0824 48.8251 44.1922 47.5882 42.1981L47.5262 42.2369C45.5691 43.4999 43.3518 42.5853 41.5944 41.6859C39.2116 40.4665 37.2969 37.7865 36.4695 35.1509C38.5833 34.4739 40.6716 35.8027 42.2951 36.8551C44.0707 38.006 45.8692 39.6475 47.1038 41.53C47.0131 41.3445 46.9286 41.1549 46.8508 40.9617C45.6646 38.8922 44.6569 36.7196 43.8411 34.4659L43.7991 34.4802L43.7956 34.4814C42.0162 35.1579 40.0346 34.1062 38.7427 32.9528C36.9471 31.3499 35.6816 28.8856 35.3849 26.4781C37.2401 26.2377 38.988 27.6731 40.183 28.8973C41.5585 30.3063 42.7931 31.9717 43.5521 33.8214C43.4967 33.6205 43.4492 33.4164 43.4092 33.2102C42.7186 31.0924 42.1953 28.9082 41.8504 26.6753L41.8235 26.6786L41.8144 26.6801C39.9332 26.9941 38.1938 25.5639 37.1547 24.1758C35.6967 22.228 34.9452 19.5322 35.1335 17.0888C37.0075 17.2198 38.4344 19.0026 39.3598 20.4447C40.4308 22.1142 41.3189 24.0036 41.7079 25.9802C41.6961 25.8229 41.689 25.6648 41.6866 25.5061C41.4009 23.2335 41.2991 20.9143 41.3922 18.5664L41.3868 18.5662C39.4742 18.4973 38.0606 16.7214 37.3308 15.1462C36.2865 12.892 36.1184 10.0427 36.8154 7.64138C38.6384 8.15304 39.6547 10.2442 40.2545 11.8538C40.9462 13.7098 41.4289 15.7339 41.4327 17.7464C41.5322 16.058 41.7326 14.3563 42.0381 12.6476Z" fill="#808080"/>
<path d="M79.7093 8.48206V16.5432C79.7093 20.0887 76.4982 21.7945 71.6315 21.7945C67.0825 21.7945 63.8213 20.1055 63.8213 16.1251V8.48206H68.3536V16.1251C68.3536 17.5467 69.5744 18.433 71.8154 18.433C73.9562 18.433 75.2273 17.5132 75.2273 16.1418V8.48206H79.7093Z" fill="#808080"/>
<path d="M94.8036 18.1152V21.6106H82.2771V8.48206H86.8094V18.1152H94.8036Z" fill="#808080"/>
<path d="M108.273 11.7768V8.48206H92.6028V11.7768H98.1386V21.6106H102.721V11.7768H108.273Z" fill="#808080"/>
<path fill-rule="evenodd" clip-rule="evenodd" d="M124.35 9.82011C124.952 10.4388 125.237 11.2918 125.237 12.4791C125.237 13.4994 124.986 14.3691 124.567 14.9543C124.099 15.5899 123.379 16.1251 122.493 16.2589L126.458 21.6106H121.474L118.212 16.9779H114.148V21.6106H109.683V8.48206H120.136C122.209 8.48206 123.564 8.98379 124.35 9.82011ZM120.738 13.5831C120.855 13.3823 120.888 13.1147 120.888 12.8974C120.888 12.6464 120.855 12.3788 120.738 12.2117C120.503 11.7768 120.035 11.6598 119.332 11.6598H114.165V14.0513H119.416C120.136 14.0513 120.571 13.9175 120.738 13.5831Z" fill="#808080"/>
<path fill-rule="evenodd" clip-rule="evenodd" d="M132.491 19.1857H139.582L140.736 21.6106H145.57L138.947 8.48206H133.545L126.538 21.6106H131.27L132.491 19.1857ZM138.16 16.2421H133.963L135.619 13.0813L136.121 11.8771L136.589 13.0645L138.16 16.2421Z" fill="#808080"/>
<path fill-rule="evenodd" clip-rule="evenodd" d="M123.872 24.083C121.066 24.083 119.59 25.4128 119.59 27.3668C119.59 29.5723 121.139 30.6912 123.872 30.6912C126.88 30.6912 128.145 29.3939 128.145 27.3668C128.145 25.3074 126.717 24.083 123.872 24.083ZM123.872 29.0615C122.274 29.0615 121.811 28.4047 121.811 27.3912C121.811 26.3939 122.314 25.7372 123.863 25.7372C125.558 25.7372 125.939 26.475 125.939 27.3912C125.939 28.3642 125.477 29.0615 123.872 29.0615Z" fill="#808080"/>
<path d="M115.432 30.5943V26.824H111.199V28.1943H113.461C113.445 28.2998 113.364 28.5025 113.259 28.624C113.024 28.8998 112.399 29.143 111.588 29.143C110.745 29.143 110.202 28.924 109.91 28.5835C109.715 28.3321 109.602 27.9754 109.602 27.4403C109.602 26.8808 109.715 26.4998 109.934 26.2484C110.251 25.8917 110.786 25.7376 111.572 25.7376C112.278 25.7376 112.764 25.8997 112.991 26.1024C113.137 26.2241 113.251 26.3944 113.275 26.5078H115.375C115.367 26.3051 115.302 25.9808 115.188 25.7457C114.686 24.7241 113.518 24.116 111.532 24.116C109.805 24.116 108.645 24.6429 108.005 25.4376C107.583 25.9808 107.388 26.6619 107.388 27.424C107.388 28.2674 107.615 28.9889 107.988 29.4674C108.621 30.2863 109.748 30.6916 111.102 30.6916C112.294 30.6916 113.113 30.4079 113.632 29.9782L113.688 30.5943H115.432Z" fill="#808080"/>
<path d="M93.3442 26.7429C94.9901 26.9212 95.6955 27.5051 95.6955 28.6159C95.6955 29.9618 94.382 30.6914 91.7955 30.6914C89.3874 30.6914 88.3496 30.0104 87.9522 29.1186C87.863 28.9077 87.8225 28.6483 87.7981 28.4861H90.1333C90.1495 28.5834 90.2063 28.7293 90.2873 28.8266C90.4819 29.0618 91.0251 29.1996 91.9495 29.1996C93.1415 29.1996 93.4252 29.0293 93.4252 28.7132C93.4252 28.3725 93.1334 28.2996 92.0549 28.1861C91.6253 28.1456 90.9441 28.0807 90.6604 28.0564C88.6009 27.8698 87.8388 27.2293 87.8388 26.1348C87.8388 24.9995 89.1847 24.1321 91.6414 24.1321C93.8225 24.1321 94.836 24.7807 95.2577 25.5915C95.3874 25.8348 95.4684 26.1104 95.4928 26.3049H93.1576C93.1495 26.2158 93.1171 26.1266 93.0279 26.0131C92.8495 25.778 92.3954 25.6239 91.5846 25.6239C90.4414 25.6239 90.1414 25.7617 90.1414 26.0536C90.1414 26.378 90.5226 26.451 91.7955 26.5888C92.29 26.6293 93.0766 26.7104 93.3442 26.7429Z" fill="#808080"/>
<path fill-rule="evenodd" clip-rule="evenodd" d="M70.0661 24.773C70.4958 25.1135 70.739 25.6892 70.739 26.5243C70.739 27.2054 70.5688 27.7161 70.2444 28.0729C69.8066 28.5756 69.0849 28.8027 68.1444 28.8108C67.8524 28.8189 65.3552 28.8108 65.3552 28.8108V30.5945H63.1741V24.2297H68.1119C68.9877 24.2297 69.6525 24.4081 70.0661 24.773ZM68.4526 27.0188C68.5173 26.9054 68.5499 26.7594 68.5499 26.5567C68.5499 26.346 68.5092 26.1675 68.4363 26.0702C68.2985 25.8675 68.039 25.7702 67.6174 25.7702H65.3389V27.327H67.6011C68.0551 27.327 68.3228 27.2216 68.4526 27.0188Z" fill="#808080"/>
<path fill-rule="evenodd" clip-rule="evenodd" d="M78.7178 24.8784C79.0098 25.1784 79.1476 25.5919 79.1476 26.1675C79.1476 26.6621 79.0259 27.0837 78.8232 27.3675C78.5962 27.6756 78.2476 27.9351 77.8178 28L79.7394 30.5945H77.3232L75.7421 28.3486H73.7718V30.5945H71.6069V24.2297H76.6746C77.68 24.2297 78.3368 24.473 78.7178 24.8784ZM76.9665 26.7027C77.0232 26.6054 77.0394 26.4756 77.0394 26.3702C77.0394 26.2487 77.0232 26.1189 76.9665 26.0378C76.8529 25.827 76.6259 25.7702 76.2854 25.7702H73.7799V26.9297H76.326C76.6746 26.9297 76.8854 26.8648 76.9665 26.7027Z" fill="#808080"/>
<path d="M87.141 30.5945V29.0135H82.5762V28.1864H86.9545V26.6378H82.5762V25.8189H87.0842V24.2297H80.4355V30.5945H87.141Z" fill="#808080"/>
<path d="M103.586 25.827V24.2297H95.9888V25.827H98.6725V30.5945H100.894V25.827H103.586Z" fill="#808080"/>
<path d="M106.507 24.2297V30.5945H104.277V24.2297H106.507Z" fill="#808080"/>
<path d="M118.709 24.2297V30.5945H116.479V24.2297H118.709Z" fill="#808080"/>
<path d="M136.748 24.2297V28.1378C136.748 29.8567 135.19 30.6838 132.831 30.6838C130.626 30.6838 129.044 29.8649 129.044 27.9351V24.2297H131.242V27.9351C131.242 28.6242 131.834 29.054 132.921 29.054C133.958 29.054 134.574 28.6081 134.574 27.9432V24.2297H136.748Z" fill="#808080"/>
<path d="M145.5 28.6159C145.5 27.5051 144.795 26.9212 143.15 26.7429C142.881 26.7104 142.095 26.6293 141.601 26.5888C140.327 26.451 139.946 26.378 139.946 26.0536C139.946 25.7617 140.246 25.6239 141.39 25.6239C142.2 25.6239 142.655 25.778 142.833 26.0131C142.922 26.1266 142.954 26.2158 142.962 26.3049H145.298C145.273 26.1104 145.192 25.8348 145.062 25.5915C144.641 24.7807 143.628 24.1321 141.446 24.1321C138.989 24.1321 137.643 24.9995 137.643 26.1348C137.643 27.2293 138.406 27.8698 140.465 28.0564L140.597 28.0681L140.818 28.0882L141.86 28.1861C142.939 28.2996 143.229 28.3725 143.229 28.7132C143.229 29.0293 142.947 29.1996 141.755 29.1996C140.83 29.1996 140.287 29.0618 140.092 28.8266C140.012 28.7293 139.954 28.5834 139.939 28.4861H137.603C137.628 28.6483 137.668 28.9077 137.757 29.1186C138.154 30.0104 139.192 30.6914 141.601 30.6914C144.187 30.6914 145.5 29.9618 145.5 28.6159Z" fill="#808080"/>
<path fill-rule="evenodd" clip-rule="evenodd" d="M88.8014 33.0314C86.9781 33.0314 86.019 33.8957 86.019 35.1656C86.019 36.5989 87.0255 37.3261 88.8014 37.3261C90.7565 37.3261 91.5785 36.483 91.5785 35.1656C91.5785 33.8272 90.6511 33.0314 88.8014 33.0314ZM88.8014 36.267C87.7633 36.267 87.4629 35.84 87.4629 35.1814C87.4629 34.5333 87.7897 34.1064 88.7962 34.1064C89.8975 34.1064 90.1452 34.5859 90.1452 35.1814C90.1452 35.8137 89.8448 36.267 88.8014 36.267Z" fill="#808080"/>
<path d="M78.662 35.9771C78.662 35.2551 78.2035 34.8756 77.1338 34.7597C76.9599 34.7387 76.4488 34.686 76.1273 34.6597C75.2999 34.57 75.0523 34.5226 75.0523 34.3119C75.0523 34.1221 75.2473 34.0326 75.9903 34.0326C76.5173 34.0326 76.8123 34.1326 76.9283 34.2854C76.9862 34.3593 77.0073 34.4172 77.0126 34.4752H78.5303C78.5144 34.3487 78.4618 34.1695 78.3774 34.0115C78.1034 33.4845 77.4447 33.063 76.0271 33.063C74.4305 33.063 73.5558 33.6267 73.5558 34.3645C73.5558 35.076 74.051 35.4923 75.3895 35.6134C75.574 35.6293 76.0166 35.6714 76.2959 35.6978C76.9968 35.7715 77.1864 35.819 77.1864 36.0403C77.1864 36.2458 77.002 36.3565 76.2275 36.3565C75.6266 36.3565 75.2736 36.2669 75.1471 36.1141C75.0944 36.0508 75.0575 35.956 75.047 35.8927H73.5293C73.5451 35.9982 73.5715 36.1667 73.6295 36.3038C73.8877 36.8834 74.5623 37.326 76.1273 37.326C77.8083 37.326 78.662 36.8518 78.662 35.9771Z" fill="#808080"/>
<path fill-rule="evenodd" clip-rule="evenodd" d="M68.1405 36.0931C68.1405 36.3777 68.0614 36.657 67.9034 36.8414C67.661 37.1365 67.2077 37.2629 66.6229 37.2629H62.95V33.1262H66.5227C67.0919 33.1262 67.4555 33.2633 67.6557 33.4688C67.8349 33.6479 67.914 33.8851 67.914 34.1538C67.914 34.4227 67.8507 34.644 67.7138 34.8073C67.603 34.9444 67.4134 35.0497 67.2131 35.0761C67.5082 35.1129 67.7875 35.2605 67.9455 35.466C68.0773 35.6188 68.1405 35.8507 68.1405 36.0931ZM66.3647 34.644C66.4173 34.586 66.449 34.5016 66.449 34.4016C66.449 34.3014 66.4173 34.2171 66.3488 34.1592C66.2751 34.0906 66.138 34.0642 65.9378 34.0642H64.3306V34.7388H65.9747C66.1538 34.7388 66.291 34.7125 66.3647 34.644ZM66.1275 36.325C66.3752 36.325 66.5227 36.2933 66.6071 36.2144C66.6597 36.1616 66.6808 36.0826 66.6808 35.9824C66.6808 35.877 66.6545 35.7981 66.5912 35.7348C66.5123 35.6663 66.3752 35.6346 66.1434 35.6346H64.3306V36.325H66.1275Z" fill="#808080"/>
<path d="M73.1026 36.2354V37.2629H68.7446V33.1262H73.0657V34.1592H70.1357V34.6914H72.9813V35.6979H70.1357V36.2354H73.1026Z" fill="#808080"/>
<path d="M83.7899 33.1262V34.1644H82.0403V37.2629H80.5966V34.1644H78.8523V33.1262H83.7899Z" fill="#808080"/>
<path d="M96.4006 33.1262V34.1749H93.5919V34.7599H96.2688V35.7981H93.5919V37.2629H92.1743V33.1262H96.4006Z" fill="#808080"/>
<path d="M103.541 34.1644V33.1262H98.6035V34.1644H100.348V37.2629H101.792V34.1644H103.541Z" fill="#808080"/>
<path d="M108.928 33.1262V37.2629H107.516V35.7611H105.397V37.2629H103.985V33.1262H105.397V34.6334H107.516V33.1262H108.928Z" fill="#808080"/>
<path d="M114.122 37.2629V36.2354H111.155V35.6979H114.001V34.6914H111.155V34.1592H114.085V33.1262H109.764V37.2629H114.122Z" fill="#808080"/>
<path d="M122.859 33.1262H124.223L122.711 37.2629H121.162C121.162 37.2629 120.334 34.7916 120.328 34.7229C120.324 34.7916 119.491 37.2629 119.491 37.2629H117.947L116.398 33.1262H117.931C117.931 33.1262 118.828 35.7294 118.828 35.7927C118.828 35.7294 119.655 33.1262 119.655 33.1262H121.136C121.136 33.1262 121.968 35.7294 121.968 35.7927C121.968 35.7294 122.859 33.1262 122.859 33.1262Z" fill="#808080"/>
<path fill-rule="evenodd" clip-rule="evenodd" d="M126.929 33.0314C125.106 33.0314 124.147 33.8957 124.147 35.1656C124.147 36.5989 125.153 37.3261 126.929 37.3261C128.885 37.3261 129.706 36.483 129.706 35.1656C129.706 33.8272 128.779 33.0314 126.929 33.0314ZM126.929 36.267C125.892 36.267 125.591 35.84 125.591 35.1814C125.591 34.5333 125.918 34.1064 126.924 34.1064C128.026 34.1064 128.273 34.5859 128.273 35.1814C128.273 35.8137 127.973 36.267 126.929 36.267Z" fill="#808080"/>
<path fill-rule="evenodd" clip-rule="evenodd" d="M134.924 33.5479C135.113 33.7429 135.203 34.0116 135.203 34.3857C135.203 34.7072 135.124 34.9812 134.992 35.1657C134.844 35.3659 134.618 35.5346 134.339 35.5766L135.587 37.2629H134.018L132.99 35.8033H131.709V37.2629H130.302V33.1262H133.596C134.249 33.1262 134.676 33.2844 134.924 33.5479ZM133.786 34.7335C133.822 34.6703 133.833 34.586 133.833 34.5175C133.833 34.4384 133.822 34.3542 133.786 34.3014C133.712 34.1644 133.564 34.1275 133.342 34.1275H131.715V34.8811H133.369C133.596 34.8811 133.732 34.839 133.786 34.7335Z" fill="#808080"/>
<path d="M139.987 37.2629V36.1616H137.468V33.1262H136.041V37.2629H139.987Z" fill="#808080"/>
<path fill-rule="evenodd" clip-rule="evenodd" d="M145.575 35.1181C145.575 35.7611 145.512 36.1089 145.323 36.4357C145.038 36.9572 144.474 37.2629 143.478 37.2629H140.548V33.1262H143.446C144.437 33.1262 145.023 33.4055 145.312 33.8851C145.517 34.2066 145.575 34.549 145.575 35.1181ZM143.209 36.2459C143.657 36.2459 143.911 36.1405 144.064 35.9087C144.159 35.7664 144.185 35.4344 144.185 35.1446C144.179 34.8811 144.148 34.6018 144.064 34.4753C143.9 34.2277 143.653 34.1381 143.22 34.1381H141.961V36.2459H143.209Z" fill="#808080"/>
<path d="M89.0472 57.3815H86.8636C86.8636 57.3815 85.4388 61.5465 85.4388 61.6477C85.4388 61.5465 84.1066 57.3815 84.1066 57.3815H81.7374C81.7374 57.3815 80.4137 61.5465 80.4137 61.6477C80.4137 61.5465 78.9804 57.3815 78.9804 57.3815H76.5269L79.0056 64H81.476C81.476 64 82.8081 60.0457 82.8165 59.9362C82.8251 60.0457 84.1487 64 84.1487 64H86.6274L89.0472 57.3815Z" fill="#808080"/>
<path d="M92.0357 64V57.3815H89.717V64H92.0357Z" fill="#808080"/>
<path d="M101.054 57.3815V64H98.7945L95.5148 60.3155V64H93.3396V57.3815H95.7171L98.8956 60.9817V57.3815H101.054Z" fill="#808080"/>
<path d="M110.086 64V57.3815H107.928V60.9817L104.749 57.3815H102.372V64H104.547V60.3155L107.827 64H110.086Z" fill="#808080"/>
<path d="M118.377 62.3558V64H111.404V57.3815H118.318V59.034H113.63V59.8856H118.183V61.496H113.63V62.3558H118.377Z" fill="#808080"/>
<path fill-rule="evenodd" clip-rule="evenodd" d="M127.289 59.3965C127.289 58.7979 127.146 58.368 126.842 58.056C126.446 57.6345 125.763 57.3815 124.718 57.3815H119.448V64H121.7V61.6645H123.749L125.393 64H127.905L125.907 61.3021C126.353 61.2345 126.716 60.9647 126.953 60.6443C127.162 60.3493 127.289 59.9108 127.289 59.3965ZM125.096 59.6074C125.096 59.7169 125.08 59.8518 125.021 59.953C124.937 60.1217 124.718 60.189 124.355 60.189H121.708V58.9834H124.312C124.667 58.9834 124.904 59.0424 125.021 59.2616C125.08 59.346 125.096 59.4809 125.096 59.6074Z" fill="#808080"/>
<path d="M82.3154 45.7043L81.4011 42.8901L80.4866 45.7043H77.5276L79.9215 47.4435L79.0072 50.2577L81.4011 48.5185L83.7948 50.2577L82.8805 47.4435L85.2744 45.7043H82.3154Z" fill="#808080"/>
<path d="M91.9571 42.8888L92.8901 45.703H95.9095L93.4668 47.4423L94.3999 50.2564L91.9571 48.5172L89.5144 50.2564L90.4474 47.4423L88.0046 45.703H91.024L91.9571 42.8888Z" fill="#808080"/>
<path d="M103.363 45.703L102.43 42.8888L101.497 45.703H98.4771L100.92 47.4423L99.9868 50.2564L102.43 48.5172L104.872 50.2564L103.939 47.4423L106.382 45.703H103.363Z" fill="#808080"/>
<path d="M112.902 42.8888L113.835 45.703H116.854L114.412 47.4423L115.345 50.2564L112.902 48.5172L110.459 50.2564L111.392 47.4423L108.949 45.703H111.969L112.902 42.8888Z" fill="#808080"/>
<path d="M124.373 45.703L123.458 42.8888L122.543 45.703H119.584L121.978 47.4423L121.064 50.2564L123.458 48.5172L125.852 50.2564L124.938 47.4423L127.332 45.703H124.373Z" fill="#808080"/>
<path d="M162.762 12.7084C163.637 10.4836 163.257 7.92503 162.45 5.77339C161.602 3.50945 160.124 1.25129 157.917 0.0605469C157.807 2.44658 158.535 4.80368 159.332 6.92928C160.049 8.841 160.926 10.8777 162.377 12.4587C162.601 13.6565 162.772 14.8509 162.891 16.0399C162.41 14.7841 161.632 13.6395 160.659 12.719C159.406 11.5332 157.542 10.6185 155.793 11.1595C156.306 13.093 157.473 14.9467 158.857 16.247C159.945 17.2705 161.382 18.5818 163.075 18.6335C163.145 20.3837 163.105 22.1179 162.96 23.8286C162.722 22.5768 162.211 21.398 161.471 20.5203C160.455 19.3139 158.949 17.8404 157.027 18.0869C157.131 20.044 157.913 22.0492 159 23.5559C159.863 24.7532 161.004 26.2794 162.623 26.6737C162.364 28.3541 162.003 30.0068 161.544 31.624C161.54 30.3858 161.267 29.1702 160.724 28.1953C159.959 26.8205 158.767 25.1059 156.842 24.9718C156.559 26.8918 156.942 28.9907 157.714 30.66C158.33 31.9943 159.153 33.6959 160.651 34.3999C160.021 36.1404 159.277 37.8323 158.422 39.4651C158.723 38.0576 158.71 36.5744 158.356 35.2398C157.867 33.4004 156.654 31.4682 154.706 30.9076C154.017 32.9385 154.112 35.2045 154.513 37.2685C154.842 38.968 155.489 40.964 156.938 42.0679C155.99 43.5985 154.942 45.0673 153.796 46.4649C154.412 45.0943 154.717 43.5952 154.553 42.2228C154.315 40.2241 153.754 38.0864 151.713 37.0212C150.554 39.0193 150.285 41.2609 150.187 43.475C150.108 45.265 150.365 47.4729 151.61 48.9292C150.241 50.3505 148.767 51.6807 147.192 52.9074C148.209 51.6023 148.921 50.0709 149.071 48.5564C149.285 46.4165 149.181 44.0609 147.281 42.4904C145.658 44.1867 144.688 46.6849 144.214 48.8548C143.793 50.7731 143.355 53.0439 144.354 54.932C142.349 56.2414 140.208 57.3949 137.944 58.3719C139.537 57.2367 140.84 55.6791 141.462 54.071C142.276 51.9634 142.779 49.4519 141.194 47.341C139.07 48.7018 137.508 51.0234 136.278 53.141C135.222 54.958 134.129 57.4659 134.672 59.6298C133.418 60.055 132.133 60.4285 130.817 60.7471L130.895 61.0702C132.215 60.7504 133.507 60.3757 134.765 59.9492C135.647 62.5545 138.535 63.4155 140.871 63.7954C144.199 64.3368 148.162 63.2879 151.003 61.1744C149.503 59.0551 146.443 58.8402 144.137 58.678L144.106 58.6759C141.579 58.4983 138.845 58.7356 136.304 59.3961C139.239 58.2783 141.987 56.8728 144.521 55.2205L144.555 55.2756C145.943 57.5304 148.732 57.6185 150.921 57.4761C153.89 57.2829 157.317 55.4778 159.3 52.9826C157.434 51.3458 154.68 51.8037 152.544 52.1586L152.533 52.1605C150.15 52.5565 147.547 53.4204 145.362 54.7508C145.57 54.5869 145.772 54.4137 145.971 54.2319C148.096 52.7168 150.055 51.022 151.834 49.1741C151.859 49.1987 151.884 49.223 151.909 49.2471C153.639 50.9739 156.152 50.5183 158.114 49.9532C160.746 49.1953 163.474 46.9087 164.782 44.2838C162.755 43.1483 160.332 44.0838 158.449 44.8241C156.378 45.6371 154.188 46.9381 152.504 48.5968C152.678 48.3777 152.844 48.1487 153.001 47.9117C154.565 46.1455 155.974 44.2541 157.211 42.2588L157.265 42.292L157.279 42.3006C159.234 43.5591 161.45 42.6453 163.206 41.7465C165.588 40.5271 167.504 37.8472 168.33 35.2116C166.217 34.5346 164.129 35.8634 162.506 36.9158C160.728 38.0674 158.928 39.71 157.694 41.5939C157.784 41.408 157.87 41.2178 157.948 41.0242C159.135 38.954 160.142 36.7809 160.958 34.5266L161.001 34.5409L161.008 34.5436C162.787 35.2171 164.767 34.1661 166.058 33.0135C167.852 31.4106 169.119 28.9463 169.415 26.5387C167.56 26.2984 165.811 27.7338 164.617 28.9579C163.241 30.3678 162.005 32.0343 161.246 33.8855C161.303 33.6835 161.351 33.4783 161.391 33.2709C162.081 31.1532 162.605 28.9692 162.949 26.7365L163.002 26.7434C164.876 27.0468 166.609 25.6207 167.646 24.2365C169.103 22.2887 169.855 19.5928 169.666 17.1493C167.793 17.2805 166.365 19.0631 165.441 20.5054C164.369 22.1757 163.48 24.0662 163.091 26.044C163.104 25.8858 163.11 25.7268 163.113 25.5672C163.398 23.2945 163.5 20.9751 163.407 18.6273C165.321 18.5602 166.739 16.7831 167.469 15.2072C168.512 12.9531 168.68 10.1037 167.985 7.70248C166.161 8.21414 165.144 10.305 164.545 11.9147C163.853 13.7706 163.371 15.795 163.367 17.8075C163.268 16.1191 163.066 14.4173 162.762 12.7084Z" fill="#808080"/>
</svg>
