<svg width="204" height="64" viewBox="0 0 204 64" fill="none" xmlns="http://www.w3.org/2000/svg">
<path d="M156.054 4.51861C157.299 6.37909 158.494 8.67421 157.906 11.1338C155.878 9.97314 154.247 8.07813 152.954 6.20735C151.651 4.32401 150.299 2.32132 149.836 0C152.394 0.654234 154.683 2.47034 156.054 4.51861Z" fill="#808080"/>
<path d="M46.1144 11.1298C45.5283 8.66975 46.7257 6.37553 47.9728 4.51611C49.3456 2.46906 51.6362 0.654614 54.1944 0.00219727C53.7296 2.32306 52.3751 4.32499 51.0713 6.20713C49.7763 8.077 48.143 9.97079 46.1144 11.1298Z" fill="#808080"/>
<path d="M44.3293 15.8486C44.7868 13.9005 44.7767 11.7677 44.3411 9.94038C43.9581 8.33447 43.4008 6.06434 41.5665 5.29834C40.2332 7.43702 39.6973 10.3494 40.4743 12.5317C41.0362 14.1102 42.0466 16.1972 44.1421 16.5203C46.065 16.9636 48.0094 15.9378 49.545 15.091C51.2525 14.1494 52.9251 12.6515 53.9413 10.8707C52.0771 9.92978 49.9542 10.6934 48.3571 11.4251C46.6355 12.214 45.054 13.9065 44.3293 15.8486Z" fill="#808080"/>
<path d="M81.6466 17.7201V7.93896H78.3073V11.5026H73.2983V7.93896H69.959V17.7201H73.2983V14.169H78.3073V17.7201H81.6466Z" fill="#808080"/>
<path d="M92.7197 7.93896H96.4078L91.1747 14.493V17.7201H87.823V14.5054L82.6521 7.93896H86.4523L89.5425 11.8513L92.7197 7.93896Z" fill="#808080"/>
<path fill-rule="evenodd" clip-rule="evenodd" d="M108.038 8.77372C108.698 9.2971 109.072 10.1818 109.072 11.4652C109.072 12.5118 108.81 13.2967 108.312 13.8451C107.639 14.6176 106.53 14.9664 105.085 14.9789C104.636 14.9914 100.798 14.9789 100.798 14.9789V17.7201H97.4465V7.93896H105.035C106.38 7.93896 107.402 8.21307 108.038 8.77372ZM105.558 12.2253C105.658 12.0508 105.708 11.8265 105.708 11.515C105.708 11.1911 105.645 10.9169 105.533 10.7675C105.321 10.4559 104.923 10.3063 104.275 10.3063H100.773V12.6987H104.25C104.948 12.6987 105.359 12.5368 105.558 12.2253Z" fill="#808080"/>
<path d="M120.71 15.2903V17.7201H110.406V7.93896H120.623V10.3811H113.695V11.6396H120.424V14.0194H113.695V15.2903H120.71Z" fill="#808080"/>
<path fill-rule="evenodd" clip-rule="evenodd" d="M133.221 8.93576C133.671 9.39676 133.881 10.0322 133.881 10.9169C133.881 11.677 133.695 12.3249 133.383 12.7611C133.035 13.2345 132.498 13.6332 131.838 13.7329L134.791 17.7201H131.078L128.649 14.2687H125.621V17.7201H122.294V7.93896H130.081C131.626 7.93896 132.636 8.31273 133.221 8.93576ZM130.53 11.7393C130.618 11.5898 130.642 11.3904 130.642 11.2285C130.642 11.0416 130.618 10.8421 130.53 10.7175C130.356 10.3936 130.007 10.3063 129.483 10.3063H125.634V12.0882H129.545C130.081 12.0882 130.405 11.9886 130.53 11.7393Z" fill="#808080"/>
<path d="M118.926 29.9881C118.926 27.7523 117.505 26.5773 114.192 26.2182C113.654 26.1529 112.071 25.9897 111.075 25.9081C108.513 25.6306 107.746 25.4839 107.746 24.831C107.746 24.2435 108.35 23.9661 110.651 23.9661C112.283 23.9661 113.197 24.2761 113.556 24.7494C113.736 24.9779 113.801 25.1574 113.817 25.337H118.517C118.468 24.9452 118.305 24.3903 118.044 23.9008C117.195 22.2687 115.155 20.9631 110.765 20.9631C105.82 20.9631 103.111 22.7094 103.111 24.9942C103.111 27.1974 104.645 28.4867 108.79 28.8621C109.259 28.9022 110.266 28.9973 111.09 29.0752L111.141 29.08L111.15 29.0809L111.154 29.0812L111.598 29.1232C113.768 29.3517 114.356 29.4985 114.356 30.1841C114.356 30.8204 113.784 31.1631 111.385 31.1631C109.525 31.1631 108.432 30.8857 108.04 30.4124C107.877 30.2166 107.762 29.9228 107.73 29.727H103.03C103.078 30.0534 103.16 30.5757 103.34 31C104.139 32.7952 106.228 34.1661 111.075 34.1661C116.281 34.1661 118.926 32.6973 118.926 29.9881Z" fill="#808080"/>
<path fill-rule="evenodd" clip-rule="evenodd" d="M85.6053 32.6649C86.0949 32.0937 86.3396 31.2286 86.3396 30.3474C86.3396 29.5967 86.1438 28.8785 85.7358 28.4053C85.2462 27.7688 84.3812 27.3119 83.4674 27.1977C84.0875 27.116 84.675 26.7897 85.0177 26.3653C85.442 25.8594 85.6379 25.1739 85.6379 24.3416C85.6379 23.5093 85.3931 22.7749 84.8382 22.22C84.2181 21.5835 83.0919 21.1592 81.3294 21.1592H70.2644V33.9705H81.6395C83.451 33.9705 84.8546 33.5787 85.6053 32.6649ZM81.1009 25.1087C81.1009 25.4188 81.0029 25.6799 80.8398 25.8594C80.6113 26.0715 80.187 26.1532 79.6321 26.1532H74.5403V24.0642H79.5179C80.138 24.0642 80.5624 24.1458 80.7908 24.358C81.0029 24.5374 81.1009 24.7985 81.1009 25.1087ZM81.5905 30.7228C81.3294 30.9676 80.8724 31.0655 80.1053 31.0655H74.5403V28.9276H80.1544C80.8724 28.9276 81.2967 29.0254 81.5415 29.2376C81.7374 29.4334 81.8189 29.6783 81.8189 30.0047C81.8189 30.3148 81.7536 30.5596 81.5905 30.7228Z" fill="#808080"/>
<path d="M101.707 30.7881V33.9705H88.21V21.1592H101.592V24.358H92.5184V26.0063H101.331V29.1234H92.5184V30.7881H101.707Z" fill="#808080"/>
<path d="M134.806 24.3743V21.1592H119.515V24.3743H124.917V33.9705H129.387V24.3743H134.806Z" fill="#808080"/>
<path d="M134.419 45.307H133.699L133.648 44.6143C133.428 44.9649 132.963 45.3858 131.982 45.3858C130.324 45.3858 129.553 44.3863 129.553 41.8343C129.553 39.8613 130.043 38.2742 132.068 38.2742C133.823 38.2742 134.358 39.423 134.384 40.6594H133.507C133.481 39.8527 133.121 39.1073 132.086 39.1073C130.842 39.1073 130.481 39.8527 130.481 41.8608C130.481 43.9566 130.929 44.6143 132.105 44.6143C132.928 44.6143 133.41 44.1583 133.569 43.6147V42.308H131.797V41.5099H134.41V43.527C134.41 44.1296 134.416 44.7727 134.417 45.0961L134.419 45.2499V45.307Z" fill="#808080"/>
<path fill-rule="evenodd" clip-rule="evenodd" d="M70.4299 43.5621H72.8853L73.3938 45.3072H74.3234L72.2889 38.3622H71.1578L68.9829 45.3072H69.9037L70.4299 43.5621ZM72.666 42.7817H70.6667C70.6667 42.7817 71.5347 39.9757 71.5523 39.9143C71.5611 39.8704 71.7015 39.2478 71.7015 39.2478L71.7985 39.7084L71.8417 39.9143C71.8505 39.9581 72.666 42.7817 72.666 42.7817Z" fill="#808080"/>
<path d="M80.9792 38.3622H81.821L80.1812 45.3072H79.1376C79.1376 45.3072 77.9713 39.9055 77.9713 39.6775C77.9625 39.9055 76.7699 45.3072 76.7699 45.3072H75.7265L74.0867 38.3622H75.0336C75.0336 38.3622 76.3052 43.8603 76.3052 44.0796C76.3052 43.8603 77.4716 38.3622 77.4716 38.3622H78.515C78.515 38.3622 79.6813 43.8691 79.6813 44.0796C79.6813 43.8691 80.9792 38.3622 80.9792 38.3622Z" fill="#808080"/>
<path fill-rule="evenodd" clip-rule="evenodd" d="M85.4223 43.5621H82.9669L82.4408 45.3072H81.52L83.6948 38.3622H84.826L86.8605 45.3072H85.931L85.4223 43.5621ZM83.2038 42.7817H85.2031C85.2031 42.7817 84.3876 39.9581 84.3788 39.9143L84.3125 39.5983L84.2384 39.2478C84.2384 39.2478 84.0982 39.8704 84.0894 39.9143C84.0718 39.9757 83.2038 42.7817 83.2038 42.7817Z" fill="#808080"/>
<path fill-rule="evenodd" clip-rule="evenodd" d="M90.2399 38.3622C91.3097 38.3622 91.8885 38.8619 91.8885 40.3176C91.8885 41.5542 91.4237 41.9662 90.9414 42.1065L92.2744 45.3072H91.3097L90.0733 42.282H88.3897V45.3072H87.5127V38.3622H90.2399ZM90.1084 41.4927C90.8011 41.4927 90.9677 41.1331 90.9677 40.344C90.9677 39.4495 90.7047 39.1777 90.0645 39.1777H88.3983V41.4927H90.1084Z" fill="#808080"/>
<path fill-rule="evenodd" clip-rule="evenodd" d="M97.7266 41.7207C97.7266 43.3606 97.6039 44.0269 97.2532 44.5268C96.9024 45.0092 96.35 45.3072 95.4554 45.3072H93.0703V38.3622H95.3941C96.2711 38.3622 96.955 38.6252 97.2707 39.0988C97.6215 39.6073 97.7266 40.2387 97.7266 41.7207ZM95.2714 44.4829C95.8063 44.4829 96.2535 44.3427 96.4814 44.0357C96.7271 43.7025 96.7972 43.0272 96.7972 41.7207C96.7972 40.6246 96.7357 40.037 96.4814 39.6599C96.2447 39.3355 95.7887 39.1951 95.2538 39.1951H93.956V44.4829H95.2714Z" fill="#808080"/>
<path d="M106.978 38.3622H107.82L106.18 45.3072H105.137C105.137 45.3072 103.97 39.9055 103.97 39.6775C103.962 39.9055 102.769 45.3072 102.769 45.3072H101.726L100.086 38.3622H101.033C101.033 38.3622 102.304 43.8603 102.304 44.0796C102.304 43.8603 103.47 38.3622 103.47 38.3622H104.514C104.514 38.3622 105.68 43.8691 105.68 44.0796C105.68 43.8691 106.978 38.3622 106.978 38.3622Z" fill="#808080"/>
<path d="M109.371 38.3622V45.3072H108.459V38.3622H109.371Z" fill="#808080"/>
<path d="M115.08 38.3622V45.3072H114.071L111.484 39.923V45.3072H110.634V38.3622H111.695L114.22 43.6674V38.3622H115.08Z" fill="#808080"/>
<path d="M120.766 38.3622V45.3072H119.757L117.171 39.923V45.3072H116.32V38.3622H117.381L119.907 43.6674V38.3622H120.766Z" fill="#808080"/>
<path d="M122.918 38.3622V45.3072H122.006V38.3622H122.918Z" fill="#808080"/>
<path d="M128.627 38.3622V45.3072H127.618L125.032 39.923V45.3072H124.181V38.3622H125.242L127.768 43.6674V38.3622H128.627Z" fill="#808080"/>
<path d="M80.3024 58.9951L79.2975 55.9023L78.2926 58.9951H75.0408L77.6715 60.9066L76.6667 63.9994L79.2975 62.0879L81.9284 63.9994L80.9234 60.9066L83.5543 58.9951H80.3024Z" fill="#808080"/>
<path d="M91.9233 58.9959L90.8979 55.9031L89.8725 58.9959H86.5542L89.2388 60.9072L88.2134 64L90.8979 62.0886L93.5825 64L92.5571 60.9072L95.2416 58.9959H91.9233Z" fill="#808080"/>
<path d="M103.433 58.9959L102.408 55.9031L101.382 58.9959H98.064L100.748 60.9072L99.723 64L102.408 62.0886L105.092 64L104.067 60.9072L106.751 58.9959H103.433Z" fill="#808080"/>
<path d="M114.942 58.9959L113.917 55.9031L112.892 58.9959H109.573L112.258 60.9072L111.232 64L113.917 62.0886L116.601 64L115.576 60.9072L118.261 58.9959H114.942Z" fill="#808080"/>
<path d="M126.522 58.9959L125.518 55.9031L124.513 58.9959H121.261L123.892 60.9072L122.888 64L125.518 62.0886L128.149 64L127.143 60.9072L129.775 58.9959H126.522Z" fill="#808080"/>
<path d="M38.4086 21.1061C39.3542 22.5487 40.8175 24.3557 42.951 24.3042C44.8911 24.4012 46.5673 23.0771 47.8873 21.972C49.3089 20.7818 50.5921 19.0413 51.1338 17.1596C49.1494 16.5823 47.2496 17.6518 45.8328 18.6605C44.3534 19.7141 43.2156 21.6423 42.9711 23.6221C42.9528 21.6387 42.4159 19.5901 41.5504 17.9398C40.7592 16.4311 39.6565 14.3918 37.6893 13.9841C36.9142 16.3317 37.1615 19.2039 38.4086 21.1061Z" fill="#808080"/>
<path d="M43.5819 32.0739C41.6018 32.4057 39.6703 31.1925 38.4159 29.7655C36.8009 27.9282 35.84 25.4634 36.036 22.996C38.0701 23.0476 39.6108 24.806 40.7495 26.1357C41.9759 27.5677 42.9807 29.4518 43.4627 31.3955C43.2507 29.4585 43.901 27.3669 45.1082 26.0745C46.2734 24.8269 47.9056 23.4673 49.9365 23.6855C49.8927 25.6496 48.9082 27.5208 47.8927 28.9222C46.9462 30.2283 45.4881 31.8437 43.5819 32.0739Z" fill="#808080"/>
<path d="M39.9241 38.5999C41.7478 39.7872 43.9596 40.9624 46.2841 40.073C48.1911 39.3983 49.4036 37.4788 50.1493 35.7169C50.9392 33.8501 51.4668 31.6974 51.1015 29.6542C49.006 29.8401 47.2684 31.3394 46.3455 33.1696C45.3806 35.083 45.1956 37.3604 45.9367 39.3664C44.8416 37.3027 43.2401 35.6328 41.5437 34.0899C40.0015 32.6874 37.7801 31.21 35.5427 31.4878C35.9684 34.254 37.6564 37.1237 39.9241 38.5999Z" fill="#808080"/>
<path d="M50.9816 47.5517C52.7762 46.4788 53.4984 44.2214 53.7936 42.2871C54.1117 40.2009 54.0981 37.9002 53.2317 35.9211C51.1497 36.5027 49.7205 38.3766 49.2486 40.4292C48.7501 42.5977 49.1708 44.9088 50.3835 46.7552C48.7714 44.9057 46.6277 43.3785 44.5734 42.3076C42.589 41.2733 40.1546 40.0257 37.7715 40.7791C38.9206 43.5837 41.3789 46.1949 44.1033 47.275C46.2132 48.1113 48.78 48.9383 50.9816 47.5517Z" fill="#808080"/>
<path d="M59.4895 48.2772C59.7528 50.2908 59.7454 52.8447 58.1821 54.3946C56.2284 56.3942 53.205 56.0083 50.8731 55.5684C47.7425 54.9773 44.2184 52.8421 42.3296 49.9991C44.6364 48.7289 47.4576 49.5414 49.7414 50.1991L49.8718 50.2365C52.421 50.97 55.1376 52.1512 57.4095 53.7653C55.5965 52.127 54.2754 49.7224 54.2108 47.2987C54.1526 45.1309 55.0935 42.8117 57.1183 41.7784C58.5319 43.6338 59.1938 46.0158 59.4895 48.2772Z" fill="#808080"/>
<path d="M68.5625 60.0966C69.7138 57.905 68.5731 55.3329 67.6641 53.4318C66.5895 51.1844 65.1212 48.894 63.02 47.249C61.0023 48.9879 61.1942 51.476 61.794 53.6383C62.5073 56.2093 64.9802 58.401 67.541 59.6499C64.5753 58.544 61.3364 57.8802 58.2548 57.6842L57.9427 57.6641C55.467 57.5028 52.2442 57.2929 50.2715 59.1046C53.2542 61.6402 57.4908 63.1032 61.2248 63.0271C63.7271 62.9762 67.1603 62.6802 68.5625 60.0966Z" fill="#808080"/>
<path d="M159.687 15.8555C158.964 13.912 157.383 12.2174 155.663 11.427C154.065 10.694 151.943 9.9291 150.079 10.8683C151.094 12.6499 152.764 14.1491 154.471 15.0919C156.005 15.9397 157.948 16.9668 159.871 16.5254C161.967 16.2043 162.981 14.1177 163.544 12.5392C164.324 10.358 163.791 7.44498 162.46 5.30493C160.624 6.06987 160.064 8.3394 159.681 9.94515C159.243 11.7729 159.231 13.9064 159.687 15.8555Z" fill="#808080"/>
<path d="M158.18 18.6646C159.658 19.7187 160.792 21.6458 161.036 23.6242C161.057 21.6418 161.596 19.5952 162.463 17.9466C163.255 16.4384 164.36 14.4 166.327 13.9937C167.1 16.3419 166.85 19.214 165.601 21.1151C164.656 22.5552 163.193 24.3584 161.063 24.3101C159.12 24.4093 157.442 23.0821 156.122 21.9747C154.701 20.7833 153.42 19.0419 152.881 17.1599C154.865 16.5838 156.764 17.6548 158.18 18.6646Z" fill="#808080"/>
<path d="M160.536 31.4082C160.753 29.4696 160.105 27.3736 158.896 26.0786C157.733 24.8302 156.102 23.4693 154.071 23.686C154.112 25.6501 155.095 27.5222 156.11 28.9244C157.055 30.2306 158.51 31.8461 160.415 32.0788C162.396 32.4143 164.33 31.2017 165.587 29.7748C167.203 27.9388 168.166 25.4748 167.974 23.0071C165.938 23.0574 164.397 24.8144 163.256 26.1432C162.027 27.5761 161.02 29.4623 160.536 31.4082Z" fill="#808080"/>
<path d="M157.653 33.1733C158.616 35.0877 158.8 37.3655 158.056 39.3709C159.152 37.3075 160.756 35.6388 162.454 34.0969C163.997 32.6955 166.22 31.22 168.457 31.4994C168.03 34.2653 166.338 37.1338 164.07 38.6083C162.246 39.7925 160.037 40.9653 157.715 40.0795C155.806 39.4061 154.593 37.4826 153.847 35.7177C153.058 33.8502 152.533 31.6973 152.901 29.6542C154.995 29.8418 156.732 31.3425 157.653 33.1733Z" fill="#808080"/>
<path d="M153.605 46.7517C154.816 44.9071 155.239 42.5982 154.743 40.4307C154.274 38.3777 152.846 36.5027 150.764 35.9197C149.896 37.8978 149.881 40.1984 150.196 42.285C150.489 44.2156 151.207 46.4684 152.991 47.5452C155.195 48.9427 157.768 48.1162 159.88 47.2802C162.606 46.2021 165.067 43.5927 166.218 40.7887C163.836 40.0338 161.401 41.2796 159.416 42.3124C157.362 43.3811 155.218 44.9051 153.605 46.7517Z" fill="#808080"/>
<path d="M144.494 48.2713C144.229 50.2844 144.234 52.8382 145.797 54.3894C147.747 56.3906 150.771 56.0068 153.104 55.5684C156.236 54.9797 159.761 52.8468 161.653 50.0054C159.348 48.7338 156.525 49.5438 154.241 50.1997L154.109 50.2373C151.561 50.9685 148.844 52.1473 146.57 53.759C148.385 52.122 149.707 49.7194 149.773 47.2966C149.834 45.129 148.895 42.809 146.872 41.774C145.456 43.6283 144.793 46.0101 144.494 48.2713Z" fill="#808080"/>
<path d="M142.744 63.0194C140.243 62.9665 136.809 62.668 135.41 60.0832L135.39 60.0478C134.273 57.8629 135.409 55.3093 136.314 53.4194C137.391 51.1728 138.861 48.8834 140.963 47.2402C142.981 48.9805 142.785 51.4684 142.184 53.6301C141.468 56.2007 138.993 58.3908 136.431 59.6377C139.398 58.534 142.637 57.8726 145.719 57.6788L146.032 57.6588C148.508 57.4994 151.731 57.2923 153.701 59.105C150.716 61.6381 146.479 63.0982 142.744 63.0194Z" fill="#808080"/>
</svg>
