<svg width="204" height="64" viewBox="0 0 204 64" fill="none" xmlns="http://www.w3.org/2000/svg">
<path d="M79.8319 56.5049H83.2396C83.2029 56.8481 83.1293 57.5222 82.8841 58.0003C82.1119 59.6551 80.3345 60.5745 76.9636 60.5745C74.2668 60.5745 72.5139 59.9003 71.57 58.7604C70.9204 58.0003 70.5894 56.9462 70.5894 55.5978C70.5894 54.372 70.8959 53.3546 71.5087 52.6068C72.4894 51.3811 74.2545 50.6456 77.0249 50.6456C80.8003 50.6456 82.3693 51.994 82.9455 53.4282C83.1415 53.9307 83.2029 54.4946 83.2151 54.801H79.8074C79.7951 54.5804 79.7093 54.2984 79.5622 54.09C79.2067 53.5753 78.4222 53.1953 76.9881 53.1953C75.6887 53.1953 74.7449 53.5262 74.3158 54.2004C74.0952 54.5314 74.0094 55.0217 74.0094 55.6345C74.0094 56.2965 74.1197 56.7501 74.3526 57.081C74.8307 57.7919 75.8972 58.0616 77.0004 58.0616C78.2874 58.0616 79.2066 57.8042 79.6112 57.2158C79.7584 57.0074 79.8197 56.7623 79.8319 56.5049Z" fill="#808080"/>
<path d="M93.7656 57.8654V60.4272H84.5845V50.8048H87.9064V57.8654H93.7656Z" fill="#808080"/>
<path d="M105.208 60.4272V58.0369H98.3069V56.7867H104.926V54.4454H98.3069V53.2074H105.122V50.8048H95.0708V60.4272H105.208Z" fill="#808080"/>
<path fill-rule="evenodd" clip-rule="evenodd" d="M115.309 58.6499H110.112L109.217 60.4272H105.748L110.884 50.8048H114.843L119.698 60.4272H116.155L115.309 58.6499ZM111.191 56.4925H114.268L113.115 54.1635L112.772 53.2931L112.404 54.1757L111.191 56.4925Z" fill="#808080"/>
<path fill-rule="evenodd" clip-rule="evenodd" d="M132.016 53.7344C132.016 52.8641 131.808 52.2389 131.366 51.7854C130.79 51.1725 129.797 50.8048 128.278 50.8048H120.616V60.4272H123.889V57.0318H126.868L129.258 60.4272H132.911L130.006 56.5047C130.655 56.4067 131.183 56.0144 131.525 55.5486C131.832 55.1195 132.016 54.4821 132.016 53.7344ZM128.829 54.0409C128.829 54.2002 128.804 54.3964 128.719 54.5435C128.596 54.7886 128.278 54.8867 127.75 54.8867H123.901V53.1338H127.689C128.204 53.1338 128.547 53.2196 128.719 53.5383C128.804 53.6609 128.829 53.857 128.829 54.0409Z" fill="#808080"/>
<path d="M113.941 6.98025C113.941 7.13968 113.917 7.33576 113.832 7.48284C113.709 7.72802 113.39 7.8261 112.863 7.8261H109.014V6.07324H112.802C113.317 6.07324 113.66 6.15899 113.832 6.47775C113.917 6.60034 113.941 6.79642 113.941 6.98025Z" fill="#808080"/>
<path d="M123.525 9.43175H126.601L125.449 7.10268L125.105 6.23242L124.738 7.11503L123.525 9.43175Z" fill="#808080"/>
<path fill-rule="evenodd" clip-rule="evenodd" d="M64.9895 6.95754C65.3864 3.04962 68.6868 0 72.6994 0H130.501C134.781 0 138.251 3.46975 138.251 7.74996V56.25C138.251 60.5302 134.781 64 130.501 64H72.6994C68.4192 64 64.9495 60.5302 64.9495 56.25V7.74996C64.9495 7.48241 64.9631 7.21814 64.9895 6.95754ZM66.564 21.6765L92.612 30.486C93.3216 29.766 94.2872 29.1402 95.4488 28.6525C95.7159 28.5404 95.9916 28.4364 96.2745 28.3407L85.4147 17.322H93.9155L98.6877 27.7552C99.3179 27.6563 99.9657 27.5933 100.622 27.5681C100.841 27.5598 101.059 27.5555 101.277 27.5555V17.322H108.639L103.867 27.7554C104.602 27.8708 105.316 28.0354 105.993 28.2476C106.866 28.5208 107.66 28.8666 108.352 29.2724L128.752 17.322H136.636V21.4581L106.774 31.5576C106.147 30.9206 105.211 30.4071 104.084 30.0818C102.959 29.7566 101.693 29.6342 100.448 29.7301C99.2038 29.8261 98.0357 30.1362 97.0917 30.621C96.1479 31.106 95.4706 31.744 95.1457 32.4543C94.8208 33.1647 94.8627 33.9155 95.2663 34.612C95.6698 35.3084 96.4169 35.9192 97.4128 36.3669C98.4089 36.8145 99.6092 37.0791 100.862 37.1272C101.558 37.1539 102.253 37.1132 102.92 37.0085C103.453 36.9248 103.968 36.8003 104.451 36.6369L114.348 46.6781H107.343L103.867 39.0783C102.168 39.3448 100.382 39.3443 98.6877 39.0784L95.2115 46.6781H88.2073L96.2744 38.4929C95.5191 38.2374 94.822 37.9245 94.202 37.5614L78.6393 46.6781H66.564V45.1572L92.6119 36.3475C92.0126 35.7394 91.6019 35.0704 91.4049 34.3716C91.1721 33.5455 91.2449 32.7028 91.6123 31.8998L66.564 27.9681V21.6765ZM136.636 45.3754L101.277 33.4167L136.636 38.9668V45.3754ZM136.636 48.2926H66.564V56.25C66.564 59.6385 69.3109 62.3853 72.6994 62.3853H130.501C133.889 62.3853 136.636 59.6385 136.636 56.25V48.2926ZM83.7598 9.65256V3.74424H80.4747V9.3583C80.4747 10.3635 79.5431 11.0377 77.9741 11.0377C76.3315 11.0377 75.4366 10.388 75.4366 9.34605V3.74424H72.1148V9.34605C72.1148 12.2634 74.5051 13.5015 77.8393 13.5015C81.4064 13.5015 83.7598 12.2512 83.7598 9.65256ZM94.8234 13.3667V10.8047H88.9641V3.74424H85.6422V13.3667H94.8234ZM104.696 3.74424V6.15904H100.626V13.3667H97.2674V6.15904H93.2101V3.74424H104.696ZM117.128 6.67388C117.128 5.80362 116.92 5.17844 116.479 4.72484C115.903 4.112 114.91 3.74424 113.39 3.74424H105.729V13.3667H109.002V9.97123H111.98L114.371 13.3667H118.023L115.118 9.44414C115.768 9.34605 116.295 8.95379 116.638 8.48804C116.945 8.05908 117.128 7.42165 117.128 6.67388ZM127.643 11.5893H122.446L121.551 13.3667H118.082L123.218 3.74424H127.177L132.032 13.3667H128.489L127.643 11.5893Z" fill="#808080"/>
</svg>
