<svg width="20" height="21" viewBox="0 0 20 21" fill="none" xmlns="http://www.w3.org/2000/svg">
<path d="M5.72513 10.0474L12.6914 3.40992C12.8076 3.29912 12.962 3.2373 13.1226 3.2373C13.2832 3.2373 13.4376 3.29912 13.5539 3.40992L13.5614 3.41742C13.6179 3.47114 13.6629 3.5358 13.6937 3.60746C13.7245 3.67913 13.7403 3.75631 13.7403 3.8343C13.7403 3.91229 13.7245 3.98947 13.6937 4.06113C13.6629 4.1328 13.6179 4.19746 13.5614 4.25117L7.00138 10.5012L13.5614 16.7487C13.6179 16.8024 13.6629 16.867 13.6937 16.9387C13.7245 17.0104 13.7403 17.0876 13.7403 17.1655C13.7403 17.2435 13.7245 17.3207 13.6937 17.3924C13.6629 17.464 13.6179 17.5287 13.5614 17.5824L13.5539 17.5899C13.4376 17.7007 13.2832 17.7625 13.1226 17.7625C12.962 17.7625 12.8076 17.7007 12.6914 17.5899L5.72513 10.9524C5.66386 10.8941 5.61509 10.8238 5.58176 10.7461C5.54843 10.6683 5.53125 10.5845 5.53125 10.4999C5.53125 10.4153 5.54843 10.3316 5.58176 10.2538C5.61509 10.176 5.66386 10.1058 5.72513 10.0474Z" fill="white"/>
</svg>
