<svg width="60" height="60" viewBox="0 0 60 60" fill="none" xmlns="http://www.w3.org/2000/svg">
<circle cx="30" cy="30" r="30" fill="#E42652"/>
<path d="M41.999 18C38.1934 18.5205 34.5989 20.0589 31.595 22.4526C28.5911 24.8463 26.2892 28.0067 24.9323 31.6M42.001 18C41.4805 21.8056 39.9422 25.4 37.5485 28.4039C35.1547 31.4078 31.9944 33.7097 28.401 35.0667M28.1328 26C30.7237 27.1958 32.8037 29.2758 33.9995 31.8667M18 42V36.6667C18 35.6118 18.3128 34.5807 18.8988 33.7036C19.4849 32.8266 20.3178 32.143 21.2924 31.7393C22.2669 31.3356 23.3392 31.23 24.3738 31.4358C25.4084 31.6416 26.3587 32.1496 27.1046 32.8954C27.8505 33.6413 28.3584 34.5916 28.5642 35.6262C28.77 36.6608 28.6644 37.7331 28.2607 38.7076C27.857 39.6822 27.1734 40.5151 26.2964 41.1012C25.4193 41.6872 24.3882 42 23.3333 42H18Z" stroke="white" stroke-linecap="round" stroke-linejoin="round"/>
</svg>
