<svg width="24" height="24" viewBox="0 0 24 24" fill="none" xmlns="http://www.w3.org/2000/svg">
<path d="M14.6668 5.33331H22.6668M18.6668 1.33331V9.33331M1.3335 2.66665C1.3335 2.31302 1.47397 1.97389 1.72402 1.72384C1.97407 1.47379 2.31321 1.33331 2.66683 1.33331H8.00016C8.35378 1.33331 8.69292 1.47379 8.94297 1.72384C9.19302 1.97389 9.3335 2.31302 9.3335 2.66665V7.99998C9.3335 8.3536 9.19302 8.69274 8.94297 8.94279C8.69292 9.19284 8.35378 9.33331 8.00016 9.33331H2.66683C2.31321 9.33331 1.97407 9.19284 1.72402 8.94279C1.47397 8.69274 1.3335 8.3536 1.3335 7.99998V2.66665ZM1.3335 16C1.3335 15.6464 1.47397 15.3072 1.72402 15.0572C1.97407 14.8071 2.31321 14.6666 2.66683 14.6666H8.00016C8.35378 14.6666 8.69292 14.8071 8.94297 15.0572C9.19302 15.3072 9.3335 15.6464 9.3335 16V21.3333C9.3335 21.6869 9.19302 22.0261 8.94297 22.2761C8.69292 22.5262 8.35378 22.6666 8.00016 22.6666H2.66683C2.31321 22.6666 1.97407 22.5262 1.72402 22.2761C1.47397 22.0261 1.3335 21.6869 1.3335 21.3333V16ZM14.6668 16C14.6668 15.6464 14.8073 15.3072 15.0574 15.0572C15.3074 14.8071 15.6465 14.6666 16.0002 14.6666H21.3335C21.6871 14.6666 22.0263 14.8071 22.2763 15.0572C22.5264 15.3072 22.6668 15.6464 22.6668 16V21.3333C22.6668 21.6869 22.5264 22.0261 22.2763 22.2761C22.0263 22.5262 21.6871 22.6666 21.3335 22.6666H16.0002C15.6465 22.6666 15.3074 22.5262 15.0574 22.2761C14.8073 22.0261 14.6668 21.6869 14.6668 21.3333V16Z" stroke="white" stroke-linecap="round" stroke-linejoin="round"/>
</svg>
