<svg width="24" height="24" viewBox="0 0 24 24" fill="none" xmlns="http://www.w3.org/2000/svg">
<path d="M5.33267 14.6666C3.94498 15.4501 2.82288 16.6301 2.11021 18.0554C1.39755 19.4807 1.1268 21.0864 1.33267 22.6666C2.91288 22.8725 4.51857 22.6018 5.9439 21.8891C7.36923 21.1764 8.54924 20.0543 9.33267 18.6666M1.33333 13.3333C3.71079 13.6159 5.92406 14.69 7.61701 16.383C9.30995 18.0759 10.3841 20.2892 10.6667 22.6666C11.8452 21.9872 12.8311 21.0184 13.531 19.8519C14.2309 18.6854 14.6218 17.3596 14.6667 16C16.9055 15.2124 18.8605 13.7786 20.2845 11.88C21.7084 9.98135 22.5375 7.7031 22.6667 5.33331C22.6667 4.27245 22.2452 3.25503 21.4951 2.50489C20.7449 1.75474 19.7275 1.33331 18.6667 1.33331C16.2969 1.46252 14.0186 2.29153 12.12 3.71552C10.2213 5.1395 8.78758 7.0945 8 9.33331C6.64035 9.37821 5.31461 9.7691 4.14809 10.469C2.98156 11.1689 2.01279 12.1548 1.33333 13.3333ZM14.6667 7.99998C14.6667 8.3536 14.8071 8.69274 15.0572 8.94279C15.3072 9.19284 15.6464 9.33331 16 9.33331C16.3536 9.33331 16.6928 9.19284 16.9428 8.94279C17.1929 8.69274 17.3333 8.3536 17.3333 7.99998C17.3333 7.64636 17.1929 7.30722 16.9428 7.05717C16.6928 6.80712 16.3536 6.66665 16 6.66665C15.6464 6.66665 15.3072 6.80712 15.0572 7.05717C14.8071 7.30722 14.6667 7.64636 14.6667 7.99998Z" stroke="white" stroke-linecap="round" stroke-linejoin="round"/>
</svg>
