<svg width="60" height="60" viewBox="0 0 60 60" fill="none" xmlns="http://www.w3.org/2000/svg">
<circle cx="30" cy="30" r="30" fill="#E42652"/>
<path d="M32.6666 23.3333H40.6666M36.6666 19.3333V27.3333M19.3333 20.6666C19.3333 20.313 19.4737 19.9739 19.7238 19.7238C19.9738 19.4738 20.313 19.3333 20.6666 19.3333H25.9999C26.3535 19.3333 26.6927 19.4738 26.9427 19.7238C27.1928 19.9739 27.3333 20.313 27.3333 20.6666V26C27.3333 26.3536 27.1928 26.6927 26.9427 26.9428C26.6927 27.1928 26.3535 27.3333 25.9999 27.3333H20.6666C20.313 27.3333 19.9738 27.1928 19.7238 26.9428C19.4737 26.6927 19.3333 26.3536 19.3333 26V20.6666ZM19.3333 34C19.3333 33.6464 19.4737 33.3072 19.7238 33.0572C19.9738 32.8071 20.313 32.6666 20.6666 32.6666H25.9999C26.3535 32.6666 26.6927 32.8071 26.9427 33.0572C27.1928 33.3072 27.3333 33.6464 27.3333 34V39.3333C27.3333 39.6869 27.1928 40.0261 26.9427 40.2761C26.6927 40.5262 26.3535 40.6666 25.9999 40.6666H20.6666C20.313 40.6666 19.9738 40.5262 19.7238 40.2761C19.4737 40.0261 19.3333 39.6869 19.3333 39.3333V34ZM32.6666 34C32.6666 33.6464 32.8071 33.3072 33.0571 33.0572C33.3072 32.8071 33.6463 32.6666 33.9999 32.6666H39.3333C39.6869 32.6666 40.026 32.8071 40.2761 33.0572C40.5261 33.3072 40.6666 33.6464 40.6666 34V39.3333C40.6666 39.6869 40.5261 40.0261 40.2761 40.2761C40.026 40.5262 39.6869 40.6666 39.3333 40.6666H33.9999C33.6463 40.6666 33.3072 40.5262 33.0571 40.2761C32.8071 40.0261 32.6666 39.6869 32.6666 39.3333V34Z" stroke="white" stroke-linecap="round" stroke-linejoin="round"/>
</svg>
