<svg width="60" height="60" viewBox="0 0 60 60" fill="none" xmlns="http://www.w3.org/2000/svg">
<circle cx="30" cy="30" r="30" fill="#E42652"/>
<path d="M23.3327 32.6666C21.945 33.4501 20.8229 34.6301 20.1102 36.0554C19.3975 37.4807 19.1268 39.0864 19.3327 40.6666C20.9129 40.8725 22.5186 40.6018 23.9439 39.8891C25.3692 39.1764 26.5492 38.0543 27.3327 36.6666M19.3333 31.3333C21.7108 31.6159 23.9241 32.69 25.617 34.383C27.31 36.0759 28.3841 38.2892 28.6667 40.6666C29.8452 39.9872 30.8311 39.0184 31.531 37.8519C32.2309 36.6854 32.6218 35.3596 32.6667 34C34.9055 33.2124 36.8605 31.7786 38.2845 29.88C39.7084 27.9814 40.5375 25.7031 40.6667 23.3333C40.6667 22.2724 40.2452 21.255 39.4951 20.5049C38.7449 19.7547 37.7275 19.3333 36.6667 19.3333C34.2969 19.4625 32.0186 20.2915 30.12 21.7155C28.2213 23.1395 26.7876 25.0945 26 27.3333C24.6404 27.3782 23.3146 27.7691 22.1481 28.469C20.9816 29.1689 20.0128 30.1548 19.3333 31.3333ZM32.6667 26C32.6667 26.3536 32.8071 26.6927 33.0572 26.9428C33.3072 27.1928 33.6464 27.3333 34 27.3333C34.3536 27.3333 34.6928 27.1928 34.9428 26.9428C35.1929 26.6927 35.3333 26.3536 35.3333 26C35.3333 25.6464 35.1929 25.3072 34.9428 25.0572C34.6928 24.8071 34.3536 24.6666 34 24.6666C33.6464 24.6666 33.3072 24.8071 33.0572 25.0572C32.8071 25.3072 32.6667 25.6464 32.6667 26Z" stroke="white" stroke-linecap="round" stroke-linejoin="round"/>
</svg>
