<svg width="21" height="21" viewBox="0 0 21 21" fill="none" xmlns="http://www.w3.org/2000/svg">
<path d="M11.0613 16.0984C10.9735 16.0105 10.9242 15.8914 10.9242 15.7671C10.9242 15.6429 10.9735 15.5238 11.0613 15.4359L15.8855 10.6109H3.2675C3.14318 10.6109 3.02395 10.5615 2.93605 10.4736C2.84814 10.3857 2.79875 10.2665 2.79875 10.1421C2.79875 10.0178 2.84814 9.8986 2.93605 9.81069C3.02395 9.72278 3.14318 9.6734 3.2675 9.6734H15.8855L11.0613 4.8484C10.9785 4.75954 10.9334 4.64201 10.9355 4.52057C10.9377 4.39913 10.9869 4.28327 11.0727 4.19738C11.1586 4.1115 11.2745 4.0623 11.3959 4.06016C11.5174 4.05802 11.6349 4.1031 11.7238 4.1859L17.3488 9.8109C17.4365 9.89879 17.4858 10.0179 17.4858 10.1421C17.4858 10.2664 17.4365 10.3855 17.3488 10.4734L11.7238 16.0984C11.6359 16.1862 11.5167 16.2355 11.3925 16.2355C11.2683 16.2355 11.1491 16.1862 11.0613 16.0984Z" fill="white"/>
</svg>
