<svg width="100" height="100" viewBox="0 0 100 100" fill="none" xmlns="http://www.w3.org/2000/svg">
<path d="M24.9998 50C22.7897 50 20.6701 49.122 19.1073 47.5592C17.5445 45.9964 16.6665 43.8768 16.6665 41.6667C16.6665 39.4565 17.5445 37.3369 19.1073 35.7741C20.6701 34.2113 22.7897 33.3333 24.9998 33.3333M24.9998 50C27.21 50 29.3296 49.122 30.8924 47.5592C32.4552 45.9964 33.3332 43.8768 33.3332 41.6667C33.3332 39.4565 32.4552 37.3369 30.8924 35.7741C29.3296 34.2113 27.21 33.3333 24.9998 33.3333M24.9998 50V83.3333M24.9998 33.3333V16.6667M49.9998 75C47.7897 75 45.6701 74.122 44.1073 72.5592C42.5445 70.9964 41.6665 68.8768 41.6665 66.6667C41.6665 64.4565 42.5445 62.3369 44.1073 60.7741C45.6701 59.2113 47.7897 58.3333 49.9998 58.3333M49.9998 75C52.21 75 54.3296 74.122 55.8924 72.5592C57.4552 70.9964 58.3332 68.8768 58.3332 66.6667C58.3332 64.4565 57.4552 62.3369 55.8924 60.7741C54.3296 59.2113 52.21 58.3333 49.9998 58.3333M49.9998 75V83.3333M49.9998 58.3333V16.6667M74.9998 37.5C72.7897 37.5 70.6701 36.622 69.1073 35.0592C67.5445 33.4964 66.6665 31.3768 66.6665 29.1667C66.6665 26.9565 67.5445 24.8369 69.1073 23.2741C70.6701 21.7113 72.7897 20.8333 74.9998 20.8333M74.9998 37.5C77.21 37.5 79.3296 36.622 80.8924 35.0592C82.4552 33.4964 83.3332 31.3768 83.3332 29.1667C83.3332 26.9565 82.4552 24.8369 80.8924 23.2741C79.3296 21.7113 77.21 20.8333 74.9998 20.8333M74.9998 37.5V50M74.9998 20.8333V16.6667M79.1665 66.6667V79.1667M79.1665 91.6667V91.7083" stroke="#E42652" stroke-width="3" stroke-linecap="round" stroke-linejoin="round"/>
</svg>
