<svg width="100" height="100" viewBox="0 0 100 100" fill="none" xmlns="http://www.w3.org/2000/svg">
<path d="M66.6667 25C66.6667 27.2101 67.5446 29.3298 69.1074 30.8926C70.6702 32.4554 72.7899 33.3333 75 33.3333M66.6667 25C66.6667 22.7899 67.5446 20.6702 69.1074 19.1074C70.6702 17.5446 72.7899 16.6667 75 16.6667M66.6667 25H12.5M75 33.3333C77.2101 33.3333 79.3298 32.4554 80.8926 30.8926C82.4554 29.3298 83.3333 27.2101 83.3333 25M75 33.3333V66.6667M83.3333 25C83.3333 22.7899 82.4554 20.6702 80.8926 19.1074C79.3298 17.5446 77.2101 16.6667 75 16.6667M83.3333 25H87.5M75 16.6667V12.5M16.6667 50C16.6667 52.2101 17.5446 54.3297 19.1074 55.8926C20.6702 57.4554 22.7899 58.3333 25 58.3333M16.6667 50C16.6667 47.7899 17.5446 45.6702 19.1074 44.1074C20.6702 42.5446 22.7899 41.6667 25 41.6667M16.6667 50H12.5M25 58.3333C27.2101 58.3333 29.3298 57.4554 30.8926 55.8926C32.4554 54.3297 33.3333 52.2101 33.3333 50M25 58.3333V66.6667M33.3333 50C33.3333 47.7899 32.4554 45.6702 30.8926 44.1074C29.3298 42.5446 27.2101 41.6667 25 41.6667M33.3333 50H87.5M25 41.6667V12.5M16.6667 75C16.6667 77.2101 17.5446 79.3298 19.1074 80.8926C20.6702 82.4554 22.7899 83.3333 25 83.3333M16.6667 75C16.6667 72.7899 17.5446 70.6702 19.1074 69.1074C20.6702 67.5446 22.7899 66.6667 25 66.6667M16.6667 75H12.5M25 83.3333C27.2101 83.3333 29.3298 82.4554 30.8926 80.8926C32.4554 79.3298 33.3333 77.2101 33.3333 75M25 83.3333V87.5M33.3333 75C33.3333 72.7899 32.4554 70.6702 30.8926 69.1074C29.3298 67.5446 27.2101 66.6667 25 66.6667M33.3333 75H66.6667M66.6667 75C66.6667 77.2101 67.5446 79.3298 69.1074 80.8926C70.6702 82.4554 72.7899 83.3333 75 83.3333M66.6667 75C66.6667 72.7899 67.5446 70.6702 69.1074 69.1074C70.6702 67.5446 72.7899 66.6667 75 66.6667M75 83.3333C77.2101 83.3333 79.3298 82.4554 80.8926 80.8926C82.4554 79.3298 83.3333 77.2101 83.3333 75M75 83.3333V87.5M83.3333 75C83.3333 72.7899 82.4554 70.6702 80.8926 69.1074C79.3298 67.5446 77.2101 66.6667 75 66.6667M83.3333 75H87.5M50 12.5V87.5" stroke="#E42652" stroke-width="3" stroke-linecap="round" stroke-linejoin="round"/>
</svg>
