<svg width="100" height="100" viewBox="0 0 100 100" fill="none" xmlns="http://www.w3.org/2000/svg">
<path d="M33.3334 20.8333H25.0001C22.7899 20.8333 20.6703 21.7113 19.1075 23.2741C17.5447 24.8369 16.6667 26.9565 16.6667 29.1667V79.1667C16.6667 81.3768 17.5447 83.4964 19.1075 85.0592C20.6703 86.622 22.7899 87.5 25.0001 87.5H48.7376M33.3334 20.8333C33.3334 18.6232 34.2114 16.5036 35.7742 14.9408C37.337 13.378 39.4566 12.5 41.6667 12.5H50.0001C52.2102 12.5 54.3298 13.378 55.8926 14.9408C57.4554 16.5036 58.3334 18.6232 58.3334 20.8333M33.3334 20.8333C33.3334 23.0435 34.2114 25.1631 35.7742 26.7259C37.337 28.2887 39.4566 29.1667 41.6667 29.1667H50.0001C52.2102 29.1667 54.3298 28.2887 55.8926 26.7259C57.4554 25.1631 58.3334 23.0435 58.3334 20.8333M75.0001 50V29.1667C75.0001 26.9565 74.1221 24.8369 72.5593 23.2741C70.9965 21.7113 68.8769 20.8333 66.6668 20.8333H58.3334M33.3334 45.8333H50.0001M33.3334 62.5H45.8334M77.0834 81.25L87.5001 91.6667M58.3334 72.9167C58.3334 75.6793 59.4309 78.3289 61.3844 80.2824C63.3379 82.2359 65.9874 83.3333 68.7501 83.3333C71.5128 83.3333 74.1623 82.2359 76.1158 80.2824C78.0693 78.3289 79.1668 75.6793 79.1668 72.9167C79.1668 70.154 78.0693 67.5045 76.1158 65.551C74.1623 63.5975 71.5128 62.5 68.7501 62.5C65.9874 62.5 63.3379 63.5975 61.3844 65.551C59.4309 67.5045 58.3334 70.154 58.3334 72.9167Z" stroke="#E42652" stroke-width="3" stroke-linecap="round" stroke-linejoin="round"/>
</svg>
