<svg width="100" height="100" viewBox="0 0 100 100" fill="none" xmlns="http://www.w3.org/2000/svg">
<path d="M29.1667 83.3333H70.8333M37.5 66.6667V83.3333M62.5 66.6667V83.3333M33.3333 50L45.8333 37.5L54.1667 45.8333L66.6667 33.3333M12.5 20.8333C12.5 19.7283 12.939 18.6685 13.7204 17.8871C14.5018 17.1057 15.5616 16.6667 16.6667 16.6667H83.3333C84.4384 16.6667 85.4982 17.1057 86.2796 17.8871C87.061 18.6685 87.5 19.7283 87.5 20.8333V62.5C87.5 63.6051 87.061 64.6649 86.2796 65.4463C85.4982 66.2277 84.4384 66.6667 83.3333 66.6667H16.6667C15.5616 66.6667 14.5018 66.2277 13.7204 65.4463C12.939 64.6649 12.5 63.6051 12.5 62.5V20.8333Z" stroke="#E42652" stroke-width="3" stroke-linecap="round" stroke-linejoin="round"/>
</svg>
