<svg xmlns="http://www.w3.org/2000/svg" xml:space="preserve" width="450" height="185" style="shape-rendering:geometricPrecision;text-rendering:geometricPrecision;image-rendering:optimizeQuality;fill-rule:evenodd;clip-rule:evenodd" viewBox="0 0 64 26.3"><defs><style>.fil0{fill:#e31e24}.fil1{fill:#393185;fill-rule:nonzero}</style></defs><g id="Слой_x0020_1"><g id="_2740333281456"><path class="fil0" d="M32.24 14.6h3.45v-.61s-2.29-.12-2.4-2.46v-.96c.01-.56.42-2.05 1.6-2.16-.96-.17-1.63-1.17-1.6-2.15V5.19c.05-2.71 3.12-2.69 3.27-2.69h.06c2.63 0 2.9 2.11 2.91 2.24h.58L39.9.81 39.83 0h-.4s-.21.69-1.75.69c-3.8 0-7.62.01-11.42.01-1.54 0-1.75-.7-1.75-.7h-.4l-.06.81-.22 3.93h.59c0-.13.27-2.24 2.9-2.24h.06c.15 0 3.22-.02 3.27 2.69 0 .83.01 1.07.01 1.07.02.98-.66 1.98-1.61 2.15 1.18.11 1.59 1.6 1.6 2.16l.01.96c-.12 2.34-2.42 2.46-2.42 2.46v.61h4z"/><path class="fil0" d="M41.75 8.41c-.29-.46-1.47-.64-1.81-.58.3-.42.34-1.16.17-1.63-.19-.56-.54-.65-.58-.08-.08 1.07-1.06 1.74-2.24 1.62-.86-.09-1.32-.69-1.43-1.3-.1-.61.05-1.23.74-1.4.57-.13.94.18.97.56.03.6-.48.38-.56.77-.07.3.18.54.41.55 1.1.03 1.41-.98 1.27-1.66-.15-.72-.71-1.53-1.91-1.56-1.19-.03-2.34.77-2.34 2.41 0 1.64 1.31 2.3 1.31 2.3s-1.31.67-1.31 2.31c0 1.64 1.15 2.44 2.34 2.41 1.2-.03 1.76-.84 1.91-1.56.14-.68-.17-1.7-1.27-1.66-.23.01-.48.25-.41.55.08.39.59.17.56.77-.03.38-.4.7-.97.56-.69-.17-.84-.79-.74-1.4.11-.61.57-1.21 1.43-1.3 1.18-.12 2.16.55 2.24 1.62.04.57.39.48.58-.07.17-.48.13-1.22-.17-1.64.34.06 1.52-.13 1.81-.59zM22.25 8.41c.29-.46 1.48-.64 1.81-.58-.3-.42-.33-1.16-.17-1.63.19-.56.54-.65.58-.08.08 1.07 1.07 1.74 2.24 1.62.87-.09 1.32-.69 1.43-1.3.1-.61-.05-1.23-.74-1.4-.56-.13-.94.18-.96.56-.04.6.48.38.56.77.06.3-.19.54-.42.55-1.09.03-1.4-.98-1.26-1.66.15-.72.7-1.53 1.91-1.57 1.19-.02 2.33.78 2.33 2.42s-1.31 2.3-1.31 2.3 1.31.67 1.31 2.31c0 1.63-1.14 2.44-2.34 2.41-1.2-.03-1.76-.84-1.9-1.56-.14-.68.17-1.7 1.26-1.66.23.01.48.25.42.55-.08.39-.6.17-.56.77.02.38.4.7.96.56.69-.17.84-.79.74-1.4-.11-.61-.56-1.21-1.42-1.3-1.18-.12-2.17.55-2.25 1.62-.04.57-.39.48-.58-.08-.16-.47-.13-1.21.17-1.63-.33.06-1.52-.13-1.81-.59z"/><path class="fil1" d="M5.63 17.1c.91 0 2-.03 2.39-.05v2.24c-.39-.03-1.48-.07-2.39-.07h-.31c-.01.49-.01 1.14-.01 1.69v2.86c0 .89.03 1.95.07 2.36H2.65c.03-.41.07-1.47.07-2.36v-2.86c0-.55-.02-1.2-.05-1.69h-.3c-.89 0-1.98.04-2.37.07v-2.24c.39.02 1.48.05 2.37.05h3.26zM13.67 24.13C15 24.13 16 23 16 21.61c0-1.4-1-2.52-2.33-2.52s-2.32 1.12-2.32 2.52c0 1.39.99 2.52 2.32 2.52zm0-7.2c2.83 0 4.93 2.1 4.93 4.68 0 2.59-2.1 4.69-4.93 4.69-2.82 0-4.92-2.09-4.92-4.69 0-2.59 2.1-4.68 4.92-4.68zM24.27 15.39c.47 0 .76-.28.76-.62H27c0 1.16-.99 1.99-2.73 1.99-1.71 0-2.69-.83-2.69-1.99h1.95c0 .34.28.62.74.62zm1.04 6.4-2.95 2.68c-.49.43-1.26 1.21-1.83 1.82h-.64c.06-.77.07-1.59.07-2.14v-4.69c0-.73-.04-1.78-.07-2.36h2.7c-.03.55-.06 1.61-.06 2.36v1.79l3.2-2.84c.5-.44.88-.82 1.53-1.48h.67c-.02.71-.05 1.82-.05 2.62v4.67c0 .7.03 1.54.05 1.91h-2.67c.02-.37.05-1.21.05-1.9v-2.44zM32.36 24.3h.79c.7 0 .95-.47.95-.9 0-.44-.25-.92-.95-.92h-.79v1.82zm.58-7.2c1.26 0 1.64 0 2.89-.06v1.97c-1.12-.06-1.69-.06-2.95-.05h-.52v1.7h1.45c1.77 0 2.88 1.08 2.88 2.62-.01 1.67-1.11 2.85-3.06 2.85h-3.92c.04-.41.07-1.47.07-2.36v-4.3c0-.76-.02-1.54-.05-2.37h3.21zM42.68 24.13c1.33 0 2.33-1.13 2.33-2.52 0-1.4-1-2.52-2.33-2.52-1.34 0-2.32 1.12-2.32 2.52 0 1.39.98 2.52 2.32 2.52zm0-7.2c2.83 0 4.92 2.09 4.92 4.68s-2.09 4.69-4.92 4.69c-2.82 0-4.92-2.1-4.92-4.69 0-2.58 2.1-4.68 4.92-4.68zM53.75 24.06c.76 0 1.51-.24 2.05-.76l.01 2.76c-.75.04-1.08.23-2.3.23-2.87 0-4.8-2.1-4.8-4.69 0-2.59 1.93-4.69 4.8-4.68 1.2 0 1.53.19 2.19.19v2.86a2.79 2.79 0 0 0-1.98-.81c-1.39 0-2.43 1.08-2.43 2.44 0 1.35 1.04 2.46 2.46 2.46zM61.95 24.06c.76 0 1.51-.24 2.05-.76v2.76c-.75.04-1.08.23-2.29.23-2.87 0-4.8-2.1-4.8-4.69 0-2.59 1.93-4.69 4.8-4.68 1.2 0 1.53.19 2.19.19v2.86a2.79 2.79 0 0 0-1.98-.81c-1.4-.01-2.44 1.08-2.44 2.44 0 1.35 1.04 2.46 2.47 2.46z"/></g></g></svg>