<?xml version="1.0" standalone="no"?>
<!DOCTYPE svg PUBLIC "-//W3C//DTD SVG 20010904//EN"
 "http://www.w3.org/TR/2001/REC-SVG-20010904/DTD/svg10.dtd">
<svg version="1.0" xmlns="http://www.w3.org/2000/svg"
 width="439.000000pt" height="198.000000pt" viewBox="0 0 439.000000 198.000000"
 preserveAspectRatio="xMidYMid meet">

<g transform="translate(0.000000,198.000000) scale(0.100000,-0.100000)"
fill="#FFFFFF" stroke="none">
<path d="M106 1231 c-11 -17 -96 -224 -96 -232 0 -5 18 -9 40 -9 34 0 41 4 46
25 6 22 11 25 55 25 43 0 51 -3 61 -25 9 -20 18 -25 50 -25 21 0 38 2 38 5 0
6 -70 173 -90 218 -11 23 -19 27 -56 27 -24 0 -45 -4 -48 -9z m68 -108 c6 -20
4 -23 -18 -23 -29 0 -31 6 -15 47 11 30 19 24 33 -24z"/>
<path d="M327 1128 c25 -62 50 -119 56 -125 5 -7 27 -13 48 -13 44 0 55 12 88
98 12 28 30 75 41 102 l20 50 -43 0 -43 0 -28 -85 c-15 -47 -31 -85 -35 -85
-4 0 -20 38 -36 85 l-30 85 -42 0 -42 0 46 -112z"/>
<path d="M590 1115 l0 -125 40 0 40 0 0 125 0 125 -40 0 -40 0 0 -125z"/>
<path d="M776 1208 c-8 -18 -30 -71 -50 -118 -20 -46 -36 -88 -36 -92 0 -4 18
-8 40 -8 34 0 41 4 46 25 6 23 11 25 59 25 48 0 53 -2 59 -25 6 -22 12 -25 47
-25 47 0 48 -9 -15 143 l-43 102 -47 3 c-44 3 -47 2 -60 -30z m78 -85 c6 -20
4 -23 -18 -23 -30 0 -29 -2 -15 40 12 34 19 30 33 -17z"/>
<path d="M1028 1215 c-5 -24 -3 -25 38 -25 24 0 44 -3 44 -7 0 -5 -9 -45 -20
-91 -11 -46 -20 -87 -20 -93 0 -5 15 -9 33 -9 l32 0 25 98 25 97 46 3 c41 3
47 6 52 28 l4 24 -127 0 -128 0 -4 -25z"/>
<path d="M1320 1225 c-7 -8 -25 -64 -40 -125 l-28 -110 38 0 37 0 18 86 c20
94 33 114 73 114 36 0 55 -13 50 -35 -3 -20 -21 -31 -59 -39 -38 -8 -42 -30
-17 -81 21 -43 24 -45 66 -45 l44 0 -26 34 c-31 41 -32 46 -8 46 26 0 58 38
71 85 14 51 14 51 -5 69 -22 22 -196 23 -214 1z"/>
<path d="M1679 1228 c-16 -13 -159 -222 -159 -233 0 -3 15 -5 33 -5 25 0 39 7
56 31 20 27 27 30 69 27 43 -3 47 -5 50 -30 3 -25 7 -28 41 -28 l38 0 -21 123
-21 122 -35 3 c-19 2 -42 -3 -51 -10z m35 -80 c12 -47 8 -58 -24 -58 -35 0
-36 7 -12 49 20 37 28 38 36 9z"/>
<path d="M1897 1228 c-13 -10 -67 -198 -67 -233 0 -3 15 -5 34 -5 32 0 35 2
46 50 l12 49 55 3 c47 3 57 6 64 26 8 21 6 22 -47 22 -52 0 -55 1 -52 23 3 20
9 22 78 25 72 3 89 11 90 40 0 9 -26 12 -98 12 -63 0 -104 -4 -115 -12z"/>
<path d="M2148 1223 c-8 -10 -25 -58 -37 -108 -12 -49 -24 -98 -27 -108 -5
-16 -1 -18 32 -15 36 3 39 5 49 48 l11 45 57 3 c31 2 57 7 57 12 0 4 3 15 6
24 5 13 -3 16 -50 16 -39 0 -56 4 -56 13 0 27 25 37 96 37 69 0 72 1 76 25 l5
25 -102 0 c-85 0 -104 -3 -117 -17z"/>
<path d="M2367 1122 c-15 -64 -27 -120 -27 -124 0 -5 15 -8 34 -8 l34 0 28
118 c14 64 29 120 31 125 2 4 -13 7 -34 7 l-38 0 -28 -118z"/>
<path d="M2550 1222 c-41 -20 -68 -70 -76 -139 -8 -72 5 -85 100 -91 81 -5 95
1 96 40 0 14 -11 18 -57 20 -55 3 -58 4 -61 32 -5 40 17 86 45 97 13 5 44 9
67 9 39 0 44 3 48 25 5 25 4 25 -61 25 -43 0 -78 -6 -101 -18z"/>
<path d="M2875 1228 c-6 -19 -35 -135 -35 -142 0 -3 314 -6 698 -6 l698 0 45
48 c24 26 57 62 74 80 l29 32 -752 0 c-593 0 -754 -3 -757 -12z"/>
<path d="M2821 1008 c-6 -29 -14 -63 -17 -75 l-6 -23 639 0 639 0 50 53 c27
28 58 62 68 75 l19 22 -690 0 -690 0 -12 -52z"/>
<path d="M17 842 c-19 -21 -22 -54 -7 -83 9 -15 20 -19 58 -17 43 1 44 2 10 5
-43 5 -63 31 -54 69 5 20 13 24 41 24 19 0 35 5 35 10 0 18 -66 11 -83 -8z"/>
<path d="M142 848 c-14 -14 -16 -76 -3 -96 5 -9 25 -12 57 -10 l49 3 3 43 c2
24 -2 50 -9 58 -14 17 -80 19 -97 2z m79 -8 c5 0 9 -18 9 -40 0 -45 -14 -56
-55 -46 -21 5 -25 12 -25 41 0 35 23 59 48 50 8 -3 18 -5 23 -5z"/>
<path d="M280 800 c0 -33 4 -60 10 -60 6 0 10 21 10 46 0 53 11 51 30 -6 17
-52 39 -49 60 7 23 61 30 62 30 5 0 -30 5 -52 10 -52 7 0 10 22 8 57 -2 44 -7
59 -19 61 -12 2 -22 -11 -35 -47 -10 -28 -21 -51 -25 -51 -4 0 -15 23 -24 50
-12 37 -22 50 -36 50 -17 0 -19 -8 -19 -60z"/>
<path d="M470 800 c0 -33 4 -60 10 -60 6 0 10 9 10 20 0 16 7 20 34 20 41 0
60 21 52 55 -6 23 -11 25 -56 25 l-50 0 0 -60z m85 20 c0 -10 -12 -16 -32 -18
-28 -3 -33 0 -33 18 0 18 5 21 33 18 20 -2 32 -8 32 -18z"/>
<path d="M615 823 c-32 -74 -35 -83 -24 -83 5 0 12 7 15 15 4 9 19 15 39 15
20 0 35 -6 39 -15 3 -8 10 -15 15 -15 16 0 -36 115 -53 118 -10 2 -21 -10 -31
-35z m55 -35 c0 -5 -11 -8 -25 -8 -29 0 -29 -1 -14 37 l11 28 13 -25 c8 -14
14 -28 15 -32z"/>
<path d="M727 853 c-4 -3 -7 -30 -7 -60 0 -42 3 -53 16 -53 13 0 15 9 12 45
-2 25 -1 45 2 45 3 0 17 -20 32 -45 40 -65 58 -60 58 15 0 71 -18 81 -22 13
l-3 -48 -28 48 c-26 44 -44 56 -60 40z"/>
<path d="M866 848 c4 -7 16 -25 26 -40 10 -14 18 -36 18 -47 0 -12 5 -21 10
-21 6 0 10 7 10 15 0 9 11 33 25 55 28 44 30 50 15 50 -5 0 -16 -13 -25 -30
-19 -37 -26 -37 -47 0 -9 17 -22 30 -28 30 -6 0 -8 -6 -4 -12z"/>
</g>
</svg>
