<svg width="270" height="108" viewBox="0 0 270 108" fill="none" xmlns="http://www.w3.org/2000/svg">
<g clip-path="url(#clip0)">
<path d="M55.5167 0.814092C27.9513 -7.6304 7.88542 51.5658 0 68.6074C9.68061 73.6945 13.9589 66.6574 20.6195 60.0103C30.1659 50.4975 39.0748 51.2267 51.0371 56.4663C60.7848 60.7734 77.7636 71.8631 81.052 54.7707C84.2901 38.0343 72.9988 6.10462 55.5167 0.746265V0.814092ZM63.5699 38.8143C63.367 39.0451 63.1422 39.2552 62.8988 39.4417C62.0599 40.1761 61.0677 40.7094 59.9963 41.0017H59.8788C58.9344 41.2334 57.9547 41.2795 56.9931 41.1374C55.8466 40.9466 54.749 40.5276 53.764 39.9047C52.779 39.2818 51.9263 38.4673 51.2552 37.5086C49.1107 34.6717 47.7605 31.304 47.3461 27.7585C46.9707 25.6448 47.0972 23.4712 47.7152 21.4166C48.0372 20.1582 48.8236 19.0722 49.913 18.3813C50.5015 18.0594 51.1492 17.8631 51.8159 17.8048C52.4827 17.7465 53.1541 17.8273 53.7886 18.0422C55.4951 18.5439 57.0745 19.4114 58.4192 20.5857C60.0632 21.967 61.4791 23.604 62.6136 25.4354C64.0549 27.4463 65.014 29.7683 65.4154 32.2181C65.6496 33.4159 65.6047 34.6523 65.2844 35.8295C64.9641 37.0068 64.3771 38.0925 63.5699 39.0008" fill="#154F40"/>
<path d="M120.177 23.7395H113.466L111.956 27.8939H107.963L114.825 10.1741H118.801L125.663 27.8092H121.67L120.177 23.7395ZM118.935 20.4669L116.805 14.6676L114.691 20.4499L118.935 20.4669Z" fill="#154F40"/>
<path d="M143.213 22.7221C143.205 22.4257 143.12 22.1367 142.967 21.8838C142.814 21.6309 142.598 21.423 142.34 21.2808C141.664 20.872 140.936 20.5582 140.176 20.3482C139.337 20.1108 138.498 19.8225 137.659 19.5003C136.799 19.1517 136.055 18.5638 135.512 17.8046C134.892 16.9847 134.577 15.9701 134.623 14.9389C134.614 14.2431 134.761 13.5542 135.051 12.9231C135.342 12.2921 135.769 11.7351 136.3 11.2932C137.529 10.2442 139.106 9.70488 140.713 9.78406C141.42 9.82569 142.119 9.95671 142.793 10.1741C143.375 10.2904 143.94 10.4843 144.471 10.7506C144.861 10.9556 145.237 11.1879 145.595 11.4458C145.848 11.6209 146.079 11.8258 146.283 12.0563L146.501 12.2937L144.287 14.6676L143.884 14.2437C143.541 13.977 143.169 13.7496 142.777 13.5654C142.253 13.3083 141.681 13.1695 141.099 13.1585C140.494 13.1337 139.899 13.3259 139.421 13.7011C139.221 13.8608 139.06 14.0644 138.949 14.2965C138.839 14.5286 138.782 14.7831 138.784 15.0407C138.784 15.3365 138.866 15.6265 139.02 15.878C139.174 16.1296 139.394 16.3328 139.656 16.465C140.329 16.8592 141.052 17.1614 141.803 17.3638C142.642 17.6181 143.481 17.9064 144.337 18.2286C145.197 18.5771 145.942 19.1651 146.484 19.9242C147.107 20.7428 147.423 21.7584 147.374 22.7899C147.401 23.538 147.265 24.283 146.975 24.9718C146.685 25.6606 146.248 26.2763 145.696 26.7748C144.326 27.8827 142.599 28.4384 140.847 28.3348C140.054 28.3368 139.265 28.2342 138.498 28.0296C137.844 27.8674 137.213 27.6225 136.619 27.3004C136.168 27.0516 135.736 26.7682 135.327 26.4526C135.036 26.2427 134.767 26.0042 134.522 25.7404L134.002 25.4352L136.25 23.163C136.403 23.3416 136.565 23.5114 136.737 23.6717C137.154 24.0179 137.617 24.3033 138.112 24.5195C138.806 24.8658 139.57 25.0457 140.344 25.0452C141.102 25.0903 141.851 24.8619 142.458 24.4008C142.697 24.2087 142.89 23.9635 143.021 23.6842C143.152 23.4049 143.217 23.0989 143.213 22.7899" fill="#154F40"/>
<path d="M165.627 22.7221C165.619 22.4257 165.534 22.1367 165.381 21.8838C165.228 21.6309 165.012 21.423 164.755 21.2808C164.079 20.872 163.351 20.5582 162.591 20.3481C161.752 20.1108 160.913 19.8225 160.074 19.5003C159.214 19.1517 158.469 18.5638 157.926 17.8046C157.306 16.9847 156.991 15.9701 157.037 14.9389C157.029 14.243 157.175 13.5542 157.466 12.9231C157.756 12.2921 158.183 11.7351 158.715 11.2932C159.944 10.2442 161.521 9.70488 163.127 9.78406C163.834 9.82569 164.533 9.95671 165.208 10.1741C165.789 10.2953 166.352 10.489 166.886 10.7506C167.268 10.9593 167.638 11.1915 167.993 11.4458C168.245 11.6209 168.476 11.8258 168.681 12.0563L168.899 12.2937L166.634 14.6676L166.231 14.2437C165.888 13.977 165.517 13.7496 165.124 13.5654C164.601 13.3062 164.028 13.1673 163.446 13.1585C162.841 13.1337 162.247 13.3259 161.769 13.7011C161.569 13.8608 161.407 14.0644 161.297 14.2965C161.186 14.5286 161.13 14.7831 161.131 15.0407C161.131 15.3365 161.213 15.6265 161.367 15.878C161.521 16.1296 161.742 16.3328 162.003 16.465C162.677 16.8592 163.399 17.1614 164.151 17.3638C164.99 17.6181 165.829 17.9064 166.684 18.2285C167.544 18.5771 168.289 19.1651 168.832 19.9242C169.455 20.7428 169.77 21.7584 169.721 22.7899C169.749 23.538 169.613 24.283 169.323 24.9718C169.033 25.6606 168.596 26.2762 168.043 26.7748C166.666 27.8809 164.934 28.4362 163.178 28.3348C162.385 28.3368 161.595 28.2342 160.829 28.0296C160.179 27.8708 159.553 27.6256 158.967 27.3004C158.508 27.0553 158.07 26.7716 157.658 26.4526C157.368 26.248 157.103 26.0089 156.869 25.7404L156.417 25.4352L158.665 23.163C158.817 23.3416 158.98 23.5114 159.151 23.6717C159.568 24.0179 160.031 24.3033 160.527 24.5195C161.221 24.8658 161.984 25.0457 162.758 25.0452C163.516 25.0903 164.265 24.8619 164.872 24.4008C165.112 24.2087 165.304 23.9635 165.435 23.6842C165.566 23.4049 165.632 23.0989 165.627 22.7899" fill="#154F40"/>
<path d="M182.187 25.5709C181.32 24.7311 180.636 23.7188 180.177 22.598C179.718 21.4772 179.494 20.2723 179.519 19.0595C179.503 17.8442 179.737 16.6389 180.208 15.5206C180.679 14.4023 181.376 13.3956 182.254 12.565C184.078 10.8536 186.475 9.90247 188.965 9.90247C191.454 9.90247 193.851 10.8536 195.676 12.565C196.556 13.3948 197.255 14.4009 197.729 15.5191C198.203 16.6373 198.44 17.8431 198.427 19.0595C198.441 20.2784 198.203 21.4868 197.729 22.6078C197.256 23.7288 196.556 24.7379 195.676 25.5709C193.857 27.2935 191.457 28.2521 188.965 28.2521C186.472 28.2521 184.073 27.2935 182.254 25.5709H182.187ZM185.022 14.9559C184.48 15.4918 184.052 16.1335 183.764 16.8419C183.476 17.5502 183.333 18.3105 183.344 19.0764C183.333 19.8398 183.476 20.5974 183.765 21.303C184.053 22.0086 184.481 22.6473 185.022 23.18C185.528 23.7265 186.142 24.1597 186.824 24.4518C187.506 24.7438 188.241 24.8882 188.981 24.8757C189.724 24.8864 190.461 24.7413 191.146 24.4494C191.83 24.1575 192.447 23.7253 192.958 23.18C193.5 22.6479 193.928 22.0093 194.217 21.3036C194.505 20.5979 194.648 19.8399 194.635 19.0764C194.647 18.3105 194.504 17.5502 194.216 16.8419C193.927 16.1335 193.499 15.4918 192.958 14.9559C192.447 14.4106 191.83 13.9784 191.146 13.6865C190.461 13.3946 189.724 13.2495 188.981 13.2602C188.241 13.2477 187.506 13.3921 186.824 13.6841C186.142 13.9762 185.528 14.4094 185.022 14.9559Z" fill="#154F40"/>
<path d="M209.35 27.877V10.174H217.067C217.859 10.1501 218.648 10.288 219.386 10.5793C220.124 10.8707 220.796 11.3096 221.362 11.8697C221.908 12.4026 222.339 13.0437 222.627 13.7527C222.916 14.4618 223.057 15.2236 223.04 15.9902C223.049 16.6667 222.935 17.3391 222.705 17.9742C222.529 18.5055 222.269 19.004 221.933 19.4494C221.67 19.8121 221.366 20.1422 221.027 20.4329C220.796 20.6572 220.529 20.8407 220.238 20.9755L219.919 21.1621L223.661 27.8261H219.668L216.312 21.6538H213.074V27.8261L209.35 27.877ZM219.315 16.0072C219.325 15.6907 219.27 15.3756 219.154 15.0812C219.039 14.7869 218.865 14.5196 218.643 14.2957C218.422 14.0718 218.157 13.896 217.866 13.7791C217.575 13.6623 217.263 13.6069 216.95 13.6163H213.074V18.3133H216.933C217.242 18.321 217.55 18.2665 217.838 18.1529C218.126 18.0394 218.388 17.8691 218.611 17.652C218.83 17.4471 219.003 17.1975 219.118 16.9197C219.234 16.6419 219.29 16.3424 219.282 16.0411" fill="#154F40"/>
<path d="M232.267 10.2419H245.975V13.6502H240.992V27.877H237.267V13.6502H232.267V10.2419Z" fill="#154F40"/>
<path d="M259.933 10.2419H256.192V27.877H259.933V10.2419Z" fill="#154F40"/>
<path d="M109.943 40.4589H117.308C118.123 40.4317 118.936 40.5675 119.699 40.8584C120.462 41.1494 121.16 41.5899 121.754 42.1546C122.323 42.7011 122.775 43.3586 123.085 44.0874C123.394 44.8161 123.554 45.6008 123.554 46.3938C123.554 47.1868 123.394 47.9715 123.085 48.7002C122.775 49.429 122.323 50.0865 121.754 50.633C121.158 51.199 120.456 51.6401 119.69 51.9311C118.924 52.2222 118.109 52.3573 117.291 52.3287H113.701V58.111H109.943V40.4589ZM117.174 43.8503H113.701V48.9373H117.174C117.533 48.954 117.892 48.8947 118.227 48.7633C118.562 48.6319 118.866 48.4313 119.12 48.1743C119.355 47.9422 119.541 47.6652 119.668 47.3594C119.795 47.0537 119.86 46.7254 119.86 46.3938C119.86 46.0622 119.795 45.7339 119.668 45.4282C119.541 45.1224 119.355 44.8454 119.12 44.6133C118.872 44.3687 118.578 44.1766 118.255 44.0485C117.932 43.9203 117.588 43.8587 117.241 43.8672" fill="#154F40"/>
<path d="M134.354 58.094V40.4589H142.088C142.88 40.436 143.669 40.5743 144.406 40.8656C145.144 41.1569 145.817 41.5953 146.383 42.1546C146.929 42.6874 147.36 43.3285 147.648 44.0376C147.937 44.7467 148.078 45.5085 148.061 46.2751C148.065 46.9511 147.951 47.6226 147.726 48.2591C147.548 48.7946 147.288 49.2982 146.954 49.7513C146.677 50.0969 146.375 50.4201 146.048 50.7178C145.817 50.9421 145.551 51.1256 145.259 51.2604L144.941 51.4469L148.682 58.111H144.706L141.35 51.9387H138.112V58.111L134.354 58.094ZM144.421 46.2242C144.429 45.9103 144.374 45.598 144.258 45.3064C144.143 45.0148 143.97 44.7501 143.749 44.5286C143.301 44.087 142.698 43.8431 142.072 43.8503H138.213V48.5134H142.072C142.381 48.5201 142.688 48.4652 142.976 48.3517C143.264 48.2382 143.527 48.0685 143.749 47.8521C143.969 47.6479 144.143 47.3984 144.258 47.1205C144.374 46.8425 144.429 46.5426 144.421 46.2412" fill="#154F40"/>
<path d="M161.282 55.7879C160.412 54.9501 159.719 53.9425 159.246 52.8262C158.773 51.7098 158.529 50.5079 158.529 49.2934C158.529 48.0789 158.773 46.8771 159.246 45.7607C159.719 44.6443 160.412 43.6367 161.282 42.799C162.164 41.9166 163.213 41.2231 164.366 40.7598C165.519 40.2966 166.752 40.0731 167.993 40.1028C169.233 40.0789 170.465 40.305 171.617 40.7679C172.769 41.2308 173.819 41.9213 174.704 42.799C175.57 43.6392 176.259 44.6476 176.729 45.7637C177.2 46.8797 177.442 48.0803 177.442 49.2934C177.442 50.5066 177.2 51.7072 176.729 52.8232C176.259 53.9392 175.57 54.9476 174.704 55.7879C173.819 56.6655 172.769 57.356 171.617 57.819C170.465 58.2819 169.233 58.508 167.993 58.484C166.752 58.5138 165.519 58.2903 164.366 57.827C163.213 57.3638 162.164 56.6702 161.282 55.7879ZM164.033 45.1729C163.492 45.7088 163.064 46.3505 162.775 47.0588C162.487 47.7672 162.344 48.5275 162.356 49.2934C162.344 50.0569 162.486 50.8149 162.775 51.5206C163.063 52.2263 163.492 52.8649 164.033 53.397C164.552 53.9286 165.169 54.3508 165.851 54.639C166.532 54.9272 167.263 55.0756 168.001 55.0756C168.74 55.0756 169.471 54.9272 170.152 54.639C170.833 54.3508 171.451 53.9286 171.969 53.397C172.512 52.8655 172.941 52.227 173.229 51.5212C173.518 50.8153 173.66 50.0571 173.647 49.2934C173.658 48.5275 173.516 47.7672 173.227 47.0588C172.939 46.3505 172.511 45.7088 171.969 45.1729C171.451 44.6413 170.833 44.2191 170.152 43.9309C169.471 43.6427 168.74 43.4943 168.001 43.4943C167.263 43.4943 166.532 43.6427 165.851 43.9309C165.169 44.2191 164.552 44.6413 164.033 45.1729Z" fill="#154F40"/>
<path d="M192.169 40.4589H195.911V52.4304C195.94 53.2366 195.806 54.0404 195.518 54.7925C195.229 55.5447 194.792 56.2296 194.233 56.8053C193.646 57.375 192.951 57.8188 192.19 58.1102C191.429 58.4016 190.617 58.5345 189.804 58.501C188.947 58.5048 188.099 58.3197 187.321 57.9584C186.697 57.7182 186.127 57.3551 185.643 56.8901L185.14 56.3644L187.371 54.0752C187.444 54.1807 187.528 54.2774 187.623 54.3635C187.834 54.5581 188.079 54.7131 188.344 54.8213C188.704 55.0027 189.1 55.0956 189.502 55.0927C189.85 55.1096 190.198 55.057 190.527 54.9377C190.855 54.8184 191.157 54.6348 191.414 54.3974C191.657 54.1378 191.844 53.831 191.965 53.4957C192.086 53.1604 192.139 52.8038 192.119 52.4474L192.169 40.4589Z" fill="#154F40"/>
<path d="M211.48 54.7026H220.825V58.094H207.722V40.4589H220.557V43.8672H211.48V47.3943H218.56V50.8026H211.48V54.7026Z" fill="#154F40"/>
<path d="M240.237 40.1028C241.121 40.0975 242.002 40.2174 242.854 40.4589C243.573 40.6559 244.262 40.9526 244.901 41.3407C245.388 41.661 245.858 42.0063 246.31 42.375C246.638 42.6288 246.932 42.9253 247.183 43.2568L247.468 43.6129L245.102 46.0038C245.048 45.9329 244.998 45.8593 244.951 45.7834C244.773 45.5686 244.583 45.3648 244.381 45.1729C244.083 44.8911 243.757 44.6411 243.408 44.4268C242.975 44.1688 242.513 43.9639 242.032 43.8164C241.49 43.6398 240.924 43.5483 240.354 43.5451C239.221 43.5533 238.115 43.8986 237.174 44.538C236.234 45.1774 235.5 46.0825 235.066 47.1404C234.631 48.1984 234.514 49.3623 234.729 50.487C234.945 51.6117 235.483 52.6474 236.277 53.4648C236.806 54.0146 237.44 54.4488 238.142 54.7405C238.843 55.0322 239.596 55.1751 240.354 55.1605C240.973 55.1628 241.588 55.0772 242.183 54.9061C242.682 54.7568 243.161 54.5461 243.609 54.2787C243.964 54.0504 244.306 53.8013 244.633 53.5326C244.865 53.3451 245.078 53.1349 245.27 52.9052L245.455 52.6339L247.703 55.0418L247.418 55.4318C247.267 55.5844 246.981 55.8727 246.528 56.2796C246.07 56.6806 245.575 57.0382 245.052 57.3479C244.398 57.705 243.706 57.9838 242.988 58.1788C242.134 58.4375 241.246 58.5689 240.354 58.5688C239.114 58.5947 237.882 58.3695 236.729 57.9064C235.577 57.4434 234.527 56.7519 233.643 55.8727C232.773 55.0349 232.081 54.0273 231.607 52.911C231.134 51.7946 230.89 50.5927 230.89 49.3782C230.89 48.1637 231.134 46.9618 231.607 45.8455C232.081 44.7291 232.773 43.7215 233.643 42.8838C234.527 42.0045 235.577 41.313 236.729 40.85C237.882 40.387 239.114 40.1617 240.354 40.1876" fill="#154F40"/>
<path d="M256.31 40.4589H270V43.8672H265.034V58.094H261.292V43.8672H256.31V40.4589Z" fill="#154F40"/>
</g>
<path d="M2.74365 106.196H4.93422V103.573H6.04224C7.8762 103.573 9.28988 102.383 9.28988 100.656C9.28988 98.9029 7.91441 97.7514 6.04224 97.7514H2.74365V106.196ZM4.93422 101.654V99.6706H6.05497C6.66629 99.6706 7.06111 100.054 7.06111 100.656C7.06111 101.257 6.66629 101.654 6.05497 101.654H4.93422Z" fill="#FFFFFF"/>
<path d="M15.8924 106.196H21.8783V104.213H18.083V102.741H20.6811V100.899H18.083V99.7346H21.7254V97.7514H15.8924V106.196Z" fill="#FFFFFF"/>
<path d="M27.9739 101.974C27.9229 104.417 30.0371 106.388 32.5078 106.349C34.2017 106.349 35.6026 105.518 36.3668 104.085L34.6984 102.946C34.1508 103.867 33.4248 104.328 32.5078 104.328C31.8328 104.328 31.2852 104.11 30.8522 103.688C30.4319 103.253 30.2154 102.69 30.2154 101.986C30.2154 100.566 31.1706 99.6194 32.5078 99.6194C33.4248 99.6194 34.1508 100.08 34.6984 101.001L36.3668 99.8625C35.6026 98.4295 34.2017 97.5979 32.5206 97.5979C30.0243 97.5467 27.9357 99.5555 27.9739 101.974Z" fill="#FFFFFF"/>
<path d="M44.8318 106.196H47.0223V99.7346H49.544V97.7514H42.3101V99.7346H44.8318V106.196Z" fill="#FFFFFF"/>
<path d="M55.3659 101.974C55.3149 104.417 57.4291 106.388 59.8871 106.349C62.3324 106.388 64.4848 104.417 64.4338 101.974C64.4848 99.5555 62.3324 97.5467 59.8871 97.5979C57.4291 97.5467 55.3149 99.5555 55.3659 101.974ZM62.1923 101.974C62.1923 103.381 61.1989 104.328 59.8999 104.328C59.2249 104.328 58.6645 104.11 58.2442 103.688C57.8239 103.253 57.6074 102.677 57.6074 101.974C57.6074 100.579 58.5499 99.6194 59.8999 99.6194C61.1989 99.6194 62.1923 100.579 62.1923 101.974Z" fill="#FFFFFF"/>
<path d="M71.0993 106.196H73.2899V103.573H74.3979C76.2319 103.573 77.6456 102.383 77.6456 100.656C77.6456 98.9029 76.2701 97.7514 74.3979 97.7514H71.0993V106.196ZM73.2899 101.654V99.6706H74.4107C75.022 99.6706 75.4168 100.054 75.4168 100.656C75.4168 101.257 75.022 101.654 74.4107 101.654H73.2899Z" fill="#FFFFFF"/>
<path d="M88.399 106.196H90.7551L86.9344 97.5979H86.2339L82.4132 106.196H84.7693L85.0749 105.492H88.0933L88.399 106.196ZM87.3165 103.727H85.8518L86.5905 101.769L87.3165 103.727Z" fill="#FFFFFF"/>
<path d="M97.0362 106.196H99.2268V102.818H102.296V106.196H104.487V97.7514H102.296V100.835H99.2268V97.7514H97.0362V106.196Z" fill="#FFFFFF"/>
<path d="M111.578 106.196H113.769V102.818H116.838V106.196H119.028V97.7514H116.838V100.835H113.769V97.7514H111.578V106.196Z" fill="#FFFFFF"/>
<path d="M126.12 106.196H129.635C131.507 106.196 132.882 105.044 132.882 103.292C132.882 101.564 131.469 100.374 129.635 100.374H128.31V97.7514H126.12V106.196ZM128.31 104.277V102.294H129.648C130.259 102.294 130.654 102.69 130.654 103.292C130.654 103.893 130.259 104.277 129.648 104.277H128.31ZM133.99 106.196H136.181V97.7514H133.99V106.196Z" fill="#FFFFFF"/>
<path d="M150.023 97.5979L145.464 102.089V97.7514H143.273V106.349H143.974L148.533 101.807V106.196H150.724V97.5979H150.023ZM145.044 94.6679C145.044 96.0625 146.024 97.0477 147.412 97.0477C148.801 97.0477 149.781 96.0625 149.781 94.6679V94.5527H148.062V94.7319C148.062 95.2309 147.833 95.4995 147.412 95.4995C146.992 95.4995 146.763 95.2309 146.763 94.7319V94.5527H145.044V94.6679Z" fill="##FFFFFF"/>
<path d="M182.848 106.196L180.135 101.91L182.682 97.7514H180.212L178.9 100.003L177.588 97.7514H175.117L177.703 101.91L174.964 106.196H177.435L178.9 103.829L180.377 106.196H182.848Z" fill="#FFFFFF"/>
<path d="M188.371 101.974C188.32 104.417 190.434 106.388 192.892 106.349C195.337 106.388 197.49 104.417 197.439 101.974C197.49 99.5555 195.337 97.5467 192.892 97.5979C190.434 97.5467 188.32 99.5555 188.371 101.974ZM195.197 101.974C195.197 103.381 194.204 104.328 192.905 104.328C192.23 104.328 191.67 104.11 191.249 103.688C190.829 103.253 190.612 102.677 190.612 101.974C190.612 100.579 191.555 99.6194 192.905 99.6194C194.204 99.6194 195.197 100.579 195.197 101.974Z" fill="#FFFFFF"/>
<path d="M204.83 97.7514V99.5299C204.83 103.138 204.448 104.353 203.608 104.353C203.442 104.353 203.328 104.341 203.264 104.328V106.196C203.557 106.298 203.837 106.349 204.13 106.349C205.938 106.311 206.881 104.993 206.906 99.7346H208.778V106.196H210.969V97.7514H204.83Z" fill="#FFFFFF"/>
<path d="M225.347 104.213V97.7514H219.017V99.4019C219.017 102.153 218.775 103.752 218.176 104.213H217.476V108H219.666V106.196H224.34V108H226.531V104.213H225.347ZM220.52 104.213C220.889 103.279 221.08 101.782 221.093 99.7346H223.156V104.213H220.52Z" fill="#FFFFFF"/>
<path d="M239.789 97.5979L235.229 102.089V97.7514H233.039V106.349H233.739L238.299 101.807V106.196H240.489V97.5979H239.789Z" fill="#FFFFFF"/>
<path d="M247.58 106.196H249.771V102.818H252.84V106.196H255.031V97.7514H252.84V100.835H249.771V97.7514H247.58V106.196Z" fill="#FFFFFF"/>
<path d="M262.122 106.196H264.313V99.7346H267.79V97.7514H262.122V106.196Z" fill="#FFFFFF"/>
<defs>
<clipPath id="clip0">
<rect width="270" height="70.3708" fill="white"/>
</clipPath>
</defs>
</svg>
