<svg width="20" height="21" viewBox="0 0 20 21" fill="none" xmlns="http://www.w3.org/2000/svg">
<path d="M14.2749 10.0474L7.30862 3.40992C7.19239 3.29912 7.03796 3.2373 6.87737 3.2373C6.71679 3.2373 6.56236 3.29912 6.44613 3.40992L6.43862 3.41742C6.38208 3.47114 6.33706 3.5358 6.30629 3.60746C6.27552 3.67913 6.25966 3.75631 6.25966 3.8343C6.25966 3.91229 6.27552 3.98947 6.30629 4.06113C6.33706 4.1328 6.38208 4.19746 6.43862 4.25117L12.9986 10.5012L6.43862 16.7487C6.38208 16.8024 6.33706 16.867 6.30629 16.9387C6.27552 17.0104 6.25966 17.0876 6.25966 17.1655C6.25966 17.2435 6.27552 17.3207 6.30629 17.3924C6.33706 17.464 6.38208 17.5287 6.43862 17.5824L6.44613 17.5899C6.56236 17.7007 6.71679 17.7625 6.87737 17.7625C7.03796 17.7625 7.19239 17.7007 7.30862 17.5899L14.2749 10.9524C14.3361 10.8941 14.3849 10.8238 14.4182 10.7461C14.4516 10.6683 14.4688 10.5845 14.4688 10.4999C14.4688 10.4153 14.4516 10.3316 14.4182 10.2538C14.3849 10.176 14.3361 10.1058 14.2749 10.0474Z" fill="white"/>
</svg>
