<svg width="25" height="24" viewBox="0 0 25 24" fill="none" xmlns="http://www.w3.org/2000/svg">
<path d="M15.5 22.75H9.5C4.07 22.75 1.75 20.43 1.75 15V9C1.75 3.57 4.07 1.25 9.5 1.25H15.5C20.93 1.25 23.25 3.57 23.25 9V15C23.25 20.43 20.93 22.75 15.5 22.75ZM9.5 2.75C4.89 2.75 3.25 4.39 3.25 9V15C3.25 19.61 4.89 21.25 9.5 21.25H15.5C20.11 21.25 21.75 19.61 21.75 15V9C21.75 4.39 20.11 2.75 15.5 2.75H9.5Z" fill="#808080"/>
<path d="M12.5 16.25C10.16 16.25 8.25 14.34 8.25 12C8.25 9.66 10.16 7.75 12.5 7.75C14.84 7.75 16.75 9.66 16.75 12C16.75 14.34 14.84 16.25 12.5 16.25ZM12.5 9.25C10.98 9.25 9.75 10.48 9.75 12C9.75 13.52 10.98 14.75 12.5 14.75C14.02 14.75 15.25 13.52 15.25 12C15.25 10.48 14.02 9.25 12.5 9.25Z" fill="#808080"/>
<path d="M17.5 7.4999C17.37 7.4999 17.24 7.4699 17.12 7.4199C17 7.3699 16.89 7.2999 16.79 7.2099C16.7 7.1099 16.62 6.9999 16.57 6.8799C16.52 6.7599 16.5 6.6299 16.5 6.4999C16.5 6.3699 16.52 6.2399 16.57 6.1199C16.63 5.9899 16.7 5.8899 16.79 5.7899C16.84 5.7499 16.89 5.6999 16.94 5.6699C17 5.6299 17.06 5.5999 17.12 5.5799C17.18 5.5499 17.24 5.5299 17.31 5.5199C17.63 5.4499 17.97 5.5599 18.21 5.7899C18.3 5.8899 18.37 5.9899 18.42 6.1199C18.47 6.2399 18.5 6.3699 18.5 6.4999C18.5 6.6299 18.47 6.7599 18.42 6.8799C18.37 6.9999 18.3 7.1099 18.21 7.2099C18.11 7.2999 18 7.3699 17.88 7.4199C17.76 7.4699 17.63 7.4999 17.5 7.4999Z" fill="#808080"/>
</svg>
