<svg width="32" height="32" viewBox="0 0 32 32" fill="none" xmlns="http://www.w3.org/2000/svg">
<path d="M27.999 4C24.1934 4.52053 20.5989 6.05886 17.595 8.45259C14.5911 10.8463 12.2892 14.0067 10.9323 17.6M28.001 4C27.4805 7.80558 25.9422 11.4 23.5485 14.4039C21.1547 17.4078 17.9944 19.7097 14.401 21.0667M14.1328 12C16.7237 13.1958 18.8037 15.2758 19.9995 17.8667M4 28V22.6667C4 21.6118 4.31279 20.5807 4.89883 19.7036C5.48486 18.8266 6.31782 18.143 7.29236 17.7393C8.26689 17.3356 9.33925 17.23 10.3738 17.4358C11.4084 17.6416 12.3587 18.1496 13.1046 18.8954C13.8505 19.6413 14.3584 20.5916 14.5642 21.6262C14.77 22.6608 14.6644 23.7331 14.2607 24.7076C13.857 25.6822 13.1734 26.5151 12.2964 27.1012C11.4193 27.6872 10.3882 28 9.33333 28H4Z" stroke="white" stroke-linecap="round" stroke-linejoin="round"/>
</svg>
