<svg width="25" height="24" viewBox="0 0 25 24" fill="none" xmlns="http://www.w3.org/2000/svg">
<path d="M17.5 20.75H7.5C4.06 20.75 1.75 18.44 1.75 15V9C1.75 5.56 4.06 3.25 7.5 3.25H17.5C20.94 3.25 23.25 5.56 23.25 9V15C23.25 18.44 20.94 20.75 17.5 20.75ZM7.5 4.75C4.92 4.75 3.25 6.42 3.25 9V15C3.25 17.58 4.92 19.25 7.5 19.25H17.5C20.08 19.25 21.75 17.58 21.75 15V9C21.75 6.42 20.08 4.75 17.5 4.75H7.5Z" fill="#808080"/>
<path d="M11.0901 15.53C10.8001 15.53 10.5201 15.46 10.2701 15.32C9.69014 14.99 9.3501 14.32 9.3501 13.49V10.53C9.3501 9.69997 9.68014 9.02999 10.2701 8.69999C10.8501 8.36999 11.6001 8.42996 12.3101 8.85996L14.7802 10.34C15.4602 10.75 15.8501 11.36 15.8501 12.01C15.8501 12.66 15.4602 13.27 14.7802 13.68L12.3101 15.16C11.9001 15.4 11.4801 15.53 11.0901 15.53ZM11.0901 9.96998C11.0501 9.96998 11.0201 9.97997 11.0001 9.98997C10.9301 10.03 10.8501 10.21 10.8501 10.52V13.48C10.8501 13.78 10.9301 13.96 11.0001 14.01C11.0801 14.05 11.2702 14.03 11.5302 13.87L14.0001 12.39C14.2501 12.24 14.3401 12.09 14.3401 12C14.3401 11.91 14.2501 11.77 14.0001 11.61L11.5302 10.13C11.3502 10.02 11.1901 9.96998 11.0901 9.96998Z" fill="#808080"/>
</svg>
